<svg width="19" height="18" viewBox="0 0 19 18" fill="none" xmlns="http://www.w3.org/2000/svg">
<path d="M6.64903 9.87173C6.66309 8.35298 6.70528 2.37641 6.70528 2.15141C6.74747 0.351413 9.05372 0.365476 9.08184 2.05298C9.08184 2.26391 9.23653 5.5686 9.26466 6.5811C9.54591 5.84985 10.9381 5.52641 11.36 7.01704C11.7256 6.31391 13.174 6.11704 13.4272 7.60766C13.7787 7.07329 14.96 7.00298 15.424 8.45141C15.8037 9.63266 15.7053 12.417 15.1006 14.1186C14.6365 15.3983 14.285 15.2999 14.3131 16.467C14.3131 16.6639 14.1584 16.7624 13.9756 16.8045C13.16 16.9733 10.2772 17.0717 9.22247 16.8327C8.99747 16.7764 8.96934 16.5936 8.95528 16.5233C8.89903 16.228 8.60372 15.9327 8.35059 15.8202C7.45059 15.3702 6.55059 14.0202 5.79122 12.5295C5.39747 11.7561 4.55372 11.2358 3.21778 11.067C2.33184 10.9545 2.13497 9.85766 2.86622 9.40766C3.37247 9.09829 3.85059 8.99985 4.32872 8.99985C5.20059 8.98579 5.74903 9.23891 6.64903 9.87173Z" fill="#FFCA28"/>
<mask id="mask0_3238_9676" style="mask-type:luminance" maskUnits="userSpaceOnUse" x="2" y="0" width="14" height="17">
<path d="M6.64903 9.87173C6.66309 8.35298 6.70528 2.37641 6.70528 2.15141C6.74747 0.351413 9.05372 0.365476 9.08184 2.05298C9.08184 2.26391 9.23653 5.5686 9.26466 6.5811C9.54591 5.84985 10.9381 5.52641 11.36 7.01704C11.7256 6.31391 13.174 6.11704 13.4272 7.60766C13.7787 7.07329 14.96 7.00298 15.424 8.45141C15.8037 9.63266 15.7053 12.417 15.1006 14.1186C14.6365 15.3983 14.285 15.2999 14.3131 16.467C14.3131 16.6639 14.1584 16.7624 13.9756 16.8045C13.16 16.9733 10.2772 17.0717 9.22247 16.8327C8.99747 16.7764 8.96934 16.5936 8.95528 16.5233C8.89903 16.228 8.60372 15.9327 8.35059 15.8202C7.45059 15.3702 6.55059 14.0202 5.79122 12.5295C5.39747 11.7561 4.55372 11.2358 3.21778 11.067C2.33184 10.9545 2.13497 9.85766 2.86622 9.40766C3.37247 9.09829 3.85059 8.99985 4.32872 8.99985C5.20059 8.98579 5.74903 9.23891 6.64903 9.87173Z" fill="white"/>
</mask>
<g mask="url(#mask0_3238_9676)">
<path d="M9.2375 7.81855C9.4625 7.80449 9.64531 7.4248 10.1375 7.4248C10.6578 7.4248 10.7984 7.84668 11.1922 7.86074C11.5719 7.8748 11.7266 7.57949 12.275 7.6498C12.9078 7.73418 12.8375 8.22637 13.2734 8.24043C13.6531 8.24043 13.7234 7.9873 14.2016 7.9873C14.6375 7.9873 15.0172 8.40918 15.1859 8.76074C15.3547 9.11231 15.6641 8.92949 15.6641 8.76074C15.6641 8.59199 15.4813 7.08731 14.5109 6.72168C13.3859 6.2998 10.3484 5.1748 9.32188 5.48418C9.18125 6.48262 9.09688 7.10137 9.06875 7.41074C9.05469 7.50918 8.98438 7.81855 9.2375 7.81855ZM6.59375 9.6748C6.72031 9.6748 6.80469 9.66074 6.80469 9.53418C6.80469 9.39355 7.1 3.40293 7.12813 2.27793C7.15625 0.984178 8.19688 1.05449 8.54844 1.44824C8.7875 1.71543 9.11094 1.36387 8.91406 1.13887C8.71719 0.913865 8.43594 0.520116 7.73281 0.534179C7.02969 0.548242 6.52344 1.15293 6.48125 1.71543C6.43906 2.2498 6.59375 9.6748 6.59375 9.6748ZM9.54688 16.9732C9.54688 14.7373 7.90156 14.9904 6.88906 13.4295C5.46875 11.2639 5.32812 11.1373 3.34531 10.6592C2.65625 10.4904 2.72656 9.85762 3.05 9.57637C3.37344 9.29512 2.86719 8.8873 2.67031 9.07012C2.47344 9.25293 1.5875 10.167 2.51563 11.1514C3.42969 12.1357 9.0125 17.0576 9.0125 17.0576L9.54688 16.9732Z" fill="#FAA700"/>
</g>
<mask id="mask1_3238_9676" style="mask-type:luminance" maskUnits="userSpaceOnUse" x="2" y="0" width="14" height="17">
<path d="M6.64903 9.87173C6.66309 8.35298 6.70528 2.37641 6.70528 2.15141C6.74747 0.351413 9.05372 0.365476 9.08184 2.05298C9.08184 2.26391 9.23653 5.5686 9.26466 6.5811C9.54591 5.84985 10.9381 5.52641 11.36 7.01704C11.7256 6.31391 13.174 6.11704 13.4272 7.60766C13.7787 7.07329 14.96 7.00298 15.424 8.45141C15.8037 9.63266 15.7053 12.417 15.1006 14.1186C14.6365 15.3983 14.285 15.2999 14.3131 16.467C14.3131 16.6639 14.1584 16.7624 13.9756 16.8045C13.16 16.9733 10.2772 17.0717 9.22247 16.8327C8.99747 16.7764 8.96934 16.5936 8.95528 16.5233C8.89903 16.228 8.60372 15.9327 8.35059 15.8202C7.45059 15.3702 6.55059 14.0202 5.79122 12.5295C5.39747 11.7561 4.55372 11.2358 3.21778 11.067C2.33184 10.9545 2.13497 9.85766 2.86622 9.40766C3.37247 9.09829 3.85059 8.99985 4.32872 8.99985C5.20059 8.98579 5.74903 9.23891 6.64903 9.87173Z" fill="white"/>
</mask>
<g mask="url(#mask1_3238_9676)">
<path d="M6.65 9.87158L6.65 10.1388C6.65 10.195 6.59375 10.2513 6.46719 10.1669C6.34063 10.0825 5.34219 9.35127 4.35781 9.35127C3.90781 9.35127 3.275 9.42158 2.61406 9.82939C2.4875 9.91377 2.41719 9.80127 2.47344 9.70283C2.54375 9.60439 2.92344 8.80283 4.35781 8.78877C5.79219 8.77471 6.65 9.87158 6.65 9.87158ZM7.8875 0.716893C7.8875 0.787206 7.85938 0.871581 8.02813 0.955957C8.23906 1.0544 8.64688 1.39189 8.68906 2.13721C8.73125 2.88252 9.04063 7.49502 9.04063 7.60752C9.04063 7.76221 9.30781 7.77627 9.29375 7.59346C9.27969 7.35439 9.26563 6.58096 9.26563 6.58096C9.26563 6.58096 9.51875 2.23564 9.18125 1.39189C8.84375 0.534082 7.8875 0.716893 7.8875 0.716893ZM10.5031 5.94814C10.4891 5.99033 10.4891 6.04658 10.5453 6.08877C10.8266 6.29971 11.0375 6.73564 11.0094 7.57939C11.0094 7.77627 11.3891 7.8044 11.3891 7.56533C11.3891 7.46689 11.375 7.00283 11.375 7.00283L11.3469 6.07471L10.5031 5.94814ZM12.6125 6.4544C12.5984 6.49658 12.5984 6.55283 12.6688 6.60908C12.95 6.82002 13.0625 7.10127 13.0906 7.97314C13.1047 8.18408 13.4563 8.17002 13.4563 7.94502C13.4563 7.79033 13.4422 7.60752 13.4422 7.60752L13.3578 6.62314L12.6125 6.4544ZM14.4125 7.21377C14.3984 7.25596 14.3844 7.32627 14.4688 7.38252C14.6234 7.49502 14.8906 7.79033 15.0875 8.43721C15.2422 8.95752 15.3547 11.4325 14.9891 13.0075C14.9188 13.331 14.5672 14.3997 14.2438 14.92C13.9203 15.4403 14.0188 15.9466 14.0469 16.0872C14.075 16.2278 14.1453 16.9731 14.1453 16.9731L14.6656 16.6216L15.875 12.8247L15.7906 7.41064L14.4125 7.21377Z" fill="#B55E19"/>
</g>
</svg>
