<svg width="38" height="30" viewBox="0 0 38 30" fill="none" xmlns="http://www.w3.org/2000/svg">
<g clip-path="url(#clip0_8250_5305)">
<path fill-rule="evenodd" clip-rule="evenodd" d="M2.54666 0.280273H34.8321C36.0774 0.280273 37.0938 1.29139 37.0938 2.53018V14.577C36.6053 14.1025 36.0689 13.6793 35.4931 13.3142V11.3741H1.88561V23.8065C1.88561 24.3273 2.31778 24.7572 2.84062 24.7572H20.8535C21.0436 25.3115 21.2827 25.844 21.565 26.3495H2.54666C1.30134 26.3495 0.28125 25.3392 0.28125 24.0996V2.53382C0.28125 1.29139 1.29769 0.280273 2.54666 0.280273ZM5.99085 21.4147C5.4702 21.4147 5.04827 20.9943 5.04827 20.4764C5.04827 19.9592 5.4702 19.5387 5.99085 19.5387H14.5669C15.0876 19.5387 15.5095 19.9592 15.5095 20.4764C15.5095 20.9943 15.0876 21.4147 14.5669 21.4147H5.99085ZM5.99085 16.9135C5.4702 16.9135 5.04827 16.4937 5.04827 15.9758C5.04827 15.4579 5.4702 15.0382 5.99085 15.0382H8.55607C9.07672 15.0382 9.49866 15.4579 9.49866 15.9758C9.49866 16.4937 9.07672 16.9135 8.55607 16.9135H5.99085ZM11.4094 16.9135C10.8888 16.9135 10.4668 16.4937 10.4668 15.9758C10.4668 15.4579 10.8888 15.0382 11.4094 15.0382H13.2778C13.7984 15.0382 14.2203 15.4579 14.2203 15.9758C14.2203 16.4937 13.7984 16.9135 13.2778 16.9135H11.4094ZM16.2868 16.9135C15.7662 16.9135 15.3443 16.4937 15.3443 15.9758C15.3443 15.4579 15.7662 15.0382 16.2868 15.0382H18.1457C18.6656 15.0382 19.0883 15.4579 19.0883 15.9758C19.0883 16.4937 18.6656 16.9135 18.1457 16.9135H16.2868ZM30.2047 14.1245C34.3546 14.1245 37.7212 17.4736 37.7212 21.6017C37.7212 25.7312 34.3546 29.0803 30.2047 29.0803C26.0534 29.0803 22.6867 25.7312 22.6867 21.6017C22.6867 17.4736 26.0534 14.1245 30.2047 14.1245ZM30.6932 17.7238C31.0113 17.7238 31.2628 17.8155 31.4442 17.9966C31.6248 18.1763 31.7162 18.4258 31.7162 18.7436C31.7162 19.0673 31.5605 19.3554 31.249 19.6085C30.9345 19.8602 30.5696 19.9875 30.1543 19.9875C29.8428 19.9875 29.5941 19.9002 29.4047 19.7257C29.2139 19.5496 29.1196 19.3219 29.1196 19.039C29.1196 18.6811 29.2746 18.3734 29.5824 18.1122C29.8918 17.8533 30.2618 17.7238 30.6932 17.7238ZM28.6223 24.3571H29.0311V21.5886H28.2589C28.2589 20.5433 30.1908 21.222 31.6117 20.8648V24.3571H32.1499V25.2599H28.6223V24.3571ZM1.88561 5.31038H35.4895V2.82624C35.4895 2.30614 35.0573 1.87623 34.5345 1.87623H2.84062C2.31778 1.87623 1.88561 2.30614 1.88561 2.82624V5.31038Z" fill="#0087FF"/>
</g>
<defs>
<clipPath id="clip0_8250_5305">
<rect width="37.44" height="28.8" fill="white" transform="translate(0.28125 0.280273)"/>
</clipPath>
</defs>
</svg>
