<svg width="63" height="62" viewBox="0 0 63 62" fill="none" xmlns="http://www.w3.org/2000/svg">
<path d="M31.5 0C14.3684 0 0.5 13.8684 0.5 31C0.5 48.1316 14.3684 62 31.5 62C48.6316 62 62.5 48.1316 62.5 31C62.5 13.8684 48.6316 0 31.5 0ZM31.5 58.7368C16.1632 58.7368 3.76316 46.3368 3.76316 31C3.76316 15.6632 16.1632 3.26316 31.5 3.26316C46.8368 3.26316 59.2368 15.6632 59.2368 31C59.2368 46.3368 46.8368 58.7368 31.5 58.7368ZM50.1816 20.4763C49.5289 19.8237 48.55 19.8237 47.8974 20.4763L27.0947 41.3605L18.3658 32.6316C17.7132 31.9789 16.6526 31.9789 16.0816 32.6316C15.4289 33.2842 15.4289 34.3447 16.0816 34.9158L25.9526 44.7868C26.2789 45.1132 26.6868 45.2763 27.0947 45.2763C27.5026 45.2763 27.9105 45.1132 28.2368 44.7868L50.1816 22.7605C50.8342 22.1079 50.8342 21.1289 50.1816 20.4763Z" fill="#0087FF"/>
</svg>
