<svg width="88" height="88" viewBox="0 0 88 88" fill="none" xmlns="http://www.w3.org/2000/svg">
<path d="M66.0391 32.9627L55.0391 21.9627L60.5024 16.4994C62.0424 14.9594 64.0224 14.2261 66.0024 14.2261C67.9824 14.2261 69.9624 14.9594 71.5024 16.4994C74.5457 19.5427 74.5457 24.4561 71.5024 27.4994L66.0391 32.9627Z" fill="#B136C6"/>
<path d="M23.8294 75.1677C20.786 78.211 15.8727 78.211 12.8294 75.1677C9.78604 72.1244 9.78604 67.211 12.8294 64.1677L55.0327 21.9644L66.0327 32.9644L23.8294 75.1677Z" fill="#B136C6" fillOpacity="0.2"/>
<path d="M37.9859 7.73673C38.1326 7.26006 37.9859 6.74673 37.6559 6.38006C37.3259 6.0134 36.7393 5.86673 36.2626 6.0134L31.1659 7.51673L26.0692 6.0134C25.5926 5.86673 25.0792 6.0134 24.7126 6.3434C24.3459 6.71006 24.2359 7.22339 24.3826 7.70006L25.8492 12.8334L24.3459 17.9301C24.1992 18.4067 24.3459 18.9201 24.6759 19.2867C25.0426 19.6534 25.5559 19.7634 26.0326 19.6167L31.1659 18.1501L36.2626 19.6534C36.4093 19.6901 36.5192 19.7267 36.6659 19.7267C37.0326 19.7267 37.3626 19.5801 37.6559 19.3234C38.0226 18.9567 38.1326 18.4434 37.9859 17.9667L36.4826 12.8334L37.9859 7.73673Z" fill="#B136C6"/>
<path d="M23.3219 29.7367C23.4685 29.2601 23.3219 28.7467 22.9919 28.3801C22.6252 28.0134 22.1119 27.9034 21.6352 28.0501L16.5019 29.5167L11.4052 28.0134C10.9285 27.8667 10.4152 28.0134 10.0485 28.3434C9.68185 28.7101 9.57185 29.2234 9.71852 29.7001L11.1852 34.8334L9.68185 39.9301C9.53519 40.4067 9.68185 40.9201 10.0119 41.2867C10.3785 41.6534 10.8919 41.7634 11.3685 41.6167L16.4652 40.1134L21.5619 41.6167C21.6719 41.6534 21.8185 41.6534 21.9652 41.6534C22.3319 41.6534 22.6619 41.5067 22.9552 41.2501C23.3219 40.8834 23.4319 40.3701 23.2852 39.8934L21.8185 34.8334L23.3219 29.7367Z" fill="#B136C6"/>
<path d="M78.317 48.0698C78.4637 47.5932 78.317 47.0798 77.987 46.7132C77.6204 46.3465 77.107 46.2365 76.6304 46.3832L71.5337 47.8865L66.437 46.3832C65.9604 46.2365 65.447 46.3832 65.0804 46.7132C64.7137 47.0798 64.6037 47.5932 64.7504 48.0698L66.2537 53.1665L64.7504 58.2632C64.6037 58.7398 64.7504 59.2532 65.0804 59.6198C65.447 59.9865 65.9604 60.0965 66.437 59.9498L71.5337 58.4465L76.6304 59.9498C76.7404 59.9865 76.887 59.9865 77.0337 59.9865C77.4004 59.9865 77.7304 59.8398 78.0237 59.5832C78.3904 59.2165 78.5004 58.7032 78.3537 58.2265L76.8137 53.1665L78.317 48.0698Z" fill="#B136C6"/>
</svg>
