<svg width="33" height="33" viewBox="0 0 33 33" fill="none" xmlns="http://www.w3.org/2000/svg">
<path d="M16.5 0C7.402 0 0 7.402 0 16.5C0 25.598 7.402 33 16.5 33C25.598 33 33 25.598 33 16.5C33 7.402 25.598 0 16.5 0ZM9.51923 23.9567C9.14269 23.9567 8.7746 23.8451 8.46151 23.6359C8.14843 23.4267 7.9044 23.1293 7.76031 22.7815C7.61621 22.4336 7.57851 22.0508 7.65197 21.6815C7.72543 21.3122 7.90675 20.9729 8.17301 20.7067C8.43927 20.4404 8.7785 20.2591 9.14781 20.1856C9.51712 20.1122 9.89992 20.1499 10.2478 20.294C10.5957 20.4381 10.893 20.6821 11.1022 20.9952C11.3114 21.3083 11.4231 21.6763 11.4231 22.0529C11.4231 22.5578 11.2225 23.0421 10.8655 23.3991C10.5084 23.7561 10.0242 23.9567 9.51923 23.9567ZM9.51923 18.3245C9.14269 18.3245 8.7746 18.2129 8.46151 18.0037C8.14843 17.7945 7.9044 17.4971 7.76031 17.1492C7.61621 16.8014 7.57851 16.4186 7.65197 16.0492C7.72543 15.6799 7.90675 15.3407 8.17301 15.0745C8.43927 14.8082 8.7785 14.6269 9.14781 14.5534C9.51712 14.4799 9.89992 14.5177 10.2478 14.6617C10.5957 14.8058 10.893 15.0499 11.1022 15.363C11.3114 15.676 11.4231 16.0441 11.4231 16.4207C11.4231 16.9256 11.2225 17.4099 10.8655 17.7669C10.5084 18.1239 10.0242 18.3245 9.51923 18.3245ZM9.51923 12.5337C9.14269 12.5337 8.7746 12.422 8.46151 12.2128C8.14843 12.0036 7.9044 11.7063 7.76031 11.3584C7.61621 11.0105 7.57851 10.6277 7.65197 10.2584C7.72543 9.88908 7.90675 9.54984 8.17301 9.28358C8.43927 9.01733 8.7785 8.836 9.14781 8.76254C9.51712 8.68908 9.89992 8.72679 10.2478 8.87088C10.5957 9.01498 10.893 9.259 11.1022 9.57209C11.3114 9.88517 11.4231 10.2533 11.4231 10.6298C11.4231 11.1347 11.2225 11.619 10.8655 11.976C10.5084 12.3331 10.0242 12.5337 9.51923 12.5337ZM24.1154 23.2428H13.9615C13.6249 23.2428 13.3021 23.1091 13.0641 22.871C12.826 22.633 12.6923 22.3102 12.6923 21.9736C12.6923 21.6369 12.826 21.3141 13.0641 21.0761C13.3021 20.838 13.6249 20.7043 13.9615 20.7043H24.1154C24.452 20.7043 24.7748 20.838 25.0129 21.0761C25.2509 21.3141 25.3846 21.6369 25.3846 21.9736C25.3846 22.3102 25.2509 22.633 25.0129 22.871C24.7748 23.1091 24.452 23.2428 24.1154 23.2428ZM24.1154 17.6106H13.9615C13.6249 17.6106 13.3021 17.4769 13.0641 17.2388C12.826 17.0008 12.6923 16.678 12.6923 16.3413C12.6923 16.0047 12.826 15.6819 13.0641 15.4439C13.3021 15.2058 13.6249 15.0721 13.9615 15.0721H24.1154C24.452 15.0721 24.7748 15.2058 25.0129 15.4439C25.2509 15.6819 25.3846 16.0047 25.3846 16.3413C25.3846 16.678 25.2509 17.0008 25.0129 17.2388C24.7748 17.4769 24.452 17.6106 24.1154 17.6106ZM24.1154 11.899H13.9615C13.6249 11.899 13.3021 11.7653 13.0641 11.5273C12.826 11.2893 12.6923 10.9664 12.6923 10.6298C12.6923 10.2932 12.826 9.97035 13.0641 9.73233C13.3021 9.4943 13.6249 9.36058 13.9615 9.36058H24.1154C24.452 9.36058 24.7748 9.4943 25.0129 9.73233C25.2509 9.97035 25.3846 10.2932 25.3846 10.6298C25.3846 10.9664 25.2509 11.2893 25.0129 11.5273C24.7748 11.7653 24.452 11.899 24.1154 11.899Z" fill="#2C73FF"/>
</svg>
