<svg width="25" height="25" viewBox="0 0 25 25" fill="none" xmlns="http://www.w3.org/2000/svg">
<path d="M21.6442 7.39648C21.6242 7.39648 21.5942 7.39648 21.5642 7.39648C16.2742 6.86648 10.9942 6.66648 5.7642 7.19648L3.7242 7.39648C3.3042 7.43648 2.9342 7.13648 2.8942 6.71648C2.8542 6.29648 3.1542 5.93648 3.5642 5.89648L5.6042 5.69648C10.9242 5.15648 16.3142 5.36648 21.7142 5.89648C22.1242 5.93648 22.4242 6.30648 22.3842 6.71648C22.3542 7.10648 22.0242 7.39648 21.6442 7.39648Z" fill="#FF0000"/>
<path d="M9.14527 6.38602C9.10527 6.38602 9.06527 6.38602 9.01527 6.37602C8.61527 6.30602 8.33527 5.91602 8.40527 5.51602L8.62527 4.20602C8.78527 3.24602 9.00527 1.91602 11.3353 1.91602L13.9553 1.91602C16.2953 1.91602 16.5153 3.29602 16.6653 4.21602L16.8853 5.51602C16.9553 5.92602 16.6753 6.31602 16.2753 6.37602C15.8653 6.44602 15.4753 6.16602 15.4153 5.76602L15.1953 4.46602C15.0553 3.59602 15.0253 3.42602 13.9653 3.42602L11.3453 3.42602C10.2853 3.42602 10.2653 3.56602 10.1153 4.45602L9.88527 5.75602C9.82527 6.12602 9.50527 6.38602 9.14527 6.38602Z" fill="#FF0000"/>
<path d="M15.8549 23.4156H9.43492C5.94492 23.4156 5.80492 21.4856 5.69492 19.9256L5.04492 9.8556C5.01492 9.4456 5.33492 9.0856 5.74492 9.0556C6.16492 9.0356 6.51492 9.3456 6.54492 9.7556L7.19492 19.8256C7.30492 21.3456 7.34492 21.9156 9.43492 21.9156H15.8549C17.9549 21.9156 17.9949 21.3456 18.0949 19.8256L18.7449 9.7556C18.7749 9.3456 19.1349 9.0356 19.5449 9.0556C19.9549 9.0856 20.2749 9.4356 20.2449 9.8556L19.5949 19.9256C19.4849 21.4856 19.3449 23.4156 15.8549 23.4156Z" fill="#FF0000"/>
<path d="M14.3027 17.916H10.9727C10.5627 17.916 10.2227 17.576 10.2227 17.166C10.2227 16.756 10.5627 16.416 10.9727 16.416H14.3027C14.7127 16.416 15.0527 16.756 15.0527 17.166C15.0527 17.576 14.7127 17.916 14.3027 17.916Z" fill="#FF0000"/>
<path d="M15.1445 13.916L10.1445 13.916C9.73453 13.916 9.39453 13.576 9.39453 13.166C9.39453 12.756 9.73453 12.416 10.1445 12.416L15.1445 12.416C15.5545 12.416 15.8945 12.756 15.8945 13.166C15.8945 13.576 15.5545 13.916 15.1445 13.916Z" fill="#FF0000"/>
</svg>
