<svg width="63" height="64" viewBox="0 0 63 64" fill="none" xmlns="http://www.w3.org/2000/svg">
<path d="M27.9497 27.9883H17.9707V29.9883H27.9497V27.9883Z" fill="#0087FF"/>
<path d="M35.3127 22.375H17.9707V24.375H35.3127V22.375Z" fill="#0087FF"/>
<path d="M35.3127 16.7754H17.9707V18.7754H35.3127V16.7754Z" fill="#0087FF"/>
<path d="M60.7972 37.8474C60.3359 37.3891 59.7793 37.0379 59.1669 36.819C58.5546 36.6 57.9016 36.5185 57.2542 36.5804C55.8239 34.9342 54.076 33.5938 52.1152 32.6394V20.9394C52.1152 20.9324 52.1152 20.9274 52.1152 20.9204C52.1122 20.7746 52.0776 20.6313 52.0137 20.5002C51.9498 20.3692 51.8582 20.2535 51.7452 20.1614L43.6222 13.5784V10.8024C43.6222 10.5372 43.5168 10.2828 43.3293 10.0953C43.1418 9.90776 42.8874 9.8024 42.6222 9.8024H38.9642L27.1432 0.223405C26.965 0.0788773 26.7426 0 26.5132 0C26.2838 0 26.0614 0.0788773 25.8832 0.223405L14.0622 9.8024H10.4022C10.137 9.8024 9.88263 9.90776 9.6951 10.0953C9.50756 10.2828 9.4022 10.5372 9.4022 10.8024V13.5784L1.2782 20.1614C1.16537 20.2537 1.07386 20.3693 1.00999 20.5003C0.946117 20.6314 0.911391 20.7747 0.908203 20.9204C0.908203 20.9274 0.908203 20.9324 0.908203 20.9394V54.9254C0.908203 55.1906 1.01356 55.445 1.2011 55.6325C1.38863 55.8201 1.64299 55.9254 1.9082 55.9254H31.3902C33.4084 59.143 36.4944 61.5479 40.1077 62.7186C43.7209 63.8893 47.6309 63.7513 51.1526 62.3286C54.6742 60.906 57.583 58.2895 59.3692 54.9375C61.1555 51.5856 61.7052 47.712 60.9222 43.9954C61.6963 43.1514 62.1153 42.0414 62.0921 40.8963C62.0688 39.7513 61.605 38.6593 60.7972 37.8474ZM59.3832 39.2614C59.843 39.7224 60.1012 40.3468 60.1012 40.9979C60.1012 41.649 59.843 42.2734 59.3832 42.7344L46.3832 55.7344C45.9151 56.1808 45.2931 56.4298 44.6462 56.4298C43.9994 56.4298 43.3773 56.1808 42.9092 55.7344L35.6592 48.4844C35.1985 48.0237 34.9397 47.3989 34.9397 46.7474C34.9397 46.0959 35.1985 45.4711 35.6592 45.0104C36.1199 44.5497 36.7447 44.2909 37.3962 44.2909C38.0477 44.2909 38.6725 44.5497 39.1332 45.0104L43.9382 49.8174C44.0311 49.9104 44.1414 49.9841 44.2628 50.0345C44.3842 50.0848 44.5143 50.1107 44.6457 50.1107C44.7771 50.1107 44.9072 50.0848 45.0286 50.0345C45.15 49.9841 45.2603 49.9104 45.3532 49.8174L55.9092 39.2614C56.3705 38.8018 56.9951 38.5438 57.6462 38.5438C58.2973 38.5438 58.9219 38.8018 59.3832 39.2614ZM45.0542 31.0164C43.4411 31.016 41.837 31.257 40.2952 31.7314L50.1162 23.1424V31.8334C48.4829 31.2942 46.7742 31.0184 45.0542 31.0164ZM49.5642 20.9724L43.6232 26.1724V16.1544L49.5642 20.9724ZM26.5132 2.2874L35.7852 9.8024H17.2402L26.5132 2.2874ZM41.6232 11.8024V27.9134L26.5132 41.1284L11.4022 27.9134V11.8024H41.6232ZM18.7632 37.0074L2.9082 52.8624V23.1424L18.7632 37.0074ZM9.4022 16.1544V26.1644L3.4612 20.9724L9.4022 16.1544ZM4.6742 53.9254L20.2742 38.3254L25.8542 43.2094C26.0364 43.3686 26.2702 43.4564 26.5122 43.4564C26.7542 43.4564 26.988 43.3686 27.1702 43.2094L30.3542 40.4224C29.3636 42.5332 28.8455 44.8347 28.836 47.1663C28.8265 49.498 29.3259 51.8036 30.2992 53.9224L4.6742 53.9254ZM45.0542 61.4454C42.7094 61.449 40.4002 60.8726 38.3322 59.7674C36.2643 58.6623 34.5018 57.0627 33.2018 55.1113C31.9019 53.1599 31.1048 50.9172 30.8817 48.583C30.6586 46.2489 31.0164 43.8959 31.9231 41.7335C32.8298 39.5712 34.2573 37.6667 36.0785 36.1898C37.8996 34.7128 40.0579 33.7093 42.3608 33.2687C44.6638 32.828 47.04 32.9639 49.2778 33.6642C51.5155 34.3645 53.5453 35.6075 55.1862 37.2824C54.9376 37.4473 54.7062 37.6366 54.4952 37.8474L44.6542 47.6924L40.5542 43.5924C40.1442 43.1627 39.6524 42.8192 39.1077 42.5823C38.563 42.3454 37.9765 42.2197 37.3825 42.2128C36.7886 42.2058 36.1993 42.3176 35.6492 42.5417C35.0991 42.7658 34.5994 43.0976 34.1794 43.5176C33.7594 43.9376 33.4276 44.4373 33.2035 44.9874C32.9794 45.5375 32.8676 46.1268 32.8746 46.7207C32.8815 47.3147 33.0072 47.9012 33.2441 48.4459C33.481 48.9906 33.8245 49.4824 34.2542 49.8924L41.5042 57.1424C42.3399 57.9773 43.4729 58.4463 44.6542 58.4463C45.8355 58.4463 46.9685 57.9773 47.8042 57.1424L59.1832 45.7624C59.2369 46.2503 59.2656 46.7406 59.2692 47.2314C59.265 51.0001 57.7659 54.6131 55.101 57.2779C52.436 59.9426 48.8229 61.4414 45.0542 61.4454Z" fill="#0087FF"/>
</svg>
