<svg width="24" height="22" viewBox="0 0 24 22" fill="none" xmlns="http://www.w3.org/2000/svg">
                                            <path d="M8.3926 8.84644L8.43484 8.76785L8.37175 8.70477L1.63361 1.96662C1.43074 1.76376 1.31678 1.48862 1.31678 1.20173C1.31678 0.914834 1.43074 0.639693 1.63361 0.43683C1.73406 0.336383 1.8533 0.256703 1.98454 0.202342C2.11579 0.14798 2.25645 0.12 2.3985 0.12C2.54056 0.12 2.68122 0.14798 2.81246 0.202342C2.9437 0.256703 3.06295 0.336383 3.1634 0.43683L22.3127 19.5861L22.313 19.5864C22.4139 19.6865 22.494 19.8056 22.5487 19.9369C22.6034 20.0681 22.6315 20.2088 22.6315 20.351C22.6315 20.4931 22.6034 20.6339 22.5487 20.7651C22.494 20.8963 22.4139 21.0154 22.313 21.1155L22.3123 21.1162C22.2122 21.2172 22.0931 21.2973 21.9619 21.3519C21.8307 21.4066 21.6899 21.4348 21.5478 21.4348C21.4056 21.4348 21.2649 21.4066 21.1336 21.3519C21.0024 21.2973 20.8833 21.2172 20.7832 21.1162L20.7829 21.1159L14.0447 14.3777L13.9816 14.3146L13.9031 14.3569C13.1327 14.771 12.2495 14.9259 11.3842 14.7986C10.519 14.6713 9.71776 14.2686 9.09935 13.6501C8.48094 13.0317 8.07824 12.2305 7.95093 11.3653C7.82363 10.5 7.9785 9.61676 8.3926 8.84644ZM11.9731 12.6916H11.9831L11.9929 12.69L12.0647 12.678L12.2947 12.6397L12.1298 12.4748L10.2627 10.6077L10.0579 10.4029V10.6926V10.6927V10.6929V10.693V10.6931V10.6933V10.6934V10.6936V10.6937V10.6939V10.694V10.6942V10.6943V10.6945V10.6946V10.6948V10.6949V10.6951V10.6952V10.6954V10.6955V10.6957V10.6959V10.696V10.6962V10.6963V10.6965V10.6966V10.6968V10.697V10.6971V10.6973V10.6975V10.6976V10.6978V10.698V10.6981V10.6983V10.6985V10.6986V10.6988V10.699V10.6991V10.6993V10.6995V10.6997V10.6998V10.7V10.7002V10.7004V10.7005V10.7007V10.7009V10.7011V10.7012V10.7014V10.7016V10.7018V10.702V10.7021V10.7023V10.7025V10.7027V10.7029V10.703V10.7032V10.7034V10.7036V10.7038V10.704V10.7042V10.7044V10.7045V10.7047V10.7049V10.7051V10.7053V10.7055V10.7057V10.7059V10.7061V10.7063V10.7064V10.7066V10.7068V10.707V10.7072V10.7074V10.7076V10.7078V10.708V10.7082V10.7084V10.7086V10.7088V10.709V10.7092V10.7094V10.7096V10.7098V10.71V10.7102V10.7104V10.7106V10.7108V10.711V10.7112V10.7114V10.7116V10.7118V10.712V10.7122V10.7124V10.7126V10.7128V10.7131V10.7133V10.7135V10.7137V10.7139V10.7141V10.7143V10.7145V10.7147V10.7149V10.7151V10.7153V10.7156V10.7158V10.716V10.7162V10.7164V10.7166V10.7168V10.717V10.7172V10.7175V10.7177V10.7179V10.7181V10.7183V10.7185V10.7187V10.719V10.7192V10.7194V10.7196V10.7198V10.72V10.7202V10.7205V10.7207V10.7209V10.7211V10.7213V10.7215V10.7217V10.722V10.7222V10.7224V10.7226V10.7228V10.723V10.7233V10.7235V10.7237V10.7239V10.7241V10.7244V10.7246V10.7248V10.725V10.7252V10.7254V10.7257V10.7259V10.7261V10.7263V10.7265V10.7268V10.727V10.7272V10.7274V10.7276V10.7279V10.7281V10.7283V10.7285V10.7287V10.7289V10.7292V10.7294V10.7296V10.7298V10.73V10.7303V10.7305V10.7307V10.7309V10.7311V10.7314V10.7316V10.7318V10.732V10.7322V10.7325V10.7327V10.7329V10.7331V10.7333V10.7335V10.7338V10.734V10.7342V10.7344V10.7346V10.7349V10.7351V10.7353V10.7355V10.7357V10.7359V10.7362V10.7364V10.7366V10.7368V10.737V10.7372V10.7375V10.7377V10.7379V10.7381V10.7383V10.7385V10.7388V10.739V10.7392V10.7394V10.7396V10.7398V10.74V10.7403V10.7405V10.7407V10.7409V10.7411V10.7413V10.7415V10.7418V10.742V10.7422V10.7424V10.7426V10.7428V10.743V10.7432V10.7434V10.7437V10.7439V10.7441V10.7443V10.7445V10.7447V10.7449V10.7451V10.7453V10.7455V10.7457V10.7459V10.7462V10.7464V10.7466V10.7468V10.747V10.7472V10.7474V10.7476V10.7478V10.748V10.7482V10.7484V10.7486V10.7488V10.749V10.7492V10.7494V10.7496V10.7498V10.75V10.7502V10.7504V10.7506V10.7508V10.751V10.7512V10.7514V10.7516V10.7518V10.752V10.7522V10.7524V10.7526V10.7528V10.753V10.7531V10.7533V10.7535V10.7537V10.7539V10.7541V10.7543V10.7545V10.7547V10.7549V10.755V10.7552V10.7554V10.7556V10.7558V10.756V10.7562V10.7563V10.7565V10.7567V10.7569V10.7571V10.7573V10.7574V10.7576V10.7578V10.758V10.7581V10.7583V10.7585V10.7587V10.7589V10.759V10.7592V10.7594V10.7596V10.7597V10.7599V10.7601V10.7602V10.7604V10.7606V10.7607V10.7609V10.7611V10.7612V10.7614V10.7616V10.7617V10.7619V10.7621V10.7622V10.7624V10.7626V10.7627V10.7629V10.763V10.7632V10.7634V10.7635V10.7637V10.7638V10.764V10.7641V10.7643V10.7644V10.7646V10.7647V10.7649V10.765V10.7652V10.7653V10.7655V10.7656V10.7658V10.7659V10.7661V10.7662V10.7663V10.7665V10.7666V10.7668V10.7669V10.767V10.7672V10.7673V10.7675V10.7676V10.7677V10.7679V10.768V10.7681V10.7683V10.7684V10.7685V10.7686V10.7688V10.7689V10.769V10.7691V10.7693V10.7694V10.7695V10.7696V10.7698V10.7699V10.77V10.7701V10.7702V10.7703V10.7704V10.7706V10.7707V10.7708V10.7709V10.771V10.7711V10.7712V10.7713V10.7714V10.7715V10.7716V10.7717V10.7718V10.7719V10.772V10.7721V10.7722V10.7723V10.7724V10.7725V10.7726V10.7727V10.7728V10.7729V10.773V10.7731V10.7732V10.7732V10.7733V10.7734V10.7735V10.7736V10.7737V10.7737V10.7738V10.7739V10.774V10.774V10.7741V10.7742V10.7743V10.7743V10.7744V10.7745V10.7745V10.7746V10.7747V10.7747V10.7748V10.7749V10.7749V10.775V10.775V10.7751V10.7751V10.7752V10.7753V10.7753V10.7754V10.7754V10.7755V10.7755V10.7755V10.7756V10.7756V10.7757V10.7757V10.7758V10.7758V10.7758V10.7759V10.7759V10.7759V10.776V10.776V10.776V10.7761V10.7761V10.7761V10.7761V10.7762V10.7762V10.7762V10.7762V10.7762V10.7763V10.7763V10.7763V10.7763V10.7763V10.7763V10.7763V10.7763V10.7764C10.0579 11.2843 10.2597 11.7715 10.6189 12.1306C10.978 12.4898 11.4652 12.6916 11.9731 12.6916Z" fill="#666666" stroke="#F4F4F4" stroke-width="0.24"/>
                                            <path d="M12.2422 17.0106L12.2449 17.0105C12.9027 16.988 13.5562 16.8969 14.1949 16.7389L15.7116 18.2556C14.6137 18.6497 13.4599 18.8688 12.2924 18.9043H11.997C8.55386 18.9043 5.84015 17.3239 3.88497 15.5678C1.92908 13.811 0.747704 11.8915 0.376851 11.2499C0.293749 11.1059 0.25 10.9427 0.25 10.7765C0.25 10.6103 0.293749 10.447 0.376851 10.303L0.37693 10.3029C1.25202 8.78499 2.33504 7.39734 3.59422 6.18012L4.9814 7.5198C4.01468 8.45475 3.16458 9.50365 2.4499 10.6437L2.36684 10.7762L2.44963 10.9088C2.98569 11.7677 4.11019 13.3181 5.75755 14.6412C7.40599 15.9651 9.59216 17.0722 12.2422 17.0106ZM23.5692 10.3029L23.569 10.303L23.5745 10.3117C23.6634 10.4523 23.7137 10.6138 23.7204 10.78C23.7269 10.9445 23.6905 11.1078 23.6148 11.2538C22.7252 12.7748 21.6262 14.1627 20.3503 15.3768L18.9104 14.0322C19.8955 13.1013 20.7635 12.0533 21.4949 10.9113L21.5806 10.7774L21.4958 10.643C20.9543 9.78511 19.827 8.23192 18.1797 6.90737C16.5314 5.58201 14.3479 4.47459 11.7033 4.54239L11.7012 4.54246C11.0434 4.56497 10.3899 4.65602 9.75122 4.81405L8.23451 3.29735C9.33355 2.90285 10.4886 2.68365 11.6574 2.64855L11.6574 2.64855C15.1453 2.54338 17.9284 4.11667 19.9445 5.89679C21.9615 7.67766 23.1933 9.65098 23.5692 10.3029Z" fill="#666666" stroke="#F4F4F4" stroke-width="0.5"/>
                                        </svg>