<svg width="25" height="17" viewBox="0 0 25 17" fill="none" xmlns="http://www.w3.org/2000/svg">
                                            <path d="M24.7275 8.50009C24.7275 8.50009 20.0911 0 12.3638 0C4.63641 0 0 8.50009 0 8.50009C0 8.50009 4.63641 17.0002 12.3638 17.0002C20.0911 17.0002 24.7275 8.50009 24.7275 8.50009ZM1.81284 8.50009C2.55896 7.36353 3.41853 6.30564 4.37832 5.34269C6.36734 3.35058 9.08737 1.54547 12.3638 1.54547C15.6402 1.54547 18.3587 3.35058 20.3508 5.34269C21.3106 6.30564 22.1701 7.36353 22.9162 8.50009C22.8276 8.63403 22.7272 8.7824 22.6149 8.94519C22.0971 9.68701 21.3321 10.6761 20.3508 11.6575C18.3587 13.6496 15.6386 15.4547 12.3638 15.4547C9.08892 15.4547 6.36889 13.6496 4.37677 11.6575C3.41698 10.6945 2.55896 9.63665 1.81284 8.50009Z" fill="#111111" fill-opacity="0.5"/>
                                            <path d="M12.3637 4.63629C11.339 4.63629 10.3563 5.04336 9.63171 5.76794C8.90713 6.49252 8.50006 7.47526 8.50006 8.49997C8.50006 9.52468 8.90713 10.5074 9.63171 11.232C10.3563 11.9566 11.339 12.3636 12.3637 12.3636C13.3885 12.3636 14.3712 11.9566 15.0958 11.232C15.8204 10.5074 16.2274 9.52468 16.2274 8.49997C16.2274 7.47526 15.8204 6.49252 15.0958 5.76794C14.3712 5.04336 13.3885 4.63629 12.3637 4.63629ZM6.95459 8.49997C6.95459 7.06537 7.52448 5.68954 8.53889 4.67512C9.55331 3.66071 10.9291 3.09082 12.3637 3.09082C13.7983 3.09082 15.1742 3.66071 16.1886 4.67512C17.203 5.68954 17.7729 7.06537 17.7729 8.49997C17.7729 9.93457 17.203 11.3104 16.1886 12.3248C15.1742 13.3392 13.7983 13.9091 12.3637 13.9091C10.9291 13.9091 9.55331 13.3392 8.53889 12.3248C7.52448 11.3104 6.95459 9.93457 6.95459 8.49997Z" fill="#111111" fill-opacity="0.5"/>
                                        </svg>