<svg width="48" height="47" viewBox="0 0 48 47" fill="none" xmlns="http://www.w3.org/2000/svg">
<path d="M23.9989 3.91674C21.4519 3.82426 18.9125 4.24795 16.5334 5.16233C14.1543 6.07671 11.9848 7.46288 10.1554 9.23745C8.32592 11.012 6.87433 13.1383 5.88794 15.4884C4.90154 17.8385 4.40072 20.3639 4.41561 22.9126C4.38152 25.5588 4.9124 28.1819 5.9728 30.6066C7.03319 33.0313 8.59869 35.2019 10.5648 36.9734C10.7216 37.1117 10.8492 37.2799 10.94 37.4683C11.0308 37.6566 11.083 37.8612 11.0935 38.0701V41.5559C11.1043 41.8129 11.1773 42.0634 11.3064 42.2858C11.4355 42.5083 11.6167 42.696 11.8345 42.8328C12.0522 42.9697 12.3 43.0515 12.5564 43.0713C12.8129 43.091 13.0703 43.0482 13.3064 42.9463L17.2231 41.2426C17.5575 41.1163 17.9266 41.1163 18.261 41.2426C20.1125 41.7423 22.0224 41.9926 23.9402 41.9867C28.9886 41.9945 33.8333 39.9965 37.4086 36.4323C40.9838 32.868 42.9968 28.0295 43.0046 22.9811C43.0124 17.9327 41.0144 13.088 37.4501 9.51274C33.8859 5.93747 29.0473 3.92453 23.9989 3.91674ZM35.7489 18.5259L30.011 27.6517C29.7946 27.9953 29.5093 28.2903 29.1732 28.5181C28.837 28.7458 28.4573 28.9014 28.058 28.975C27.6586 29.0487 27.2484 29.0387 26.8531 28.9457C26.4578 28.8528 26.0861 28.6789 25.7614 28.4351L21.1789 25.008C20.9755 24.8555 20.7282 24.773 20.4739 24.773C20.2197 24.773 19.9723 24.8555 19.7689 25.008L13.5806 29.708C13.4083 29.8409 13.1944 29.9085 12.977 29.8986C12.7595 29.8888 12.5526 29.8022 12.393 29.6543C12.2333 29.5064 12.1312 29.3067 12.1049 29.0907C12.0785 28.8746 12.1295 28.6562 12.2489 28.4742L17.9869 19.3484C18.2033 19.0048 18.4885 18.7098 18.8247 18.4821C19.1609 18.2543 19.5406 18.0987 19.9399 18.0251C20.3392 17.9515 20.7495 17.9615 21.1448 18.0544C21.54 18.1474 21.9118 18.3212 22.2364 18.5651L26.8189 21.9922C27.0223 22.1447 27.2697 22.2272 27.5239 22.2272C27.7782 22.2272 28.0255 22.1447 28.2289 21.9922L34.4173 17.2922C34.5896 17.1592 34.8035 17.0917 35.0209 17.1015C35.2383 17.1114 35.4452 17.1979 35.6049 17.3458C35.7646 17.4937 35.8666 17.6934 35.893 17.9095C35.9194 18.1255 35.8683 18.3439 35.7489 18.5259Z" fill="#0084FF"/>
</svg>
