<svg width="24" height="24" viewBox="0 0 24 24" fill="none" xmlns="http://www.w3.org/2000/svg">
<g clip-path="url(#clip0_2887_10514)">
<path d="M23.7947 19.025H0.205333C0.40776 19.511 0.749512 19.9262 1.18752 20.2183C1.62553 20.5104 2.1402 20.6663 2.66667 20.6663H21.3333C21.8598 20.6663 22.3745 20.5104 22.8125 20.2183C23.2505 19.9262 23.5922 19.511 23.7947 19.025ZM0 15.8737H24V17.581H0V15.8737ZM7.66667 6.41901H24V8.12634H7.66667V6.41901ZM23.7947 4.97434C23.5922 4.48835 23.2505 4.07314 22.8125 3.78106C22.3745 3.48897 21.8598 3.33307 21.3333 3.33301H7.66667V4.97434H23.7947ZM7.66667 9.57034H24V11.2777H7.66667V9.57034ZM0 12.7217H24V14.429H0V12.7217Z" fill="#BF0A30"/>
<path d="M7.66667 8.12594H24V9.57061H7.66667V8.12594ZM0 11.2779V12.7219H24V11.2779H8H0ZM7.66667 4.97461V6.41928H24V5.99994C24 5.63661 23.926 5.29061 23.7947 4.97461H7.66667ZM0 14.4293H24V15.8739H0V14.4293ZM0 17.9999C0 18.3633 0.074 18.7093 0.205333 19.0253H23.794C23.9297 18.7004 23.9997 18.352 24 17.9999V17.5806H0V17.9999Z" fill="#EEEEEE"/>
<path d="M2.66667 3.33301C1.95942 3.33301 1.28115 3.61396 0.781049 4.11406C0.280952 4.61415 0 5.29243 0 5.99967L0 11.2777H8V3.33301H2.66667Z" fill="#002868"/>
<path d="M4.52848 6.82984L3.99915 5.20117L3.46981 6.82984H1.75781L3.14315 7.83651L2.61381 9.46517L3.99915 8.45851L5.38448 9.46517L4.85515 7.83651L6.24048 6.82984H4.52848Z" fill="white"/>
</g>
<defs>
<clipPath id="clip0_2887_10514">
<rect width="24" height="24" fill="white"/>
</clipPath>
</defs>
</svg>
