<svg width="18" height="18" viewBox="0 0 18 18" fill="none" xmlns="http://www.w3.org/2000/svg">
<path d="M2.8125 2.8125H15.1875V15.1875H2.8125V2.8125Z" fill="url(#paint0_linear_3238_9527)"/>
<path d="M13.6086 7.9847C14.251 7.9847 14.7718 7.4639 14.7718 6.82145C14.7718 6.17901 14.251 5.6582 13.6086 5.6582C12.9661 5.6582 12.4453 6.17901 12.4453 6.82145C12.4453 7.4639 12.9661 7.9847 13.6086 7.9847Z" fill="url(#paint1_radial_3238_9527)"/>
<path d="M13.6086 7.9847C14.251 7.9847 14.7718 7.4639 14.7718 6.82145C14.7718 6.17901 14.251 5.6582 13.6086 5.6582C12.9661 5.6582 12.4453 6.17901 12.4453 6.82145C12.4453 7.4639 12.9661 7.9847 13.6086 7.9847Z" fill="url(#paint2_radial_3238_9527)"/>
<path d="M13.0859 7.30506C13.6839 5.92863 14.7256 5.24631 15.1858 5.14844V8.27256H13.8841L13.0859 7.30506Z" fill="url(#paint3_radial_3238_9527)"/>
<path d="M13.0859 7.30506C13.6839 5.92863 14.7256 5.24631 15.1858 5.14844V8.27256H13.8841L13.0859 7.30506Z" fill="url(#paint4_radial_3238_9527)"/>
<path d="M12.5513 10.1119C13.5591 10.1119 14.3761 9.29493 14.3761 8.28715C14.3761 7.27937 13.5591 6.4624 12.5513 6.4624C11.5435 6.4624 10.7266 7.27937 10.7266 8.28715C10.7266 9.29493 11.5435 10.1119 12.5513 10.1119Z" fill="url(#paint5_radial_3238_9527)"/>
<path d="M2.8125 2.8125L1.125 1.125V16.875L2.8125 15.1875V2.8125Z" fill="url(#paint6_linear_3238_9527)"/>
<path d="M2.8125 2.8125L1.125 1.125V16.875L2.8125 15.1875V2.8125Z" fill="url(#paint7_linear_3238_9527)"/>
<path d="M2.8125 15.1875L1.125 16.875H16.875L15.1875 15.1875H2.8125Z" fill="url(#paint8_linear_3238_9527)"/>
<path d="M2.8125 15.1875L1.125 16.875H16.875L15.1875 15.1875H2.8125Z" fill="url(#paint9_linear_3238_9527)"/>
<path d="M2.8125 15.1875L1.125 16.875H16.875L15.1875 15.1875H2.8125Z" fill="url(#paint10_linear_3238_9527)"/>
<path d="M15.1875 15.1875L16.875 16.875V1.125L15.1875 2.8125V15.1875Z" fill="url(#paint11_linear_3238_9527)"/>
<path d="M15.1875 15.1875L16.875 16.875V1.125L15.1875 2.8125V15.1875Z" fill="url(#paint12_linear_3238_9527)"/>
<path d="M15.1875 2.8125H2.8125L1.125 1.125H16.875L15.1875 2.8125Z" fill="url(#paint13_linear_3238_9527)"/>
<path d="M15.1875 2.8125H2.8125L1.125 1.125H16.875L15.1875 2.8125Z" fill="url(#paint14_linear_3238_9527)"/>
<path d="M15.1875 2.8125H2.8125L1.125 1.125H16.875L15.1875 2.8125Z" fill="url(#paint15_linear_3238_9527)"/>
<g filter="url(#filter0_i_3238_9527)">
<path d="M4.22438 10.0168L2.8125 10.8268V15.1873H15.1875V6.88477C14.3438 6.88477 13.7812 7.16095 12.9375 7.9912L10.4062 10.4825C9.84375 11.036 9.32175 11.2498 8.75925 10.973C8.57194 10.8808 7.89469 10.451 7.04756 9.9712C6.17456 9.47677 4.85269 9.62527 4.22438 10.0168Z" fill="url(#paint16_radial_3238_9527)"/>
<path d="M4.22438 10.0168L2.8125 10.8268V15.1873H15.1875V6.88477C14.3438 6.88477 13.7812 7.16095 12.9375 7.9912L10.4062 10.4825C9.84375 11.036 9.32175 11.2498 8.75925 10.973C8.57194 10.8808 7.89469 10.451 7.04756 9.9712C6.17456 9.47677 4.85269 9.62527 4.22438 10.0168Z" fill="url(#paint17_radial_3238_9527)"/>
<path d="M4.22438 10.0168L2.8125 10.8268V15.1873H15.1875V6.88477C14.3438 6.88477 13.7812 7.16095 12.9375 7.9912L10.4062 10.4825C9.84375 11.036 9.32175 11.2498 8.75925 10.973C8.57194 10.8808 7.89469 10.451 7.04756 9.9712C6.17456 9.47677 4.85269 9.62527 4.22438 10.0168Z" fill="url(#paint18_radial_3238_9527)"/>
<path d="M4.22438 10.0168L2.8125 10.8268V15.1873H15.1875V6.88477C14.3438 6.88477 13.7812 7.16095 12.9375 7.9912L10.4062 10.4825C9.84375 11.036 9.32175 11.2498 8.75925 10.973C8.57194 10.8808 7.89469 10.451 7.04756 9.9712C6.17456 9.47677 4.85269 9.62527 4.22438 10.0168Z" fill="url(#paint19_radial_3238_9527)"/>
<path d="M4.22438 10.0168L2.8125 10.8268V15.1873H15.1875V6.88477C14.3438 6.88477 13.7812 7.16095 12.9375 7.9912L10.4062 10.4825C9.84375 11.036 9.32175 11.2498 8.75925 10.973C8.57194 10.8808 7.89469 10.451 7.04756 9.9712C6.17456 9.47677 4.85269 9.62527 4.22438 10.0168Z" fill="url(#paint20_radial_3238_9527)"/>
</g>
<path d="M15.1875 15.0818V15.1875H2.8125V15.0812C4.25475 13.6305 6.49013 12.6562 9 12.6562C11.5099 12.6562 13.7452 13.6311 15.1875 15.0818Z" fill="url(#paint21_radial_3238_9527)"/>
<path d="M15.1875 15.0818V15.1875H2.8125V15.0812C4.25475 13.6305 6.49013 12.6562 9 12.6562C11.5099 12.6562 13.7452 13.6311 15.1875 15.0818Z" fill="url(#paint22_radial_3238_9527)"/>
<path d="M15.1875 15.0818V15.1875H2.8125V15.0812C4.25475 13.6305 6.49013 12.6562 9 12.6562C11.5099 12.6562 13.7452 13.6311 15.1875 15.0818Z" fill="url(#paint23_radial_3238_9527)"/>
<path d="M9.14072 3.90019C9.31565 3.70276 9.55415 3.73426 9.70659 3.90019L9.79997 4.00763C9.83203 4.04251 9.87872 4.06107 9.92597 4.05713L10.0913 4.00763C10.3163 3.95926 10.5217 4.12744 10.5217 4.38901V4.48744C10.5262 4.54088 10.5734 4.57744 10.6218 4.60107L10.7714 4.66294C10.9874 4.76926 11.0414 5.01957 10.8839 5.22994L10.8389 5.28844C10.7995 5.34301 10.8074 5.41388 10.8473 5.46844L10.8923 5.53088C11.0549 5.73169 10.9632 6.00619 10.7332 6.10238L10.6043 6.15638C10.556 6.17663 10.5368 6.21094 10.5278 6.26326L10.5188 6.43088C10.5134 6.47784 10.4987 6.52324 10.4756 6.56446C10.4524 6.60567 10.4213 6.64186 10.384 6.67092C10.3467 6.69998 10.3041 6.72132 10.2584 6.73371C10.2128 6.7461 10.1652 6.74928 10.1183 6.74307L9.92203 6.69076C9.89611 6.6867 9.86957 6.68998 9.84542 6.70022C9.82126 6.71045 9.80045 6.72725 9.78534 6.74869L9.71447 6.84544C9.53953 7.04288 9.30272 7.01026 9.18347 6.89438L9.05297 6.73688C9.01922 6.70313 8.9759 6.67501 8.92415 6.69469L8.72728 6.74869C8.56415 6.77119 8.3729 6.64632 8.34197 6.48488L8.31947 6.25144C8.31503 6.22736 8.30484 6.2047 8.28975 6.1854C8.27467 6.16611 8.25514 6.15075 8.23284 6.14063L8.09447 6.09282C8.04637 6.07191 8.00341 6.04074 7.96862 6.0015C7.93382 5.96226 7.90802 5.91589 7.89302 5.86563C7.87802 5.81538 7.87418 5.76245 7.88177 5.71055C7.88936 5.65866 7.9082 5.60905 7.93697 5.56519L8.01459 5.45776C8.03022 5.43264 8.03818 5.4035 8.03748 5.37392C8.03678 5.34434 8.02746 5.31561 8.01065 5.29125L7.95215 5.20913C7.7879 4.97457 7.90153 4.71301 8.14565 4.63426L8.19909 4.61738C8.25872 4.59769 8.31609 4.54819 8.32115 4.48632L8.33297 4.33557C8.35265 4.09032 8.57597 3.94969 8.81109 4.02113L8.88703 4.04419C8.91595 4.05701 8.94826 4.0601 8.97909 4.053C9.00992 4.0459 9.03762 4.02899 9.05803 4.00482L9.14072 3.90019Z" fill="url(#paint24_linear_3238_9527)"/>
<path d="M9.14072 3.90019C9.31565 3.70276 9.55415 3.73426 9.70659 3.90019L9.79997 4.00763C9.83203 4.04251 9.87872 4.06107 9.92597 4.05713L10.0913 4.00763C10.3163 3.95926 10.5217 4.12744 10.5217 4.38901V4.48744C10.5262 4.54088 10.5734 4.57744 10.6218 4.60107L10.7714 4.66294C10.9874 4.76926 11.0414 5.01957 10.8839 5.22994L10.8389 5.28844C10.7995 5.34301 10.8074 5.41388 10.8473 5.46844L10.8923 5.53088C11.0549 5.73169 10.9632 6.00619 10.7332 6.10238L10.6043 6.15638C10.556 6.17663 10.5368 6.21094 10.5278 6.26326L10.5188 6.43088C10.5134 6.47784 10.4987 6.52324 10.4756 6.56446C10.4524 6.60567 10.4213 6.64186 10.384 6.67092C10.3467 6.69998 10.3041 6.72132 10.2584 6.73371C10.2128 6.7461 10.1652 6.74928 10.1183 6.74307L9.92203 6.69076C9.89611 6.6867 9.86957 6.68998 9.84542 6.70022C9.82126 6.71045 9.80045 6.72725 9.78534 6.74869L9.71447 6.84544C9.53953 7.04288 9.30272 7.01026 9.18347 6.89438L9.05297 6.73688C9.01922 6.70313 8.9759 6.67501 8.92415 6.69469L8.72728 6.74869C8.56415 6.77119 8.3729 6.64632 8.34197 6.48488L8.31947 6.25144C8.31503 6.22736 8.30484 6.2047 8.28975 6.1854C8.27467 6.16611 8.25514 6.15075 8.23284 6.14063L8.09447 6.09282C8.04637 6.07191 8.00341 6.04074 7.96862 6.0015C7.93382 5.96226 7.90802 5.91589 7.89302 5.86563C7.87802 5.81538 7.87418 5.76245 7.88177 5.71055C7.88936 5.65866 7.9082 5.60905 7.93697 5.56519L8.01459 5.45776C8.03022 5.43264 8.03818 5.4035 8.03748 5.37392C8.03678 5.34434 8.02746 5.31561 8.01065 5.29125L7.95215 5.20913C7.7879 4.97457 7.90153 4.71301 8.14565 4.63426L8.19909 4.61738C8.25872 4.59769 8.31609 4.54819 8.32115 4.48632L8.33297 4.33557C8.35265 4.09032 8.57597 3.94969 8.81109 4.02113L8.88703 4.04419C8.91595 4.05701 8.94826 4.0601 8.97909 4.053C9.00992 4.0459 9.03762 4.02899 9.05803 4.00482L9.14072 3.90019Z" fill="url(#paint25_radial_3238_9527)"/>
<path d="M9.14072 3.90019C9.31565 3.70276 9.55415 3.73426 9.70659 3.90019L9.79997 4.00763C9.83203 4.04251 9.87872 4.06107 9.92597 4.05713L10.0913 4.00763C10.3163 3.95926 10.5217 4.12744 10.5217 4.38901V4.48744C10.5262 4.54088 10.5734 4.57744 10.6218 4.60107L10.7714 4.66294C10.9874 4.76926 11.0414 5.01957 10.8839 5.22994L10.8389 5.28844C10.7995 5.34301 10.8074 5.41388 10.8473 5.46844L10.8923 5.53088C11.0549 5.73169 10.9632 6.00619 10.7332 6.10238L10.6043 6.15638C10.556 6.17663 10.5368 6.21094 10.5278 6.26326L10.5188 6.43088C10.5134 6.47784 10.4987 6.52324 10.4756 6.56446C10.4524 6.60567 10.4213 6.64186 10.384 6.67092C10.3467 6.69998 10.3041 6.72132 10.2584 6.73371C10.2128 6.7461 10.1652 6.74928 10.1183 6.74307L9.92203 6.69076C9.89611 6.6867 9.86957 6.68998 9.84542 6.70022C9.82126 6.71045 9.80045 6.72725 9.78534 6.74869L9.71447 6.84544C9.53953 7.04288 9.30272 7.01026 9.18347 6.89438L9.05297 6.73688C9.01922 6.70313 8.9759 6.67501 8.92415 6.69469L8.72728 6.74869C8.56415 6.77119 8.3729 6.64632 8.34197 6.48488L8.31947 6.25144C8.31503 6.22736 8.30484 6.2047 8.28975 6.1854C8.27467 6.16611 8.25514 6.15075 8.23284 6.14063L8.09447 6.09282C8.04637 6.07191 8.00341 6.04074 7.96862 6.0015C7.93382 5.96226 7.90802 5.91589 7.89302 5.86563C7.87802 5.81538 7.87418 5.76245 7.88177 5.71055C7.88936 5.65866 7.9082 5.60905 7.93697 5.56519L8.01459 5.45776C8.03022 5.43264 8.03818 5.4035 8.03748 5.37392C8.03678 5.34434 8.02746 5.31561 8.01065 5.29125L7.95215 5.20913C7.7879 4.97457 7.90153 4.71301 8.14565 4.63426L8.19909 4.61738C8.25872 4.59769 8.31609 4.54819 8.32115 4.48632L8.33297 4.33557C8.35265 4.09032 8.57597 3.94969 8.81109 4.02113L8.88703 4.04419C8.91595 4.05701 8.94826 4.0601 8.97909 4.053C9.00992 4.0459 9.03762 4.02899 9.05803 4.00482L9.14072 3.90019Z" fill="url(#paint26_radial_3238_9527)"/>
<path d="M9.14072 3.90019C9.31565 3.70276 9.55415 3.73426 9.70659 3.90019L9.79997 4.00763C9.83203 4.04251 9.87872 4.06107 9.92597 4.05713L10.0913 4.00763C10.3163 3.95926 10.5217 4.12744 10.5217 4.38901V4.48744C10.5262 4.54088 10.5734 4.57744 10.6218 4.60107L10.7714 4.66294C10.9874 4.76926 11.0414 5.01957 10.8839 5.22994L10.8389 5.28844C10.7995 5.34301 10.8074 5.41388 10.8473 5.46844L10.8923 5.53088C11.0549 5.73169 10.9632 6.00619 10.7332 6.10238L10.6043 6.15638C10.556 6.17663 10.5368 6.21094 10.5278 6.26326L10.5188 6.43088C10.5134 6.47784 10.4987 6.52324 10.4756 6.56446C10.4524 6.60567 10.4213 6.64186 10.384 6.67092C10.3467 6.69998 10.3041 6.72132 10.2584 6.73371C10.2128 6.7461 10.1652 6.74928 10.1183 6.74307L9.92203 6.69076C9.89611 6.6867 9.86957 6.68998 9.84542 6.70022C9.82126 6.71045 9.80045 6.72725 9.78534 6.74869L9.71447 6.84544C9.53953 7.04288 9.30272 7.01026 9.18347 6.89438L9.05297 6.73688C9.01922 6.70313 8.9759 6.67501 8.92415 6.69469L8.72728 6.74869C8.56415 6.77119 8.3729 6.64632 8.34197 6.48488L8.31947 6.25144C8.31503 6.22736 8.30484 6.2047 8.28975 6.1854C8.27467 6.16611 8.25514 6.15075 8.23284 6.14063L8.09447 6.09282C8.04637 6.07191 8.00341 6.04074 7.96862 6.0015C7.93382 5.96226 7.90802 5.91589 7.89302 5.86563C7.87802 5.81538 7.87418 5.76245 7.88177 5.71055C7.88936 5.65866 7.9082 5.60905 7.93697 5.56519L8.01459 5.45776C8.03022 5.43264 8.03818 5.4035 8.03748 5.37392C8.03678 5.34434 8.02746 5.31561 8.01065 5.29125L7.95215 5.20913C7.7879 4.97457 7.90153 4.71301 8.14565 4.63426L8.19909 4.61738C8.25872 4.59769 8.31609 4.54819 8.32115 4.48632L8.33297 4.33557C8.35265 4.09032 8.57597 3.94969 8.81109 4.02113L8.88703 4.04419C8.91595 4.05701 8.94826 4.0601 8.97909 4.053C9.00992 4.0459 9.03762 4.02899 9.05803 4.00482L9.14072 3.90019Z" fill="url(#paint27_radial_3238_9527)"/>
<path d="M9.14072 3.90019C9.31565 3.70276 9.55415 3.73426 9.70659 3.90019L9.79997 4.00763C9.83203 4.04251 9.87872 4.06107 9.92597 4.05713L10.0913 4.00763C10.3163 3.95926 10.5217 4.12744 10.5217 4.38901V4.48744C10.5262 4.54088 10.5734 4.57744 10.6218 4.60107L10.7714 4.66294C10.9874 4.76926 11.0414 5.01957 10.8839 5.22994L10.8389 5.28844C10.7995 5.34301 10.8074 5.41388 10.8473 5.46844L10.8923 5.53088C11.0549 5.73169 10.9632 6.00619 10.7332 6.10238L10.6043 6.15638C10.556 6.17663 10.5368 6.21094 10.5278 6.26326L10.5188 6.43088C10.5134 6.47784 10.4987 6.52324 10.4756 6.56446C10.4524 6.60567 10.4213 6.64186 10.384 6.67092C10.3467 6.69998 10.3041 6.72132 10.2584 6.73371C10.2128 6.7461 10.1652 6.74928 10.1183 6.74307L9.92203 6.69076C9.89611 6.6867 9.86957 6.68998 9.84542 6.70022C9.82126 6.71045 9.80045 6.72725 9.78534 6.74869L9.71447 6.84544C9.53953 7.04288 9.30272 7.01026 9.18347 6.89438L9.05297 6.73688C9.01922 6.70313 8.9759 6.67501 8.92415 6.69469L8.72728 6.74869C8.56415 6.77119 8.3729 6.64632 8.34197 6.48488L8.31947 6.25144C8.31503 6.22736 8.30484 6.2047 8.28975 6.1854C8.27467 6.16611 8.25514 6.15075 8.23284 6.14063L8.09447 6.09282C8.04637 6.07191 8.00341 6.04074 7.96862 6.0015C7.93382 5.96226 7.90802 5.91589 7.89302 5.86563C7.87802 5.81538 7.87418 5.76245 7.88177 5.71055C7.88936 5.65866 7.9082 5.60905 7.93697 5.56519L8.01459 5.45776C8.03022 5.43264 8.03818 5.4035 8.03748 5.37392C8.03678 5.34434 8.02746 5.31561 8.01065 5.29125L7.95215 5.20913C7.7879 4.97457 7.90153 4.71301 8.14565 4.63426L8.19909 4.61738C8.25872 4.59769 8.31609 4.54819 8.32115 4.48632L8.33297 4.33557C8.35265 4.09032 8.57597 3.94969 8.81109 4.02113L8.88703 4.04419C8.91595 4.05701 8.94826 4.0601 8.97909 4.053C9.00992 4.0459 9.03762 4.02899 9.05803 4.00482L9.14072 3.90019Z" fill="url(#paint28_radial_3238_9527)"/>
<path d="M9.14072 3.90019C9.31565 3.70276 9.55415 3.73426 9.70659 3.90019L9.79997 4.00763C9.83203 4.04251 9.87872 4.06107 9.92597 4.05713L10.0913 4.00763C10.3163 3.95926 10.5217 4.12744 10.5217 4.38901V4.48744C10.5262 4.54088 10.5734 4.57744 10.6218 4.60107L10.7714 4.66294C10.9874 4.76926 11.0414 5.01957 10.8839 5.22994L10.8389 5.28844C10.7995 5.34301 10.8074 5.41388 10.8473 5.46844L10.8923 5.53088C11.0549 5.73169 10.9632 6.00619 10.7332 6.10238L10.6043 6.15638C10.556 6.17663 10.5368 6.21094 10.5278 6.26326L10.5188 6.43088C10.5134 6.47784 10.4987 6.52324 10.4756 6.56446C10.4524 6.60567 10.4213 6.64186 10.384 6.67092C10.3467 6.69998 10.3041 6.72132 10.2584 6.73371C10.2128 6.7461 10.1652 6.74928 10.1183 6.74307L9.92203 6.69076C9.89611 6.6867 9.86957 6.68998 9.84542 6.70022C9.82126 6.71045 9.80045 6.72725 9.78534 6.74869L9.71447 6.84544C9.53953 7.04288 9.30272 7.01026 9.18347 6.89438L9.05297 6.73688C9.01922 6.70313 8.9759 6.67501 8.92415 6.69469L8.72728 6.74869C8.56415 6.77119 8.3729 6.64632 8.34197 6.48488L8.31947 6.25144C8.31503 6.22736 8.30484 6.2047 8.28975 6.1854C8.27467 6.16611 8.25514 6.15075 8.23284 6.14063L8.09447 6.09282C8.04637 6.07191 8.00341 6.04074 7.96862 6.0015C7.93382 5.96226 7.90802 5.91589 7.89302 5.86563C7.87802 5.81538 7.87418 5.76245 7.88177 5.71055C7.88936 5.65866 7.9082 5.60905 7.93697 5.56519L8.01459 5.45776C8.03022 5.43264 8.03818 5.4035 8.03748 5.37392C8.03678 5.34434 8.02746 5.31561 8.01065 5.29125L7.95215 5.20913C7.7879 4.97457 7.90153 4.71301 8.14565 4.63426L8.19909 4.61738C8.25872 4.59769 8.31609 4.54819 8.32115 4.48632L8.33297 4.33557C8.35265 4.09032 8.57597 3.94969 8.81109 4.02113L8.88703 4.04419C8.91595 4.05701 8.94826 4.0601 8.97909 4.053C9.00992 4.0459 9.03762 4.02899 9.05803 4.00482L9.14072 3.90019Z" fill="url(#paint29_radial_3238_9527)"/>
<path d="M9.14072 3.90019C9.31565 3.70276 9.55415 3.73426 9.70659 3.90019L9.79997 4.00763C9.83203 4.04251 9.87872 4.06107 9.92597 4.05713L10.0913 4.00763C10.3163 3.95926 10.5217 4.12744 10.5217 4.38901V4.48744C10.5262 4.54088 10.5734 4.57744 10.6218 4.60107L10.7714 4.66294C10.9874 4.76926 11.0414 5.01957 10.8839 5.22994L10.8389 5.28844C10.7995 5.34301 10.8074 5.41388 10.8473 5.46844L10.8923 5.53088C11.0549 5.73169 10.9632 6.00619 10.7332 6.10238L10.6043 6.15638C10.556 6.17663 10.5368 6.21094 10.5278 6.26326L10.5188 6.43088C10.5134 6.47784 10.4987 6.52324 10.4756 6.56446C10.4524 6.60567 10.4213 6.64186 10.384 6.67092C10.3467 6.69998 10.3041 6.72132 10.2584 6.73371C10.2128 6.7461 10.1652 6.74928 10.1183 6.74307L9.92203 6.69076C9.89611 6.6867 9.86957 6.68998 9.84542 6.70022C9.82126 6.71045 9.80045 6.72725 9.78534 6.74869L9.71447 6.84544C9.53953 7.04288 9.30272 7.01026 9.18347 6.89438L9.05297 6.73688C9.01922 6.70313 8.9759 6.67501 8.92415 6.69469L8.72728 6.74869C8.56415 6.77119 8.3729 6.64632 8.34197 6.48488L8.31947 6.25144C8.31503 6.22736 8.30484 6.2047 8.28975 6.1854C8.27467 6.16611 8.25514 6.15075 8.23284 6.14063L8.09447 6.09282C8.04637 6.07191 8.00341 6.04074 7.96862 6.0015C7.93382 5.96226 7.90802 5.91589 7.89302 5.86563C7.87802 5.81538 7.87418 5.76245 7.88177 5.71055C7.88936 5.65866 7.9082 5.60905 7.93697 5.56519L8.01459 5.45776C8.03022 5.43264 8.03818 5.4035 8.03748 5.37392C8.03678 5.34434 8.02746 5.31561 8.01065 5.29125L7.95215 5.20913C7.7879 4.97457 7.90153 4.71301 8.14565 4.63426L8.19909 4.61738C8.25872 4.59769 8.31609 4.54819 8.32115 4.48632L8.33297 4.33557C8.35265 4.09032 8.57597 3.94969 8.81109 4.02113L8.88703 4.04419C8.91595 4.05701 8.94826 4.0601 8.97909 4.053C9.00992 4.0459 9.03762 4.02899 9.05803 4.00482L9.14072 3.90019Z" fill="url(#paint30_radial_3238_9527)"/>
<path d="M9.14072 3.90019C9.31565 3.70276 9.55415 3.73426 9.70659 3.90019L9.79997 4.00763C9.83203 4.04251 9.87872 4.06107 9.92597 4.05713L10.0913 4.00763C10.3163 3.95926 10.5217 4.12744 10.5217 4.38901V4.48744C10.5262 4.54088 10.5734 4.57744 10.6218 4.60107L10.7714 4.66294C10.9874 4.76926 11.0414 5.01957 10.8839 5.22994L10.8389 5.28844C10.7995 5.34301 10.8074 5.41388 10.8473 5.46844L10.8923 5.53088C11.0549 5.73169 10.9632 6.00619 10.7332 6.10238L10.6043 6.15638C10.556 6.17663 10.5368 6.21094 10.5278 6.26326L10.5188 6.43088C10.5134 6.47784 10.4987 6.52324 10.4756 6.56446C10.4524 6.60567 10.4213 6.64186 10.384 6.67092C10.3467 6.69998 10.3041 6.72132 10.2584 6.73371C10.2128 6.7461 10.1652 6.74928 10.1183 6.74307L9.92203 6.69076C9.89611 6.6867 9.86957 6.68998 9.84542 6.70022C9.82126 6.71045 9.80045 6.72725 9.78534 6.74869L9.71447 6.84544C9.53953 7.04288 9.30272 7.01026 9.18347 6.89438L9.05297 6.73688C9.01922 6.70313 8.9759 6.67501 8.92415 6.69469L8.72728 6.74869C8.56415 6.77119 8.3729 6.64632 8.34197 6.48488L8.31947 6.25144C8.31503 6.22736 8.30484 6.2047 8.28975 6.1854C8.27467 6.16611 8.25514 6.15075 8.23284 6.14063L8.09447 6.09282C8.04637 6.07191 8.00341 6.04074 7.96862 6.0015C7.93382 5.96226 7.90802 5.91589 7.89302 5.86563C7.87802 5.81538 7.87418 5.76245 7.88177 5.71055C7.88936 5.65866 7.9082 5.60905 7.93697 5.56519L8.01459 5.45776C8.03022 5.43264 8.03818 5.4035 8.03748 5.37392C8.03678 5.34434 8.02746 5.31561 8.01065 5.29125L7.95215 5.20913C7.7879 4.97457 7.90153 4.71301 8.14565 4.63426L8.19909 4.61738C8.25872 4.59769 8.31609 4.54819 8.32115 4.48632L8.33297 4.33557C8.35265 4.09032 8.57597 3.94969 8.81109 4.02113L8.88703 4.04419C8.91595 4.05701 8.94826 4.0601 8.97909 4.053C9.00992 4.0459 9.03762 4.02899 9.05803 4.00482L9.14072 3.90019Z" fill="url(#paint31_radial_3238_9527)"/>
<path d="M9.14072 3.90019C9.31565 3.70276 9.55415 3.73426 9.70659 3.90019L9.79997 4.00763C9.83203 4.04251 9.87872 4.06107 9.92597 4.05713L10.0913 4.00763C10.3163 3.95926 10.5217 4.12744 10.5217 4.38901V4.48744C10.5262 4.54088 10.5734 4.57744 10.6218 4.60107L10.7714 4.66294C10.9874 4.76926 11.0414 5.01957 10.8839 5.22994L10.8389 5.28844C10.7995 5.34301 10.8074 5.41388 10.8473 5.46844L10.8923 5.53088C11.0549 5.73169 10.9632 6.00619 10.7332 6.10238L10.6043 6.15638C10.556 6.17663 10.5368 6.21094 10.5278 6.26326L10.5188 6.43088C10.5134 6.47784 10.4987 6.52324 10.4756 6.56446C10.4524 6.60567 10.4213 6.64186 10.384 6.67092C10.3467 6.69998 10.3041 6.72132 10.2584 6.73371C10.2128 6.7461 10.1652 6.74928 10.1183 6.74307L9.92203 6.69076C9.89611 6.6867 9.86957 6.68998 9.84542 6.70022C9.82126 6.71045 9.80045 6.72725 9.78534 6.74869L9.71447 6.84544C9.53953 7.04288 9.30272 7.01026 9.18347 6.89438L9.05297 6.73688C9.01922 6.70313 8.9759 6.67501 8.92415 6.69469L8.72728 6.74869C8.56415 6.77119 8.3729 6.64632 8.34197 6.48488L8.31947 6.25144C8.31503 6.22736 8.30484 6.2047 8.28975 6.1854C8.27467 6.16611 8.25514 6.15075 8.23284 6.14063L8.09447 6.09282C8.04637 6.07191 8.00341 6.04074 7.96862 6.0015C7.93382 5.96226 7.90802 5.91589 7.89302 5.86563C7.87802 5.81538 7.87418 5.76245 7.88177 5.71055C7.88936 5.65866 7.9082 5.60905 7.93697 5.56519L8.01459 5.45776C8.03022 5.43264 8.03818 5.4035 8.03748 5.37392C8.03678 5.34434 8.02746 5.31561 8.01065 5.29125L7.95215 5.20913C7.7879 4.97457 7.90153 4.71301 8.14565 4.63426L8.19909 4.61738C8.25872 4.59769 8.31609 4.54819 8.32115 4.48632L8.33297 4.33557C8.35265 4.09032 8.57597 3.94969 8.81109 4.02113L8.88703 4.04419C8.91595 4.05701 8.94826 4.0601 8.97909 4.053C9.00992 4.0459 9.03762 4.02899 9.05803 4.00482L9.14072 3.90019Z" fill="url(#paint32_radial_3238_9527)"/>
<path d="M9.14072 3.90019C9.31565 3.70276 9.55415 3.73426 9.70659 3.90019L9.79997 4.00763C9.83203 4.04251 9.87872 4.06107 9.92597 4.05713L10.0913 4.00763C10.3163 3.95926 10.5217 4.12744 10.5217 4.38901V4.48744C10.5262 4.54088 10.5734 4.57744 10.6218 4.60107L10.7714 4.66294C10.9874 4.76926 11.0414 5.01957 10.8839 5.22994L10.8389 5.28844C10.7995 5.34301 10.8074 5.41388 10.8473 5.46844L10.8923 5.53088C11.0549 5.73169 10.9632 6.00619 10.7332 6.10238L10.6043 6.15638C10.556 6.17663 10.5368 6.21094 10.5278 6.26326L10.5188 6.43088C10.5134 6.47784 10.4987 6.52324 10.4756 6.56446C10.4524 6.60567 10.4213 6.64186 10.384 6.67092C10.3467 6.69998 10.3041 6.72132 10.2584 6.73371C10.2128 6.7461 10.1652 6.74928 10.1183 6.74307L9.92203 6.69076C9.89611 6.6867 9.86957 6.68998 9.84542 6.70022C9.82126 6.71045 9.80045 6.72725 9.78534 6.74869L9.71447 6.84544C9.53953 7.04288 9.30272 7.01026 9.18347 6.89438L9.05297 6.73688C9.01922 6.70313 8.9759 6.67501 8.92415 6.69469L8.72728 6.74869C8.56415 6.77119 8.3729 6.64632 8.34197 6.48488L8.31947 6.25144C8.31503 6.22736 8.30484 6.2047 8.28975 6.1854C8.27467 6.16611 8.25514 6.15075 8.23284 6.14063L8.09447 6.09282C8.04637 6.07191 8.00341 6.04074 7.96862 6.0015C7.93382 5.96226 7.90802 5.91589 7.89302 5.86563C7.87802 5.81538 7.87418 5.76245 7.88177 5.71055C7.88936 5.65866 7.9082 5.60905 7.93697 5.56519L8.01459 5.45776C8.03022 5.43264 8.03818 5.4035 8.03748 5.37392C8.03678 5.34434 8.02746 5.31561 8.01065 5.29125L7.95215 5.20913C7.7879 4.97457 7.90153 4.71301 8.14565 4.63426L8.19909 4.61738C8.25872 4.59769 8.31609 4.54819 8.32115 4.48632L8.33297 4.33557C8.35265 4.09032 8.57597 3.94969 8.81109 4.02113L8.88703 4.04419C8.91595 4.05701 8.94826 4.0601 8.97909 4.053C9.00992 4.0459 9.03762 4.02899 9.05803 4.00482L9.14072 3.90019Z" fill="url(#paint33_radial_3238_9527)"/>
<path d="M9.42263 6.60267C9.58636 6.60617 9.74914 6.57695 9.90142 6.51671C10.0537 6.45648 10.1924 6.36644 10.3095 6.25189C10.4265 6.13734 10.5195 6.00057 10.5829 5.84961C10.6464 5.69865 10.6791 5.53653 10.6791 5.37277C10.6791 5.209 10.6464 5.04689 10.5829 4.89592C10.5195 4.74496 10.4265 4.6082 10.3095 4.49364C10.1924 4.37909 10.0537 4.28905 9.90142 4.22882C9.74914 4.16858 9.58636 4.13936 9.42263 4.14286C9.101 4.14974 8.79485 4.28234 8.56981 4.51224C8.34477 4.74214 8.21875 5.05106 8.21875 5.37277C8.21875 5.69448 8.34477 6.00339 8.56981 6.23329C8.79485 6.46319 9.101 6.59579 9.42263 6.60267Z" fill="url(#paint34_radial_3238_9527)"/>
<path d="M4.21994 7.78704C4.6909 7.78704 5.07269 7.40525 5.07269 6.93429C5.07269 6.46333 4.6909 6.08154 4.21994 6.08154C3.74898 6.08154 3.36719 6.46333 3.36719 6.93429C3.36719 7.40525 3.74898 7.78704 4.21994 7.78704Z" fill="url(#paint35_radial_3238_9527)"/>
<path d="M2.8125 9V5.625C3.12351 5.67045 3.41622 5.79992 3.65907 5.99946C3.90192 6.19899 4.08571 6.46103 4.19062 6.75731C4.19389 6.76584 4.199 6.77354 4.20559 6.77986C4.21218 6.78618 4.22008 6.79096 4.22874 6.79387C4.2374 6.79677 4.24659 6.79772 4.25566 6.79665C4.26472 6.79559 4.27344 6.79252 4.28119 6.78769C4.43815 6.68542 4.61681 6.6212 4.80296 6.60013C4.9891 6.57907 5.1776 6.60174 5.35344 6.66635C5.52929 6.73095 5.68763 6.83571 5.81586 6.97228C5.94409 7.10885 6.03868 7.27346 6.09209 7.45302C6.14551 7.63258 6.15628 7.82213 6.12355 8.00658C6.09081 8.19104 6.01548 8.36531 5.90354 8.51552C5.7916 8.66574 5.64615 8.78775 5.47876 8.87186C5.31136 8.95597 5.12665 8.99984 4.93931 9H2.8125Z" fill="#DFDEFF"/>
<path d="M2.8125 9V5.625C3.12351 5.67045 3.41622 5.79992 3.65907 5.99946C3.90192 6.19899 4.08571 6.46103 4.19062 6.75731C4.19389 6.76584 4.199 6.77354 4.20559 6.77986C4.21218 6.78618 4.22008 6.79096 4.22874 6.79387C4.2374 6.79677 4.24659 6.79772 4.25566 6.79665C4.26472 6.79559 4.27344 6.79252 4.28119 6.78769C4.43815 6.68542 4.61681 6.6212 4.80296 6.60013C4.9891 6.57907 5.1776 6.60174 5.35344 6.66635C5.52929 6.73095 5.68763 6.83571 5.81586 6.97228C5.94409 7.10885 6.03868 7.27346 6.09209 7.45302C6.14551 7.63258 6.15628 7.82213 6.12355 8.00658C6.09081 8.19104 6.01548 8.36531 5.90354 8.51552C5.7916 8.66574 5.64615 8.78775 5.47876 8.87186C5.31136 8.95597 5.12665 8.99984 4.93931 9H2.8125Z" fill="url(#paint36_linear_3238_9527)"/>
<path d="M2.8125 9V5.625C3.12351 5.67045 3.41622 5.79992 3.65907 5.99946C3.90192 6.19899 4.08571 6.46103 4.19062 6.75731C4.19389 6.76584 4.199 6.77354 4.20559 6.77986C4.21218 6.78618 4.22008 6.79096 4.22874 6.79387C4.2374 6.79677 4.24659 6.79772 4.25566 6.79665C4.26472 6.79559 4.27344 6.79252 4.28119 6.78769C4.43815 6.68542 4.61681 6.6212 4.80296 6.60013C4.9891 6.57907 5.1776 6.60174 5.35344 6.66635C5.52929 6.73095 5.68763 6.83571 5.81586 6.97228C5.94409 7.10885 6.03868 7.27346 6.09209 7.45302C6.14551 7.63258 6.15628 7.82213 6.12355 8.00658C6.09081 8.19104 6.01548 8.36531 5.90354 8.51552C5.7916 8.66574 5.64615 8.78775 5.47876 8.87186C5.31136 8.95597 5.12665 8.99984 4.93931 9H2.8125Z" fill="url(#paint37_radial_3238_9527)"/>
<path d="M2.8125 9V5.625C3.12351 5.67045 3.41622 5.79992 3.65907 5.99946C3.90192 6.19899 4.08571 6.46103 4.19062 6.75731C4.19389 6.76584 4.199 6.77354 4.20559 6.77986C4.21218 6.78618 4.22008 6.79096 4.22874 6.79387C4.2374 6.79677 4.24659 6.79772 4.25566 6.79665C4.26472 6.79559 4.27344 6.79252 4.28119 6.78769C4.43815 6.68542 4.61681 6.6212 4.80296 6.60013C4.9891 6.57907 5.1776 6.60174 5.35344 6.66635C5.52929 6.73095 5.68763 6.83571 5.81586 6.97228C5.94409 7.10885 6.03868 7.27346 6.09209 7.45302C6.14551 7.63258 6.15628 7.82213 6.12355 8.00658C6.09081 8.19104 6.01548 8.36531 5.90354 8.51552C5.7916 8.66574 5.64615 8.78775 5.47876 8.87186C5.31136 8.95597 5.12665 8.99984 4.93931 9H2.8125Z" fill="url(#paint38_radial_3238_9527)"/>
<defs>
<filter id="filter0_i_3238_9527" x="2.8125" y="6.88477" width="12.375" height="8.37773" filterUnits="userSpaceOnUse" color-interpolation-filters="sRGB">
<feFlood flood-opacity="0" result="BackgroundImageFix"/>
<feBlend mode="normal" in="SourceGraphic" in2="BackgroundImageFix" result="shape"/>
<feColorMatrix in="SourceAlpha" type="matrix" values="0 0 0 0 0 0 0 0 0 0 0 0 0 0 0 0 0 0 127 0" result="hardAlpha"/>
<feOffset dy="0.075"/>
<feGaussianBlur stdDeviation="0.375"/>
<feComposite in2="hardAlpha" operator="arithmetic" k2="-1" k3="1"/>
<feColorMatrix type="matrix" values="0 0 0 0 0.352941 0 0 0 0 0.690196 0 0 0 0 0.501961 0 0 0 1 0"/>
<feBlend mode="normal" in2="shape" result="effect1_innerShadow_3238_9527"/>
</filter>
<linearGradient id="paint0_linear_3238_9527" x1="9" y1="2.8125" x2="9" y2="15.1875" gradientUnits="userSpaceOnUse">
<stop stop-color="#A6E5F7"/>
<stop offset="0.615" stop-color="#85D6F5"/>
</linearGradient>
<radialGradient id="paint1_radial_3238_9527" cx="0" cy="0" r="1" gradientUnits="userSpaceOnUse" gradientTransform="translate(12.5536 6.01174) rotate(18.433) scale(1.11184)">
<stop offset="0.21" stop-color="#D4D5FF"/>
<stop offset="0.755" stop-color="#DDDCFF"/>
</radialGradient>
<radialGradient id="paint2_radial_3238_9527" cx="0" cy="0" r="1" gradientUnits="userSpaceOnUse" gradientTransform="translate(13.3532 7.09314) rotate(-50.9342) scale(1.74327 0.811334)">
<stop offset="0.457" stop-color="#EFEFFF"/>
<stop offset="1" stop-color="#EFEFFF" stop-opacity="0"/>
</radialGradient>
<radialGradient id="paint3_radial_3238_9527" cx="0" cy="0" r="1" gradientUnits="userSpaceOnUse" gradientTransform="translate(15.1852 6.92599) rotate(-128.32) scale(1.38912 2.86599)">
<stop offset="0.581" stop-color="#DEDFFF"/>
<stop offset="1" stop-color="#D8D9FF"/>
</radialGradient>
<radialGradient id="paint4_radial_3238_9527" cx="0" cy="0" r="1" gradientUnits="userSpaceOnUse" gradientTransform="translate(13.3753 7.24217) rotate(-42.709) scale(0.932968 1.43813)">
<stop offset="0.564" stop-color="#EFEFFF"/>
<stop offset="0.728" stop-color="#EFEFFF" stop-opacity="0"/>
</radialGradient>
<radialGradient id="paint5_radial_3238_9527" cx="0" cy="0" r="1" gradientUnits="userSpaceOnUse" gradientTransform="translate(13.9862 7.18731) rotate(152.354) scale(3.48257)">
<stop offset="0.401" stop-color="#EEEEFF"/>
<stop offset="1" stop-color="#D4D3FF"/>
</radialGradient>
<linearGradient id="paint6_linear_3238_9527" x1="1.96875" y1="1.125" x2="1.96875" y2="16.875" gradientUnits="userSpaceOnUse">
<stop stop-color="#D38E57"/>
<stop offset="0.272" stop-color="#EFA570"/>
<stop offset="0.798" stop-color="#EFA570"/>
<stop offset="1" stop-color="#D38E57"/>
</linearGradient>
<linearGradient id="paint7_linear_3238_9527" x1="2.30119" y1="15.8091" x2="2.17519" y2="15.6729" gradientUnits="userSpaceOnUse">
<stop stop-color="#CB7734"/>
<stop offset="1" stop-color="#CB7734" stop-opacity="0"/>
</linearGradient>
<linearGradient id="paint8_linear_3238_9527" x1="5.94619" y1="16.3119" x2="17.7941" y2="16.3119" gradientUnits="userSpaceOnUse">
<stop stop-color="#E69F70"/>
<stop offset="1" stop-color="#D3895C"/>
</linearGradient>
<linearGradient id="paint9_linear_3238_9527" x1="9" y1="17.1917" x2="9" y2="16.4183" gradientUnits="userSpaceOnUse">
<stop stop-color="#D47F6E"/>
<stop offset="1" stop-color="#D47F6E" stop-opacity="0"/>
</linearGradient>
<linearGradient id="paint10_linear_3238_9527" x1="15.6758" y1="15.6116" x2="15.5475" y2="15.7404" gradientUnits="userSpaceOnUse">
<stop stop-color="#C67331"/>
<stop offset="1" stop-color="#C67331" stop-opacity="0"/>
</linearGradient>
<linearGradient id="paint11_linear_3238_9527" x1="16.0312" y1="1.125" x2="16.0312" y2="16.875" gradientUnits="userSpaceOnUse">
<stop stop-color="#CA7C50"/>
<stop offset="1" stop-color="#E0966B"/>
</linearGradient>
<linearGradient id="paint12_linear_3238_9527" x1="15.8378" y1="2.10938" x2="15.9148" y2="2.18869" gradientUnits="userSpaceOnUse">
<stop stop-color="#C2712E"/>
<stop offset="1" stop-color="#C2712E" stop-opacity="0"/>
</linearGradient>
<linearGradient id="paint13_linear_3238_9527" x1="15.3956" y1="2.45925" x2="2.02837" y2="2.45925" gradientUnits="userSpaceOnUse">
<stop stop-color="#D99569"/>
<stop offset="1" stop-color="#D28459"/>
</linearGradient>
<linearGradient id="paint14_linear_3238_9527" x1="9" y1="2.8125" x2="9" y2="2.628" gradientUnits="userSpaceOnUse">
<stop stop-color="#CC8159"/>
<stop offset="1" stop-color="#CC8159" stop-opacity="0"/>
</linearGradient>
<linearGradient id="paint15_linear_3238_9527" x1="2.19994" y1="2.32594" x2="2.5065" y2="2.043" gradientUnits="userSpaceOnUse">
<stop stop-color="#C77731"/>
<stop offset="1" stop-color="#C77731" stop-opacity="0"/>
</linearGradient>
<radialGradient id="paint16_radial_3238_9527" cx="0" cy="0" r="1" gradientUnits="userSpaceOnUse" gradientTransform="translate(9 13.5583) rotate(-90) scale(4.91039 12.0777)">
<stop stop-color="#2DAC5B"/>
<stop offset="1" stop-color="#35BD69"/>
</radialGradient>
<radialGradient id="paint17_radial_3238_9527" cx="0" cy="0" r="1" gradientUnits="userSpaceOnUse" gradientTransform="translate(6.50377 9.17551) rotate(50.356) scale(4.7939 2.91567)">
<stop stop-color="#4DC277"/>
<stop offset="1" stop-color="#4DC277" stop-opacity="0"/>
</radialGradient>
<radialGradient id="paint18_radial_3238_9527" cx="0" cy="0" r="1" gradientUnits="userSpaceOnUse" gradientTransform="translate(15.1875 6.88477) rotate(90) scale(7.14274 2.81509)">
<stop stop-color="#3BCC74"/>
<stop offset="1" stop-color="#3BCC74" stop-opacity="0"/>
</radialGradient>
<radialGradient id="paint19_radial_3238_9527" cx="0" cy="0" r="1" gradientUnits="userSpaceOnUse" gradientTransform="translate(10.1251 10.3009) rotate(110.45) scale(2.21372 1.44883)">
<stop offset="0.35" stop-color="#4CA876"/>
<stop offset="1" stop-color="#4CA876" stop-opacity="0"/>
</radialGradient>
<radialGradient id="paint20_radial_3238_9527" cx="0" cy="0" r="1" gradientUnits="userSpaceOnUse" gradientTransform="translate(2.8125 15.8201) rotate(-49.844) scale(2.9439 4.38772)">
<stop stop-color="#399E60"/>
<stop offset="1" stop-color="#399E60" stop-opacity="0"/>
</radialGradient>
<radialGradient id="paint21_radial_3238_9527" cx="0" cy="0" r="1" gradientUnits="userSpaceOnUse" gradientTransform="translate(9 15.1875) rotate(-90) scale(2.27487 6.63171)">
<stop stop-color="#7FD86C"/>
<stop offset="1" stop-color="#9FD660"/>
</radialGradient>
<radialGradient id="paint22_radial_3238_9527" cx="0" cy="0" r="1" gradientUnits="userSpaceOnUse" gradientTransform="translate(3.59468 15.8997) rotate(-31.396) scale(5.8032 7.84783)">
<stop stop-color="#79C56C"/>
<stop offset="1" stop-color="#79C56C" stop-opacity="0"/>
</radialGradient>
<radialGradient id="paint23_radial_3238_9527" cx="0" cy="0" r="1" gradientUnits="userSpaceOnUse" gradientTransform="translate(15.5052 15.9725) rotate(-133.877) scale(5.25505 5.2899)">
<stop stop-color="#93EB81"/>
<stop offset="1" stop-color="#93EB81" stop-opacity="0"/>
</radialGradient>
<linearGradient id="paint24_linear_3238_9527" x1="10.3799" y1="4.30463" x2="8.62265" y2="6.54732" gradientUnits="userSpaceOnUse">
<stop stop-color="#FC8B23"/>
<stop offset="1" stop-color="#E67639"/>
</linearGradient>
<radialGradient id="paint25_radial_3238_9527" cx="0" cy="0" r="1" gradientUnits="userSpaceOnUse" gradientTransform="translate(9.72065 3.912) rotate(138.155) scale(0.432661 0.381748)">
<stop offset="0.3" stop-color="#FFA13A"/>
<stop offset="1" stop-color="#FFA13A" stop-opacity="0"/>
</radialGradient>
<radialGradient id="paint26_radial_3238_9527" cx="0" cy="0" r="1" gradientUnits="userSpaceOnUse" gradientTransform="translate(8.59509 3.77588) rotate(67.8107) scale(0.687837 0.606883)">
<stop offset="0.3" stop-color="#FF942A"/>
<stop offset="1" stop-color="#FF942A" stop-opacity="0"/>
</radialGradient>
<radialGradient id="paint27_radial_3238_9527" cx="0" cy="0" r="1" gradientUnits="userSpaceOnUse" gradientTransform="translate(10.4423 4.41769) rotate(-164.743) scale(0.274255 0.379735)">
<stop offset="0.3" stop-color="#FFA13D"/>
<stop offset="1" stop-color="#FFA13D" stop-opacity="0"/>
</radialGradient>
<radialGradient id="paint28_radial_3238_9527" cx="0" cy="0" r="1" gradientUnits="userSpaceOnUse" gradientTransform="translate(10.9953 4.8165) rotate(154.196) scale(0.486259 0.359138)">
<stop offset="0.3" stop-color="#FFA13D"/>
<stop offset="1" stop-color="#FFA13D" stop-opacity="0"/>
</radialGradient>
<radialGradient id="paint29_radial_3238_9527" cx="0" cy="0" r="1" gradientUnits="userSpaceOnUse" gradientTransform="translate(11.1016 5.63944) rotate(-173.379) scale(0.542414 0.305671)">
<stop offset="0.3" stop-color="#FFA13D"/>
<stop offset="1" stop-color="#FFA13D" stop-opacity="0"/>
</radialGradient>
<radialGradient id="paint30_radial_3238_9527" cx="0" cy="0" r="1" gradientUnits="userSpaceOnUse" gradientTransform="translate(10.6156 6.26944) rotate(-43.9643) scale(0.492015 0.473998)">
<stop stop-color="#E0762A"/>
<stop offset="1" stop-color="#E0762A" stop-opacity="0"/>
</radialGradient>
<radialGradient id="paint31_radial_3238_9527" cx="0" cy="0" r="1" gradientUnits="userSpaceOnUse" gradientTransform="translate(8.33539 6.15352) rotate(-127.747) scale(0.377201 0.363386)">
<stop stop-color="#E0762A"/>
<stop offset="1" stop-color="#E0762A" stop-opacity="0"/>
</radialGradient>
<radialGradient id="paint32_radial_3238_9527" cx="0" cy="0" r="1" gradientUnits="userSpaceOnUse" gradientTransform="translate(7.82053 4.87894) rotate(25.2777) scale(0.383048 0.462965)">
<stop stop-color="#F0851D"/>
<stop offset="1" stop-color="#F0851D" stop-opacity="0"/>
</radialGradient>
<radialGradient id="paint33_radial_3238_9527" cx="0" cy="0" r="1" gradientUnits="userSpaceOnUse" gradientTransform="translate(10.1071 6.81563) rotate(-142.487) scale(0.446588 0.421319)">
<stop offset="0.337" stop-color="#E3745B"/>
<stop offset="1" stop-color="#E3745B" stop-opacity="0"/>
</radialGradient>
<radialGradient id="paint34_radial_3238_9527" cx="0" cy="0" r="1" gradientUnits="userSpaceOnUse" gradientTransform="translate(10.1207 4.66036) rotate(117.739) scale(2.19502 2.71063)">
<stop offset="0.172" stop-color="#FFCB38"/>
<stop offset="1" stop-color="#E5AE1B"/>
</radialGradient>
<radialGradient id="paint35_radial_3238_9527" cx="0" cy="0" r="1" gradientUnits="userSpaceOnUse" gradientTransform="translate(4.31653 6.81157) rotate(-115.017) scale(0.87291)">
<stop offset="0.108" stop-color="#EBEAFF"/>
<stop offset="1" stop-color="#D5D8FF"/>
</radialGradient>
<linearGradient id="paint36_linear_3238_9527" x1="3.97294" y1="9" x2="3.97294" y2="8.50781" gradientUnits="userSpaceOnUse">
<stop stop-color="#CFC9FF"/>
<stop offset="1" stop-color="#CFC9FF" stop-opacity="0"/>
</linearGradient>
<radialGradient id="paint37_radial_3238_9527" cx="0" cy="0" r="1" gradientUnits="userSpaceOnUse" gradientTransform="translate(5.94169 7.48856) rotate(151.736) scale(1.85605 1.55822)">
<stop stop-color="#F2F3FF"/>
<stop offset="1" stop-color="#F2F3FF" stop-opacity="0"/>
</radialGradient>
<radialGradient id="paint38_radial_3238_9527" cx="0" cy="0" r="1" gradientUnits="userSpaceOnUse" gradientTransform="translate(3.86719 6.012) rotate(121.861) scale(1.53182 1.24177)">
<stop offset="0.222" stop-color="#F4F4FF"/>
<stop offset="1" stop-color="#F4F4FF" stop-opacity="0"/>
</radialGradient>
</defs>
</svg>
