<svg width="14" height="12" viewBox="0 0 14 12" fill="none" xmlns="http://www.w3.org/2000/svg">
<path d="M3.49271 0.056792C4.11198 -0.0436783 4.74703 -0.0105356 5.35105 0.153777C5.95508 0.31809 6.51268 0.609383 6.98275 1.00619L7.00863 1.02817L7.03242 1.00818C7.48106 0.633288 8.0085 0.353799 8.57955 0.188363C9.15061 0.0229267 9.75215 -0.0246532 10.344 0.0487973L10.5162 0.0727819C11.2622 0.195443 11.9596 0.507941 12.5344 0.977184C13.1092 1.44643 13.54 2.05495 13.7812 2.7383C14.0224 3.42166 14.0651 4.15441 13.9047 4.85897C13.7442 5.56353 13.3867 6.21366 12.8699 6.74052L12.744 6.86378L12.7104 6.89109L7.49772 11.8073C7.37742 11.9207 7.21805 11.9887 7.04913 11.9987C6.88022 12.0087 6.7132 11.9602 6.57903 11.8619L6.51326 11.8073L1.27051 6.86244C0.715109 6.34788 0.320122 5.69698 0.129289 4.98182C-0.0615441 4.26667 -0.0407756 3.51518 0.189294 2.81058C0.419364 2.10597 0.849757 1.47575 1.43281 0.98971C2.01586 0.50367 2.72881 0.180777 3.49271 0.056792Z" fill="#FF4B4B"/>
</svg>
