<svg width="50" height="50" viewBox="0 0 50 50" fill="none" xmlns="http://www.w3.org/2000/svg">
<path d="M26.8284 14.6186L36.7742 17.2665M24.6992 22.5269L29.67 23.8519M24.9471 37.429L26.9346 37.9602C32.5596 39.4602 35.3721 40.2082 37.5888 38.9352C39.8034 37.6644 40.5575 34.8665 42.0638 29.2748L44.195 21.3644C45.7034 15.7707 46.4554 12.9748 45.1763 10.7707C43.8971 8.56649 41.0867 7.81858 35.4596 6.32066L33.4721 5.78941C27.8471 4.28941 25.0346 3.54149 22.82 4.81441C20.6034 6.08524 19.8492 8.88316 18.3409 14.4748L16.2117 22.3852C14.7034 27.979 13.9492 30.7748 15.2304 32.979C16.5096 35.1811 19.3221 35.9311 24.9471 37.429Z" stroke="#0087FF" stroke-width="2.6" stroke-linecap="round" stroke-linejoin="round"/>
<path d="M24.9975 43.6375L23.0141 44.1792C17.4016 45.7063 14.5975 46.4708 12.385 45.1729C10.1766 43.8771 9.42245 41.0271 7.92037 35.3229L5.79328 27.2563C4.28912 21.5542 3.53703 18.7021 4.81412 16.4563C5.91828 14.5125 8.33078 14.5833 11.4558 14.5833" stroke="#0087FF" stroke-width="2.6" stroke-linecap="round" stroke-linejoin="round"/>
</svg>
