<svg width="24" height="24" viewBox="0 0 24 24" fill="none" xmlns="http://www.w3.org/2000/svg">
<path d="M12.0008 2.00001C10.7002 1.95278 9.40343 2.16913 8.1886 2.63605C6.97376 3.10297 5.86592 3.8108 4.93173 4.71696C3.99755 5.62313 3.25631 6.7089 2.75262 7.90895C2.24893 9.10901 1.99319 10.3986 2.00079 11.7C1.98338 13.0513 2.25447 14.3907 2.79595 15.6289C3.33743 16.867 4.13683 17.9754 5.14079 18.88C5.22089 18.9506 5.28604 19.0365 5.33241 19.1327C5.37878 19.2289 5.40543 19.3334 5.41079 19.44V21.22C5.41627 21.3512 5.45357 21.4791 5.51949 21.5927C5.5854 21.7063 5.67795 21.8022 5.78915 21.8721C5.90035 21.9419 6.02687 21.9837 6.15781 21.9938C6.28876 22.0039 6.42019 21.982 6.54079 21.93L8.54079 21.06C8.71157 20.9955 8.90001 20.9955 9.07079 21.06C10.0162 21.3152 10.9915 21.443 11.9708 21.44C14.5487 21.444 17.0226 20.4237 18.8483 18.6037C20.6739 16.7837 21.7018 14.3129 21.7058 11.735C21.7098 9.1571 20.6895 6.6832 18.8695 4.85754C17.0494 3.03187 14.5787 2.00399 12.0008 2.00001ZM18.0008 9.46001L15.0708 14.12C14.9603 14.2955 14.8146 14.4461 14.643 14.5624C14.4713 14.6787 14.2774 14.7582 14.0735 14.7957C13.8696 14.8333 13.6601 14.8282 13.4582 14.7808C13.2564 14.7333 13.0666 14.6445 12.9008 14.52L10.5608 12.77C10.4569 12.6921 10.3306 12.65 10.2008 12.65C10.071 12.65 9.94465 12.6921 9.84079 12.77L6.68079 15.17C6.59278 15.2379 6.48357 15.2724 6.37255 15.2674C6.26152 15.2623 6.15586 15.2181 6.07434 15.1426C5.99281 15.0671 5.94069 14.9651 5.92722 14.8548C5.91376 14.7445 5.93982 14.6329 6.00079 14.54L8.93079 9.88001C9.04129 9.70456 9.18697 9.55393 9.35863 9.43763C9.53028 9.32132 9.72419 9.24187 9.9281 9.20428C10.132 9.16669 10.3415 9.17179 10.5433 9.21925C10.7452 9.2667 10.935 9.35549 11.1008 9.48001L13.4408 11.23C13.5446 11.3079 13.671 11.35 13.8008 11.35C13.9306 11.35 14.0569 11.3079 14.1608 11.23L17.3208 8.83001C17.4088 8.76214 17.518 8.72765 17.629 8.73266C17.7401 8.73768 17.8457 8.78188 17.9272 8.85741C18.0088 8.93294 18.0609 9.03492 18.0744 9.14524C18.0878 9.25556 18.0618 9.36708 18.0008 9.46001Z" fill="url(#paint0_linear_3446_9599)"/>
<defs>
<linearGradient id="paint0_linear_3446_9599" x1="11.8529" y1="1.99365" x2="11.8529" y2="21.9962" gradientUnits="userSpaceOnUse">
<stop stop-color="#E39493"/>
<stop offset="0.22" stop-color="#CA50AF"/>
<stop offset="0.465" stop-color="#A241E5"/>
<stop offset="0.8" stop-color="#4392F3"/>
</linearGradient>
</defs>
</svg>
