<svg width="16" height="16" viewBox="0 0 16 16" fill="none" xmlns="http://www.w3.org/2000/svg">
<g clip-path="url(#clip0_3467_213)">
<path d="M7.79167 4.64453C7.4515 4.64453 7.17318 4.36621 7.17318 4.02604L7.17318 1.55208C7.17318 1.21191 7.4515 0.933594 7.79167 0.933594C8.13184 0.933594 8.41016 1.21191 8.41016 1.55208L8.41016 4.02604C8.41016 4.36621 8.13184 4.64453 7.79167 4.64453ZM7.79167 14.5404C7.4515 14.5404 7.17318 14.262 7.17318 13.9219L7.17318 11.4479C7.17318 11.1077 7.4515 10.8294 7.79167 10.8294C8.13184 10.8294 8.41016 11.1077 8.41016 11.4479L8.41016 13.9219C8.41016 14.262 8.13184 14.5404 7.79167 14.5404ZM13.9766 8.35547H11.5026C11.1624 8.35547 10.8841 8.07715 10.8841 7.73698C10.8841 7.39681 11.1624 7.11849 11.5026 7.11849L13.9766 7.11849C14.3167 7.11849 14.5951 7.39681 14.5951 7.73698C14.5951 8.07715 14.3167 8.35547 13.9766 8.35547ZM4.08073 8.35547H1.60677C1.2666 8.35547 0.988281 8.07715 0.988281 7.73698C0.988281 7.39681 1.2666 7.11849 1.60677 7.11849L4.08073 7.11849C4.4209 7.11849 4.69922 7.39681 4.69922 7.73698C4.69922 8.07715 4.4209 8.35547 4.08073 8.35547ZM12.1644 12.7282C12.0036 12.7282 11.849 12.6663 11.7253 12.5488L9.97493 10.7985C9.91767 10.7412 9.87225 10.6733 9.84126 10.5984C9.81027 10.5236 9.79432 10.4434 9.79432 10.3625C9.79432 10.2815 9.81027 10.2013 9.84126 10.1265C9.87225 10.0517 9.91767 9.98369 9.97493 9.92643C10.0322 9.86917 10.1002 9.82375 10.175 9.79276C10.2498 9.76177 10.33 9.74582 10.411 9.74582C10.4919 9.74582 10.5721 9.76177 10.6469 9.79276C10.7218 9.82375 10.7897 9.86917 10.847 9.92643L12.5973 11.6768C12.6836 11.7631 12.7423 11.8732 12.766 11.993C12.7896 12.1128 12.7771 12.2369 12.73 12.3496C12.683 12.4623 12.6035 12.5584 12.5017 12.6258C12.3999 12.6932 12.2803 12.7289 12.1582 12.7282H12.1644ZM5.16927 5.73307C5.00846 5.73307 4.85384 5.67122 4.73014 5.55371L2.97982 3.80339C2.92256 3.74612 2.87713 3.67815 2.84615 3.60333C2.81516 3.52852 2.79921 3.44833 2.79921 3.36735C2.79921 3.28637 2.81516 3.20618 2.84615 3.13137C2.87713 3.05655 2.92256 2.98858 2.97982 2.93132C3.03708 2.87405 3.10506 2.82863 3.17987 2.79764C3.25469 2.76665 3.33487 2.7507 3.41585 2.7507C3.49683 2.7507 3.57702 2.76665 3.65183 2.79764C3.72665 2.82863 3.79463 2.87405 3.85189 2.93132L5.60221 4.68164C5.68852 4.76801 5.74721 4.87809 5.77084 4.99789C5.79446 5.11768 5.78195 5.2418 5.73489 5.35447C5.68784 5.46714 5.60836 5.56329 5.50655 5.6307C5.40474 5.69811 5.28519 5.73374 5.16309 5.73307H5.16927ZM3.41895 12.7282C3.25814 12.7282 3.10352 12.6663 2.97982 12.5488C2.92248 12.4916 2.87699 12.4236 2.84596 12.3488C2.81492 12.274 2.79894 12.1938 2.79894 12.1128C2.79894 12.0318 2.81492 11.9516 2.84596 11.8768C2.87699 11.8019 2.92248 11.734 2.97982 11.6768L4.73014 9.92643C4.7874 9.86917 4.85538 9.82375 4.9302 9.79276C5.00501 9.76177 5.0852 9.74582 5.16618 9.74582C5.24716 9.74582 5.32734 9.76177 5.40216 9.79276C5.47697 9.82375 5.54495 9.86917 5.60221 9.92643C5.65947 9.98369 5.7049 10.0517 5.73589 10.1265C5.76687 10.2013 5.78283 10.2815 5.78283 10.3625C5.78283 10.4434 5.76687 10.5236 5.73589 10.5984C5.7049 10.6733 5.65947 10.7412 5.60221 10.7985L3.85189 12.5488C3.72819 12.6725 3.57357 12.7282 3.41276 12.7282H3.41895ZM10.4141 5.73307C10.2533 5.73307 10.0986 5.67122 9.97493 5.55371C9.9176 5.49649 9.87211 5.42853 9.84107 5.35371C9.81004 5.27889 9.79406 5.19868 9.79406 5.11768C9.79406 5.03667 9.81004 4.95647 9.84107 4.88164C9.87211 4.80682 9.9176 4.73886 9.97493 4.68164L11.7253 2.93132C11.7825 2.87405 11.8505 2.82863 11.9253 2.79764C12.0001 2.76665 12.0803 2.7507 12.1613 2.7507C12.2423 2.7507 12.3225 2.76665 12.3973 2.79764C12.4721 2.82863 12.5401 2.87405 12.5973 2.93132C12.6546 2.98858 12.7 3.05655 12.731 3.13137C12.762 3.20618 12.7779 3.28637 12.7779 3.36735C12.7779 3.44833 12.762 3.52852 12.731 3.60333C12.7 3.67815 12.6546 3.74612 12.5973 3.80339L10.847 5.55371C10.7233 5.67741 10.5687 5.73307 10.4079 5.73307H10.4141Z" fill="#0087FF"/>
</g>
<defs>
<clipPath id="clip0_3467_213">
<rect width="14.8438" height="14.8438" fill="white" transform="translate(0.371094 0.314453)"/>
</clipPath>
</defs>
</svg>
