<svg width="20" height="20" viewBox="0 0 20 20" fill="none" xmlns="http://www.w3.org/2000/svg">
<path d="M10.0008 7.9209e-06C8.70017 -0.0472181 7.40343 0.169135 6.1886 0.636052C4.97376 1.10297 3.86592 1.8108 2.93173 2.71696C1.99755 3.62313 1.25631 4.7089 0.752617 5.90895C0.248925 7.10901 -0.00681253 8.39855 0.000787987 9.70001C-0.0166164 11.0513 0.254471 12.3907 0.795949 13.6289C1.33743 14.867 2.13683 15.9754 3.14079 16.88C3.22089 16.9506 3.28604 17.0365 3.33241 17.1327C3.37878 17.2289 3.40543 17.3334 3.41079 17.44V19.22C3.41627 19.3512 3.45357 19.4791 3.51949 19.5927C3.5854 19.7063 3.67795 19.8022 3.78915 19.8721C3.90035 19.9419 4.02687 19.9837 4.15781 19.9938C4.28876 20.0039 4.42019 19.982 4.54079 19.93L6.54079 19.06C6.71157 18.9955 6.90001 18.9955 7.07079 19.06C8.01623 19.3152 8.99152 19.443 9.97079 19.44C12.5487 19.444 15.0226 18.4237 16.8483 16.6037C18.6739 14.7837 19.7018 12.3129 19.7058 9.73501C19.7098 7.1571 18.6895 4.6832 16.8695 2.85754C15.0494 1.03187 12.5787 0.00398617 10.0008 7.9209e-06ZM16.0008 7.46001L13.0708 12.12C12.9603 12.2955 12.8146 12.4461 12.643 12.5624C12.4713 12.6787 12.2774 12.7582 12.0735 12.7957C11.8696 12.8333 11.6601 12.8282 11.4582 12.7808C11.2564 12.7333 11.0666 12.6445 10.9008 12.52L8.56079 10.77C8.45693 10.6921 8.33061 10.65 8.20079 10.65C8.07097 10.65 7.94465 10.6921 7.84079 10.77L4.68079 13.17C4.59278 13.2379 4.48357 13.2724 4.37255 13.2674C4.26152 13.2623 4.15586 13.2181 4.07434 13.1426C3.99281 13.0671 3.94069 12.9651 3.92722 12.8548C3.91376 12.7445 3.93982 12.6329 4.00079 12.54L6.93079 7.88001C7.04129 7.70456 7.18697 7.55393 7.35863 7.43763C7.53028 7.32132 7.72419 7.24187 7.9281 7.20428C8.13201 7.16669 8.3415 7.17179 8.54334 7.21925C8.74518 7.2667 8.93499 7.35549 9.10079 7.48001L11.4408 9.23001C11.5446 9.3079 11.671 9.35001 11.8008 9.35001C11.9306 9.35001 12.0569 9.3079 12.1608 9.23001L15.3208 6.83001C15.4088 6.76214 15.518 6.72765 15.629 6.73266C15.7401 6.73768 15.8457 6.78188 15.9272 6.85741C16.0088 6.93294 16.0609 7.03492 16.0744 7.14524C16.0878 7.25556 16.0618 7.36708 16.0008 7.46001Z" fill="#0084FF"/>
</svg>
