<svg width="24" height="24" viewBox="0 0 24 24" fill="none" xmlns="http://www.w3.org/2000/svg">
<path d="M12.0001 2.0005C10.6994 1.95327 9.4027 2.16962 8.18786 2.63654C6.97303 3.10346 5.86519 3.81129 4.931 4.71745C3.99681 5.62361 3.25558 6.70938 2.75188 7.90944C2.24819 9.1095 1.99246 10.399 2.00006 11.7005C1.98265 13.0518 2.25374 14.3912 2.79522 15.6294C3.33669 16.8675 4.1361 17.9759 5.14006 18.8805C5.22015 18.9511 5.28531 19.037 5.33168 19.1332C5.37805 19.2294 5.4047 19.3339 5.41006 19.4405V21.2205C5.41554 21.3517 5.45284 21.4796 5.51875 21.5932C5.58467 21.7068 5.67721 21.8027 5.78842 21.8725C5.89962 21.9424 6.02614 21.9842 6.15708 21.9943C6.28802 22.0044 6.41946 21.9825 6.54006 21.9305L8.54006 21.0605C8.71083 20.996 8.89928 20.996 9.07006 21.0605C10.0155 21.3157 10.9908 21.4435 11.9701 21.4405C14.548 21.4445 17.0219 20.4242 18.8475 18.6042C20.6732 16.7841 21.7011 14.3134 21.7051 11.7355C21.709 9.15759 20.6888 6.68369 18.8687 4.85802C17.0487 3.03236 14.578 2.00447 12.0001 2.0005ZM18.0001 9.4605L15.0701 14.1205C14.9596 14.2959 14.8139 14.4466 14.6422 14.5629C14.4706 14.6792 14.2767 14.7586 14.0727 14.7962C13.8688 14.8338 13.6593 14.8287 13.4575 14.7813C13.2557 14.7338 13.0659 14.645 12.9001 14.5205L10.5601 12.7705C10.4562 12.6926 10.3299 12.6505 10.2001 12.6505C10.0702 12.6505 9.94391 12.6926 9.84006 12.7705L6.68006 15.1705C6.59205 15.2384 6.48284 15.2729 6.37181 15.2678C6.26079 15.2628 6.15513 15.2186 6.0736 15.1431C5.99208 15.0676 5.93995 14.9656 5.92649 14.8553C5.91302 14.7449 5.93909 14.6334 6.00006 14.5405L8.93006 9.8805C9.04056 9.70505 9.18624 9.55442 9.35789 9.43811C9.52955 9.32181 9.72345 9.24235 9.92736 9.20477C10.1313 9.16718 10.3408 9.17228 10.5426 9.21973C10.7444 9.26719 10.9343 9.35598 11.1001 9.4805L13.4401 11.2305C13.5439 11.3084 13.6702 11.3505 13.8001 11.3505C13.9299 11.3505 14.0562 11.3084 14.1601 11.2305L17.3201 8.8305C17.4081 8.76262 17.5173 8.72813 17.6283 8.73315C17.7393 8.73817 17.845 8.78237 17.9265 8.8579C18.008 8.93343 18.0602 9.03541 18.0736 9.14573C18.0871 9.25605 18.061 9.36757 18.0001 9.4605Z" fill="white"/>
</svg>
