<svg width="17" height="17" viewBox="0 0 17 17" fill="none" xmlns="http://www.w3.org/2000/svg">
<path fill-rule="evenodd" clip-rule="evenodd" d="M8.33014 16.6603C12.9307 16.6603 16.6603 12.9307 16.6603 8.33014C16.6603 3.72953 12.9307 0 8.33014 0C3.72953 0 0 3.72953 0 8.33014C0 12.9307 3.72953 16.6603 8.33014 16.6603Z" fill="#D9D9D9"/>
<path fill-rule="evenodd" clip-rule="evenodd" d="M8.76225 9.53691L7.41411 8.13611L4.81683 9.57219L7.66373 6.55151L9.01187 7.95232L11.6081 6.51623L8.76225 9.53691ZM8.21299 3C5.33397 3 3 5.18231 3 7.8749C3 9.40631 3.75517 10.7729 4.9369 11.6666V13.5324L6.71582 12.5455C7.18977 12.6782 7.69269 12.7498 8.21299 12.7498C11.0925 12.7498 13.4265 10.567 13.4265 7.8749C13.4265 5.18231 11.0925 3 8.21299 3Z" fill="black"/>
</svg>
