<svg width="48" height="47" viewBox="0 0 48 47" fill="none" xmlns="http://www.w3.org/2000/svg">
<path d="M31.4583 27.5C34.0552 27.5 36.5458 28.5316 38.3821 30.3679C40.2184 32.2042 41.25 34.6948 41.25 37.2917V39.25C41.25 40.2888 40.8374 41.285 40.1028 42.0195C39.3683 42.754 38.3721 43.1667 37.3333 43.1667H9.91667C8.8779 43.1667 7.88168 42.754 7.14716 42.0195C6.41265 41.285 6 40.2888 6 39.25V37.2917C6 34.6948 7.03162 32.2042 8.86791 30.3679C10.7042 28.5316 13.1948 27.5 15.7917 27.5H31.4583ZM23.625 4C26.2219 4 28.7125 5.03162 30.5488 6.86791C32.385 8.70421 33.4167 11.1948 33.4167 13.7917C33.4167 16.3886 32.385 18.8791 30.5488 20.7154C28.7125 22.5517 26.2219 23.5833 23.625 23.5833C21.0281 23.5833 18.5375 22.5517 16.7012 20.7154C14.865 18.8791 13.8333 16.3886 13.8333 13.7917C13.8333 11.1948 14.865 8.70421 16.7012 6.86791C18.5375 5.03162 21.0281 4 23.625 4Z" fill="#0084FF"/>
<path d="M32.006 22C31.4537 21.9967 31.0033 22.4418 31 22.994C30.9967 23.5463 31.4418 23.9967 31.994 24L32.006 22ZM46.7029 23.7948C47.0957 23.4066 47.0995 22.7735 46.7113 22.3806L40.3854 15.9788C39.9972 15.586 39.3641 15.5822 38.9712 15.9704C38.5784 16.3586 38.5746 16.9917 38.9628 17.3846L44.5858 23.0751L38.8953 28.6981C38.5025 29.0863 38.4987 29.7194 38.8869 30.1123C39.2751 30.5051 39.9082 30.5089 40.3011 30.1207L46.7029 23.7948ZM31.994 24L45.994 24.0835L46.006 22.0835L32.006 22L31.994 24Z" fill="#0084FF"/>
</svg>
