<svg width="11" height="14" viewBox="0 0 11 14" fill="none" xmlns="http://www.w3.org/2000/svg">
<path d="M2.74933 8.85553C2.05751 9.31863 0.243625 10.2646 1.34858 11.4488C1.88786 12.0268 2.48874 12.4404 3.24412 12.4404H7.5554C8.31126 12.4404 8.91214 12.0268 9.45142 11.4488C10.5564 10.2646 8.74249 9.31863 8.05067 8.85553C7.24776 8.32195 6.3323 8.04048 5.39976 8.04048C4.46721 8.04048 3.55224 8.32195 2.74933 8.85553ZM7.60038 3.91543C7.60038 4.57184 7.36858 5.20137 6.95597 5.66552C6.54337 6.12967 5.98376 6.39043 5.40024 6.39043C4.81673 6.39043 4.25712 6.12967 3.84452 5.66552C3.43191 5.20137 3.20011 4.57184 3.20011 3.91543C3.20011 3.25902 3.43191 2.62949 3.84452 2.16534C4.25712 1.70119 4.81673 1.44043 5.40024 1.44043C5.98376 1.44043 6.54337 1.70119 6.95597 2.16534C7.36858 2.62949 7.60038 3.25902 7.60038 3.91543Z" stroke="black" stroke-opacity="0.5" stroke-width="1.265" stroke-linecap="round" stroke-linejoin="round"/>
</svg>
