<svg width="4" height="14" viewBox="0 0 4 14" fill="none" xmlns="http://www.w3.org/2000/svg">
<path d="M3.25 2C3.25 1.66848 3.1183 1.35054 2.88388 1.11612C2.64946 0.881696 2.33152 0.75 2 0.75C1.66848 0.75 1.35054 0.881696 1.11612 1.11612C0.881696 1.35054 0.75 1.66848 0.75 2C0.75 2.33152 0.881696 2.64946 1.11612 2.88388C1.35054 3.1183 1.66848 3.25 2 3.25C2.33152 3.25 2.64946 3.1183 2.88388 2.88388C3.1183 2.64946 3.25 2.33152 3.25 2ZM2 5.75C2.33152 5.75 2.64946 5.8817 2.88388 6.11612C3.1183 6.35054 3.25 6.66848 3.25 7C3.25 7.33152 3.1183 7.64946 2.88388 7.88388C2.64946 8.1183 2.33152 8.25 2 8.25C1.66848 8.25 1.35054 8.1183 1.11612 7.88388C0.881696 7.64946 0.75 7.33152 0.75 7C0.75 6.66848 0.881696 6.35054 1.11612 6.11612C1.35054 5.8817 1.66848 5.75 2 5.75ZM2 10.75C2.33152 10.75 2.64946 10.8817 2.88388 11.1161C3.1183 11.3505 3.25 11.6685 3.25 12C3.25 12.3315 3.1183 12.6495 2.88388 12.8839C2.64946 13.1183 2.33152 13.25 2 13.25C1.66848 13.25 1.35054 13.1183 1.11612 12.8839C0.881695 12.6495 0.75 12.3315 0.75 12C0.75 11.6685 0.881695 11.3505 1.11612 11.1161C1.35054 10.8817 1.66848 10.75 2 10.75Z" fill="black" fill-opacity="0.5"/>
</svg>
