<svg width="16" height="16" viewBox="0 0 16 16" fill="none" xmlns="http://www.w3.org/2000/svg">
<path d="M11.7578 15.9924H2.4797C2.15207 15.9938 1.8275 15.9294 1.52524 15.803C1.22298 15.6766 0.949168 15.4908 0.720045 15.2566C0.489234 15.0241 0.306779 14.7482 0.183222 14.4448C0.059665 14.1414 -0.00254426 13.8165 0.000188352 13.4889V4.21877C-0.00389774 3.89266 0.0585378 3.56914 0.183682 3.26797C0.308825 2.9668 0.494051 2.6943 0.728043 2.46711C0.955715 2.23628 1.2278 2.05398 1.52788 1.93122C1.83189 1.80409 2.15818 1.73883 2.48769 1.73926H6.03899C6.19809 1.73926 6.35067 1.80246 6.46317 1.91496C6.57567 2.02746 6.63887 2.18004 6.63887 2.33914C6.63887 2.49824 6.57567 2.65082 6.46317 2.76332C6.35067 2.87582 6.19809 2.93902 6.03899 2.93902H2.48769C2.31566 2.9437 2.1455 2.97611 1.98379 3.035C1.74811 3.13448 1.54715 3.3015 1.40624 3.51501C1.26533 3.72851 1.19077 3.97895 1.19195 4.23476V13.5049C1.18995 13.6768 1.22215 13.8473 1.28669 14.0066C1.35123 14.1659 1.44681 14.3107 1.56788 14.4327C1.68892 14.5528 1.83248 14.6479 1.99032 14.7124C2.14816 14.7769 2.31718 14.8096 2.48769 14.8087H11.7658C11.9362 14.8087 12.1042 14.7767 12.2617 14.7127C12.4186 14.6497 12.5603 14.5543 12.6777 14.4327C12.7992 14.3154 12.8946 14.1736 12.9576 14.0168C13.0283 13.8583 13.0638 13.6864 13.0616 13.5129V9.96162C13.0616 9.80253 13.1248 9.64994 13.2373 9.53744C13.3498 9.42494 13.5024 9.36174 13.6615 9.36174C13.8206 9.36174 13.9732 9.42494 14.0856 9.53744C14.1981 9.64994 14.2614 9.80253 14.2614 9.96162V13.5369C14.2627 13.8645 14.1983 14.1891 14.0719 14.4914C13.9455 14.7936 13.7597 15.0674 13.5255 15.2966C13.2959 15.527 13.0244 15.7116 12.7257 15.8405C12.4161 15.9524 12.0874 16.0044 11.7578 15.9924Z" fill="#808183"/>
<path d="M15.8458 2.76328C15.7643 2.55733 15.6387 2.3717 15.4779 2.21938L13.7582 0.499727C13.6059 0.338914 13.4203 0.21334 13.2143 0.1318C12.9049 0.00140328 12.5634 -0.0332391 12.2341 0.0323451C11.9047 0.0979293 11.6026 0.260729 11.3667 0.499727L9.99898 1.86745V1.90745L3.80822 8.09022C3.49567 8.40491 3.32028 8.83045 3.32031 9.27398V11.0096C3.32242 11.4566 3.5009 11.8846 3.81694 12.2007C4.13299 12.5167 4.56103 12.6952 5.00798 12.6973H6.74363C6.96402 12.6976 7.18225 12.6539 7.38552 12.5687C7.58879 12.4836 7.77302 12.3587 7.9274 12.2014L14.1182 6.01063L15.4939 4.6349C15.6555 4.48293 15.7818 4.29737 15.8618 4.09101C15.9534 3.88588 16.0007 3.66377 16.0007 3.43914C16.0007 3.21451 15.9534 2.9924 15.8618 2.78727L15.8458 2.76328ZM14.742 3.60311C14.7161 3.66354 14.678 3.71799 14.6301 3.76308L13.6543 4.73888L11.2547 2.33936L12.2385 1.35556C12.333 1.26416 12.459 1.21261 12.5905 1.21159C12.6538 1.21264 12.7164 1.22623 12.7744 1.25158C12.8363 1.27771 12.8896 1.31503 12.9344 1.36356L14.6621 3.08321C14.7056 3.13019 14.7408 3.1843 14.766 3.24318C14.7779 3.30393 14.7779 3.3664 14.766 3.42714C14.7691 3.48678 14.7609 3.54646 14.742 3.60311Z" fill="#808183"/>
</svg>
