<svg width="16" height="17" viewBox="0 0 16 17" fill="none" xmlns="http://www.w3.org/2000/svg">
<path d="M14.3519 13.7021L11.2226 10.5733C12.1296 9.48437 12.5819 8.08768 12.4853 6.67377C12.3888 5.25986 11.7509 3.93759 10.7043 2.98204C9.65767 2.02649 8.28297 1.51122 6.86613 1.54342C5.44929 1.57562 4.09942 2.15281 3.0973 3.15492C2.09519 4.15703 1.518 5.50691 1.4858 6.92375C1.4536 8.34058 1.96887 9.71529 2.92442 10.7619C3.87997 11.8085 5.20224 12.4464 6.61615 12.543C8.03006 12.6395 9.42676 12.1872 10.5157 11.2802L13.6444 14.4096C13.6909 14.456 13.746 14.4929 13.8067 14.518C13.8674 14.5431 13.9325 14.5561 13.9982 14.5561C14.0639 14.5561 14.1289 14.5431 14.1896 14.518C14.2503 14.4929 14.3055 14.456 14.3519 14.4096C14.3984 14.3631 14.4352 14.308 14.4604 14.2473C14.4855 14.1866 14.4985 14.1215 14.4985 14.0558C14.4985 13.9901 14.4855 13.9251 14.4604 13.8644C14.4352 13.8037 14.3984 13.7485 14.3519 13.7021ZM2.49819 7.05581C2.49819 6.16579 2.76211 5.29576 3.25658 4.55574C3.75104 3.81572 4.45385 3.23894 5.27611 2.89835C6.09838 2.55775 7.00318 2.46864 7.8761 2.64227C8.74901 2.81591 9.55083 3.24449 10.1802 3.87383C10.8095 4.50316 11.2381 5.30499 11.4117 6.1779C11.5854 7.05081 11.4962 7.95561 11.1556 8.77788C10.8151 9.60015 10.2383 10.303 9.49826 10.7974C8.75823 11.2919 7.88821 11.5558 6.99819 11.5558C5.80512 11.5545 4.6613 11.08 3.81767 10.2363C2.97404 9.3927 2.49951 8.24887 2.49819 7.05581Z" fill="#878787"/>
</svg>
