<svg width="16" height="17" viewBox="0 0 16 17" fill="none" xmlns="http://www.w3.org/2000/svg">
<path d="M3.35782 2.62409C3.3576 3.06937 3.1805 3.49632 2.86548 3.81102C2.55047 4.12573 2.12334 4.3024 1.67807 4.30217C1.2328 4.30195 0.805847 4.12485 0.491147 3.80984C0.176448 3.49482 -0.000222427 3.06769 2.10167e-07 2.62242C0.000222847 2.17714 0.177321 1.75019 0.492335 1.43549C0.807349 1.12079 1.23447 0.944114 1.67975 0.944336C2.12502 0.944559 2.55197 1.12166 2.86667 1.43667C3.18137 1.75169 3.35804 2.17882 3.35782 2.62409ZM3.40819 5.54541H0.0503674V16.0554H3.40819V5.54541ZM8.71354 5.54541H5.37251V16.0554H8.67996V10.5402C8.67996 7.46778 12.6842 7.18236 12.6842 10.5402V16.0554H16V9.39853C16 4.21907 10.0735 4.41214 8.67996 6.95571L8.71354 5.54541Z" fill="#0077B5"/>
</svg>
