<svg width="14" height="14" viewBox="0 0 14 14" fill="none" xmlns="http://www.w3.org/2000/svg">
<path opacity="0.984" d="M2.57324 0.102539C3.30707 0.0968345 4.04079 0.101937 4.77441 0.119141C5.00757 0.2358 5.14115 0.374449 5.19629 0.530273C5.25245 0.689163 5.23439 0.885954 5.12109 1.13086C5.05526 1.24395 4.96432 1.32575 4.8457 1.37988C4.34012 1.41355 3.8333 1.43511 3.3252 1.44434L2.81055 1.44922L2.79883 1.4502C2.4063 1.49656 2.08964 1.63114 1.85938 1.86133C1.6291 2.0916 1.49461 2.40818 1.44824 2.80078L1.54785 2.8125L1.44727 2.80078V2.81152C1.42947 4.8219 1.42567 6.83238 1.43457 8.84277L1.44727 10.8525L1.44824 10.8633C1.49461 11.2558 1.62915 11.5725 1.85938 11.8027C2.08965 12.033 2.40622 12.1675 2.79883 12.2139V12.2148H2.80957C5.4899 12.2386 8.17026 12.2386 10.8506 12.2148V12.2158L10.8613 12.2139C11.2539 12.1675 11.5705 12.033 11.8008 11.8027C12.031 11.5725 12.1646 11.2558 12.2109 10.8633L12.2129 10.8643V10.8525C12.2142 10.174 12.2365 9.49732 12.2812 8.82324C12.4206 8.61346 12.5722 8.49696 12.7334 8.45605C12.898 8.4143 13.0913 8.44699 13.3203 8.57129C13.4257 8.65201 13.4988 8.75359 13.542 8.87891C13.5651 9.61558 13.5652 10.3522 13.542 11.0889C13.4051 11.7786 13.1324 12.3237 12.7266 12.7295C12.3201 13.1359 11.7741 13.4086 11.083 13.5449C8.24707 13.5685 5.41113 13.5685 2.5752 13.5449C1.88471 13.4083 1.33975 13.1347 0.933594 12.7285C0.527999 12.3229 0.254004 11.779 0.117188 11.0898C0.0935892 8.2513 0.0935867 5.41276 0.117188 2.57422C0.257048 1.88513 0.532682 1.3393 0.938477 0.930664C1.34433 0.522066 1.88724 0.245048 2.57324 0.102539Z" fill="#808183" stroke="white" stroke-width="0.2"/>
<path opacity="0.985" d="M8.13574 0.102539C9.80474 0.0967665 11.4737 0.101607 13.1426 0.119141C13.3349 0.196976 13.4672 0.330009 13.5449 0.522461C13.5792 2.22439 13.5663 3.92422 13.5088 5.62207C13.3743 5.81647 13.2297 5.92782 13.0732 5.96875C12.9125 6.01072 12.7251 5.98367 12.5039 5.87305C12.4102 5.79607 12.3378 5.70411 12.2852 5.59668C12.2394 4.61155 12.2157 3.62425 12.2148 2.63477V2.39355L12.0439 2.56348L5.6748 8.93262C5.5073 9.0013 5.35379 9.02343 5.21094 9.00098C5.06748 8.97832 4.92855 8.91003 4.79297 8.79297C4.63879 8.53463 4.61704 8.27045 4.72949 7.99023C6.85296 5.86677 8.97712 3.74359 11.1006 1.62012L11.2686 1.45215L11.0312 1.44922C10.551 1.4433 10.0701 1.43757 9.58984 1.43164C9.11719 1.4258 8.64453 1.41989 8.17188 1.41406C7.91905 1.3006 7.77476 1.16037 7.71484 1C7.65446 0.838168 7.67084 0.63346 7.78906 0.375977C7.88698 0.254185 8.00258 0.164049 8.13574 0.102539Z" fill="#808183" stroke="white" stroke-width="0.2"/>
</svg>
