<svg width="6" height="15" viewBox="0 0 6 15" fill="none" xmlns="http://www.w3.org/2000/svg">
<path d="M3.9 7.40441C3.9 3.39697 1.51644 1.88722 1.41469 1.82466C1.28979 1.74926 1.19995 1.62733 1.16495 1.4857C1.12994 1.34407 1.15264 1.19434 1.22803 1.06944C1.30343 0.944535 1.42535 0.854702 1.56698 0.819697C1.70862 0.784692 1.85835 0.807384 1.98325 0.88278C2.10631 0.95703 5 2.74659 5 7.40441C5 12.0622 2.10631 13.8518 1.98325 13.926C1.85848 13.9982 1.71034 14.0186 1.57073 13.9827C1.43111 13.9467 1.31118 13.8574 1.23675 13.734C1.16231 13.6105 1.13933 13.4628 1.17273 13.3225C1.20614 13.1823 1.29327 13.0608 1.41538 12.9842C1.52538 12.9161 3.9 11.4043 3.9 7.40441Z" fill="black" fill-opacity="0.5"/>
</svg>
