<svg width="18" height="18" viewBox="0 0 18 18" fill="none" xmlns="http://www.w3.org/2000/svg">
<path d="M9.13509 0.00571929C7.94705 -0.0367787 6.76257 0.157914 5.65289 0.578086C4.54321 0.998257 3.53128 1.63522 2.67795 2.45067C1.82463 3.26611 1.14756 4.24318 0.687468 5.32309C0.227378 6.403 -0.00622282 7.56345 0.000719776 8.73461C-0.015178 9.95059 0.232443 11.1559 0.727049 12.2701C1.22165 13.3843 1.95186 14.3817 2.86891 15.1958C2.94208 15.2593 3.00159 15.3366 3.04395 15.4232C3.0863 15.5097 3.11065 15.6038 3.11554 15.6997V17.3015C3.12055 17.4196 3.15462 17.5347 3.21483 17.6369C3.27504 17.7391 3.35957 17.8254 3.46115 17.8883C3.56272 17.9512 3.67829 17.9888 3.7979 17.9978C3.91751 18.0069 4.03756 17.9872 4.14772 17.9404L5.9746 17.1575C6.13059 17.0995 6.30272 17.0995 6.45872 17.1575C7.32232 17.3872 8.21318 17.5022 9.10768 17.4995C11.4624 17.5031 13.7222 16.585 15.3898 14.9471C17.0574 13.3093 17.9964 11.0859 18 8.7661C18.0036 6.44628 17.0717 4.22006 15.4092 2.57717C13.7467 0.934277 11.4898 0.00929926 9.13509 0.00571929ZM14.6157 6.71886L11.9393 10.9123C11.8384 11.0702 11.7053 11.2058 11.5485 11.3104C11.3917 11.4151 11.2146 11.4866 11.0284 11.5204C10.8421 11.5542 10.6507 11.5496 10.4664 11.5069C10.282 11.4642 10.1086 11.3843 9.95718 11.2723L7.81974 9.69748C7.72487 9.62739 7.60948 9.5895 7.4909 9.5895C7.37232 9.5895 7.25693 9.62739 7.16206 9.69748L4.2756 11.8572C4.19522 11.9183 4.09546 11.9493 3.99404 11.9448C3.89263 11.9403 3.79612 11.9005 3.72165 11.8325C3.64718 11.7646 3.59957 11.6728 3.58727 11.5735C3.57497 11.4743 3.59878 11.3739 3.65447 11.2903L6.33084 7.09682C6.43178 6.93893 6.56484 6.80338 6.72164 6.69872C6.87844 6.59406 7.05555 6.52256 7.24181 6.48874C7.42807 6.45491 7.61943 6.4595 7.8038 6.5022C7.98817 6.54491 8.16155 6.62481 8.31299 6.73686L10.4504 8.31166C10.5453 8.38175 10.6607 8.41965 10.7793 8.41965C10.8979 8.41965 11.0132 8.38175 11.1081 8.31166L13.9946 6.15194C14.075 6.09086 14.1747 6.05982 14.2761 6.06434C14.3775 6.06885 14.4741 6.10862 14.5485 6.17659C14.623 6.24457 14.6706 6.33633 14.6829 6.43561C14.6952 6.53488 14.6714 6.63524 14.6157 6.71886Z" fill="#0084FF"/>
</svg>
