<svg width="6" height="15" viewBox="0 0 6 15" fill="none" xmlns="http://www.w3.org/2000/svg">
<path d="M2.1 7.59559C2.1 11.603 4.48356 13.1128 4.58531 13.1753C4.71021 13.2507 4.80005 13.3727 4.83505 13.5143C4.87006 13.6559 4.84736 13.8057 4.77197 13.9306C4.69657 14.0555 4.57465 14.1453 4.43302 14.1803C4.29139 14.2153 4.14165 14.1926 4.01675 14.1172C3.89369 14.043 1 12.2534 1 7.59559C1 2.93778 3.89369 1.14822 4.01675 1.07397C4.14152 1.00176 4.28966 0.981428 4.42927 1.01735C4.56889 1.05326 4.68882 1.14256 4.76325 1.26602C4.83769 1.38948 4.86067 1.53722 4.82727 1.67746C4.79386 1.81769 4.70673 1.93921 4.58463 2.01584C4.47462 2.08391 2.1 3.59572 2.1 7.59559Z" fill="black" fill-opacity="0.5"/>
</svg>
