<svg width="16" height="16" viewBox="0 0 16 16" fill="none" xmlns="http://www.w3.org/2000/svg">
<g clip-path="url(#clip0_7275_9286)">
<path opacity="0.971" fill-rule="evenodd" clip-rule="evenodd" d="M4.20312 -0.015625C6.72397 -0.015625 9.24478 -0.015625 11.7656 -0.015625C11.9876 0.0220543 12.2063 0.0741375 12.4219 0.140625C9.46353 0.140625 6.50522 0.140625 3.54688 0.140625C3.76244 0.0741375 3.98119 0.0220543 4.20312 -0.015625Z" fill="#6F24C4"/>
<path opacity="0.987" fill-rule="evenodd" clip-rule="evenodd" d="M3.54688 0.140625C6.50522 0.140625 9.46353 0.140625 12.4219 0.140625C12.5989 0.168449 12.7656 0.220532 12.9219 0.296875C9.63022 0.296875 6.33853 0.296875 3.04688 0.296875C3.20312 0.220532 3.36981 0.168449 3.54688 0.140625Z" fill="#7123C2"/>
<path opacity="0.992" fill-rule="evenodd" clip-rule="evenodd" d="M3.04688 0.296875C6.33853 0.296875 9.63022 0.296875 12.9219 0.296875C13.1551 0.377106 13.3739 0.481275 13.5781 0.609375C9.84897 0.609375 6.11978 0.609375 2.39062 0.609375C2.59486 0.481275 2.81361 0.377106 3.04688 0.296875Z" fill="#7423BF"/>
<path opacity="0.993" fill-rule="evenodd" clip-rule="evenodd" d="M2.39062 0.609375C6.11978 0.609375 9.84897 0.609375 13.5781 0.609375C13.6929 0.656256 13.7971 0.718756 13.8906 0.796875C9.95312 0.796875 6.01562 0.796875 2.07812 0.796875C2.17168 0.718756 2.27584 0.656256 2.39062 0.609375Z" fill="#7722BC"/>
<path opacity="0.994" fill-rule="evenodd" clip-rule="evenodd" d="M2.07812 0.796875C6.01562 0.796875 9.95312 0.796875 13.8906 0.796875C14.028 0.875784 14.153 0.969534 14.2656 1.07812C10.0781 1.07812 5.89062 1.07812 1.70312 1.07812C1.81574 0.969534 1.94074 0.875784 2.07812 0.796875Z" fill="#7A22B9"/>
<path opacity="0.996" fill-rule="evenodd" clip-rule="evenodd" d="M1.70312 1.07812C5.89062 1.07812 10.0781 1.07812 14.2656 1.07812C14.3393 1.14154 14.4122 1.20404 14.4844 1.26562C10.151 1.26562 5.81772 1.26562 1.48438 1.26562C1.55651 1.20404 1.62942 1.14154 1.70312 1.07812Z" fill="#7D21B6"/>
<path opacity="0.973" fill-rule="evenodd" clip-rule="evenodd" d="M1.48438 1.26562C5.81772 1.26562 10.151 1.26562 14.4844 1.26562C14.6108 1.3607 14.7149 1.47529 14.7969 1.60938C13.7031 1.60938 12.6094 1.60938 11.5156 1.60938C9.16147 1.60938 6.80728 1.60938 4.45312 1.60938C3.35938 1.60938 2.26562 1.60938 1.17188 1.60938C1.25385 1.47529 1.35801 1.3607 1.48438 1.26562Z" fill="#8121B3"/>
<path opacity="0.966" fill-rule="evenodd" clip-rule="evenodd" d="M1.17188 1.60938C2.26562 1.60938 3.35938 1.60938 4.45312 1.60938C4.15969 1.6619 3.86803 1.73482 3.57812 1.82812C2.71354 1.82812 1.84896 1.82812 0.984375 1.82812C1.02439 1.73602 1.08689 1.6631 1.17188 1.60938Z" fill="#8420B0"/>
<path opacity="0.966" fill-rule="evenodd" clip-rule="evenodd" d="M11.5156 1.60938C12.6094 1.60938 13.7031 1.60938 14.7969 1.60938C14.8818 1.6631 14.9443 1.73602 14.9844 1.82812C14.1198 1.82812 13.2552 1.82812 12.3906 1.82812C12.1007 1.73482 11.8091 1.6619 11.5156 1.60938Z" fill="#8420B0"/>
<path opacity="0.974" fill-rule="evenodd" clip-rule="evenodd" d="M0.984375 1.82812C1.84896 1.82812 2.71354 1.82812 3.57812 1.82812C3.41266 1.91085 3.246 1.99418 3.07812 2.07812C2.31771 2.07812 1.55729 2.07812 0.796875 2.07812C0.848338 1.9852 0.910838 1.90187 0.984375 1.82812Z" fill="#8720AD"/>
<path opacity="0.974" fill-rule="evenodd" clip-rule="evenodd" d="M12.3906 1.82812C13.2552 1.82812 14.1198 1.82812 14.9844 1.82812C15.0579 1.90187 15.1204 1.9852 15.1719 2.07812C14.4115 2.07812 13.651 2.07812 12.8906 2.07812C12.7228 1.99418 12.5561 1.91085 12.3906 1.82812Z" fill="#8720AD"/>
<path opacity="0.975" fill-rule="evenodd" clip-rule="evenodd" d="M0.796875 2.07812C1.55729 2.07812 2.31771 2.07812 3.07812 2.07812C2.97026 2.16873 2.85568 2.25206 2.73438 2.32812C2.03646 2.32812 1.33854 2.32812 0.640625 2.32812C0.677509 2.23314 0.729594 2.1498 0.796875 2.07812Z" fill="#8A20AA"/>
<path opacity="0.975" fill-rule="evenodd" clip-rule="evenodd" d="M12.8906 2.07812C13.651 2.07812 14.4115 2.07812 15.1719 2.07812C15.2392 2.1498 15.2912 2.23314 15.3281 2.32812C14.6302 2.32812 13.9323 2.32812 13.2344 2.32812C13.1131 2.25206 12.9985 2.16873 12.8906 2.07812Z" fill="#8A20AA"/>
<path opacity="0.973" fill-rule="evenodd" clip-rule="evenodd" d="M0.640625 2.32812C1.33854 2.32812 2.03646 2.32812 2.73438 2.32812C2.67188 2.41146 2.59896 2.48438 2.51562 2.54688C1.84896 2.54688 1.18229 2.54688 0.515625 2.54688C0.549497 2.46862 0.591163 2.39571 0.640625 2.32812Z" fill="#8E1FA6"/>
<path opacity="0.973" fill-rule="evenodd" clip-rule="evenodd" d="M13.2344 2.32812C13.9323 2.32812 14.6302 2.32812 15.3281 2.32812C15.3776 2.39571 15.4193 2.46862 15.4531 2.54688C14.7865 2.54688 14.1198 2.54688 13.4531 2.54688C13.3698 2.48438 13.2969 2.41146 13.2344 2.32812Z" fill="#8E1FA6"/>
<path opacity="0.975" fill-rule="evenodd" clip-rule="evenodd" d="M0.515625 2.54688C1.18229 2.54688 1.84896 2.54688 2.51562 2.54688C2.47396 2.60938 2.42188 2.66146 2.35938 2.70312C1.72396 2.70312 1.08854 2.70312 0.453125 2.70312C0.462372 2.64366 0.483203 2.59157 0.515625 2.54688Z" fill="#901FA4"/>
<path opacity="0.975" fill-rule="evenodd" clip-rule="evenodd" d="M13.4531 2.54688C14.1198 2.54688 14.7865 2.54688 15.4531 2.54688C15.4855 2.59157 15.5064 2.64366 15.5156 2.70312C14.8802 2.70312 14.2448 2.70312 13.6094 2.70312C13.5469 2.66146 13.4948 2.60938 13.4531 2.54688Z" fill="#901FA4"/>
<path opacity="0.981" fill-rule="evenodd" clip-rule="evenodd" d="M0.453125 2.70312C1.08854 2.70312 1.72396 2.70312 2.35938 2.70312C2.33854 2.73438 2.31771 2.76562 2.29688 2.79688C1.66146 2.79688 1.02604 2.79688 0.390625 2.79688C0.404128 2.75908 0.424959 2.72783 0.453125 2.70312Z" fill="#921FA3"/>
<path opacity="0.981" fill-rule="evenodd" clip-rule="evenodd" d="M13.6094 2.70312C14.2448 2.70312 14.8802 2.70312 15.5156 2.70312C15.5438 2.72783 15.5646 2.75908 15.5781 2.79688C14.9427 2.79688 14.3073 2.79688 13.6719 2.79688C13.651 2.76562 13.6302 2.73438 13.6094 2.70312Z" fill="#921FA3"/>
<path opacity="0.978" fill-rule="evenodd" clip-rule="evenodd" d="M0.390625 2.79688C1.02604 2.79688 1.66146 2.79688 2.29688 2.79688C2.23712 2.86429 2.18504 2.93721 2.14062 3.01562C1.52604 3.01562 0.911459 3.01562 0.296875 3.01562C0.322037 2.94014 0.353287 2.86723 0.390625 2.79688Z" fill="#941EA1"/>
<path opacity="0.978" fill-rule="evenodd" clip-rule="evenodd" d="M13.6719 2.79688C14.3073 2.79688 14.9427 2.79688 15.5781 2.79688C15.6155 2.86723 15.6467 2.94014 15.6719 3.01562C15.0573 3.01562 14.4427 3.01562 13.8281 3.01562C13.7837 2.93721 13.7316 2.86429 13.6719 2.79688Z" fill="#941EA1"/>
<path opacity="0.831" fill-rule="evenodd" clip-rule="evenodd" d="M12.6094 3.0158C12.2865 3.0158 11.9635 3.0158 11.6406 3.0158C11.8736 2.87909 12.1236 2.84263 12.3906 2.90642C12.4775 2.92273 12.5505 2.95919 12.6094 3.0158Z" fill="#941EA0"/>
<path opacity="0.976" fill-rule="evenodd" clip-rule="evenodd" d="M0.296875 3.01562C0.911459 3.01562 1.52604 3.01562 2.14062 3.01562C2.08854 3.09896 2.03646 3.18228 1.98437 3.26562C1.39062 3.26562 0.796875 3.26562 0.203125 3.26562C0.234375 3.18228 0.265625 3.09896 0.296875 3.01562Z" fill="#971E9E"/>
<path opacity="0.954" fill-rule="evenodd" clip-rule="evenodd" d="M11.6406 3.01562C11.9635 3.01562 12.2865 3.01562 12.6094 3.01562C12.7407 3.06354 12.8449 3.14687 12.9219 3.26562C12.3906 3.26562 11.8594 3.26562 11.3281 3.26562C11.4051 3.14687 11.5093 3.06354 11.6406 3.01562Z" fill="#971E9E"/>
<path opacity="0.976" fill-rule="evenodd" clip-rule="evenodd" d="M13.8281 3.01562C14.4427 3.01562 15.0573 3.01562 15.6719 3.01562C15.7031 3.09896 15.7344 3.18228 15.7656 3.26562C15.1719 3.26562 14.5781 3.26562 13.9844 3.26562C13.9323 3.18228 13.8802 3.09896 13.8281 3.01562Z" fill="#971E9E"/>
<path opacity="0.981" fill-rule="evenodd" clip-rule="evenodd" d="M0.203125 3.26562C0.796875 3.26562 1.39062 3.26562 1.98438 3.26562C1.93421 3.35556 1.89254 3.44931 1.85938 3.54688C1.28646 3.54688 0.713541 3.54688 0.140625 3.54688C0.148611 3.45006 0.169444 3.35631 0.203125 3.26562Z" fill="#9A1D9A"/>
<path opacity="0.973" fill-rule="evenodd" clip-rule="evenodd" d="M11.3281 3.26562C11.8594 3.26562 12.3906 3.26562 12.9219 3.26562C12.9976 3.344 13.0497 3.43775 13.0781 3.54688C12.4427 3.54688 11.8073 3.54688 11.1719 3.54688C11.216 3.44809 11.2681 3.35434 11.3281 3.26562Z" fill="#9A1D9A"/>
<path opacity="0.981" fill-rule="evenodd" clip-rule="evenodd" d="M13.9844 3.26562C14.5781 3.26562 15.1719 3.26562 15.7656 3.26562C15.7993 3.35631 15.8201 3.45006 15.8281 3.54688C15.2552 3.54688 14.6823 3.54688 14.1094 3.54688C14.0762 3.44931 14.0345 3.35556 13.9844 3.26562Z" fill="#9A1D9A"/>
<path opacity="0.976" fill-rule="evenodd" clip-rule="evenodd" d="M0.140625 3.54688C0.713541 3.54688 1.28646 3.54688 1.85938 3.54688C1.82517 3.64631 1.78351 3.74006 1.73438 3.82812C1.17188 3.82812 0.609375 3.82812 0.046875 3.82812C0.0737494 3.73025 0.104999 3.6365 0.140625 3.54688Z" fill="#9E1D97"/>
<path opacity="0.983" fill-rule="evenodd" clip-rule="evenodd" d="M11.1719 3.54688C11.8073 3.54688 12.4427 3.54688 13.0781 3.54688C13.1068 3.63803 13.1276 3.73178 13.1406 3.82812C12.474 3.82812 11.8073 3.82812 11.1406 3.82812C11.1409 3.73297 11.1513 3.63922 11.1719 3.54688Z" fill="#9E1D97"/>
<path opacity="0.976" fill-rule="evenodd" clip-rule="evenodd" d="M14.1094 3.54688C14.6823 3.54688 15.2552 3.54688 15.8281 3.54688C15.8637 3.6365 15.895 3.73025 15.9219 3.82812C15.3594 3.82812 14.7969 3.82812 14.2344 3.82812C14.1852 3.74006 14.1436 3.64631 14.1094 3.54688Z" fill="#9E1D97"/>
<path opacity="0.982" fill-rule="evenodd" clip-rule="evenodd" d="M0.046875 3.82812C0.609375 3.82812 1.17188 3.82812 1.73438 3.82812C1.73384 3.89266 1.72342 3.95516 1.70312 4.01562C1.15104 4.01562 0.598959 4.01562 0.046875 4.01562C0.046875 3.95312 0.046875 3.89062 0.046875 3.82812Z" fill="#A11D94"/>
<path opacity="0.858" fill-rule="evenodd" clip-rule="evenodd" d="M9.17188 4.01562C8.38022 4.01562 7.58853 4.01562 6.79688 4.01562C7.58853 3.76562 8.38022 3.76562 9.17188 4.01562Z" fill="#A11D94"/>
<path opacity="0.983" fill-rule="evenodd" clip-rule="evenodd" d="M11.1391 3.82812C11.8058 3.82812 12.4724 3.82812 13.1391 3.82812C13.1483 3.89797 13.1379 3.96047 13.1079 4.01562C12.4516 4.01562 11.7954 4.01562 11.1391 4.01562C11.1255 3.94678 11.1255 3.88428 11.1391 3.82812Z" fill="#A11D94"/>
<path opacity="0.982" fill-rule="evenodd" clip-rule="evenodd" d="M14.2344 3.82812C14.7969 3.82812 15.3594 3.82812 15.9219 3.82812C15.9219 3.89062 15.9219 3.95312 15.9219 4.01562C15.3698 4.01562 14.8177 4.01562 14.2656 4.01562C14.2453 3.95516 14.2349 3.89266 14.2344 3.82812Z" fill="#A11D94"/>
<path opacity="0.977" fill-rule="evenodd" clip-rule="evenodd" d="M0.046875 4.01562C0.598959 4.01562 1.15104 4.01562 1.70312 4.01562C1.68229 4.10938 1.66146 4.20312 1.64062 4.29688C1.08854 4.29688 0.536459 4.29688 -0.015625 4.29688C-0.015625 4.26562 -0.015625 4.23438 -0.015625 4.20312C0.00520834 4.14062 0.0260417 4.07812 0.046875 4.01562Z" fill="#A41C91"/>
<path opacity="0.969" fill-rule="evenodd" clip-rule="evenodd" d="M6.79688 4.01562C7.58853 4.01562 8.38022 4.01562 9.17188 4.01562C9.41816 4.07325 9.64731 4.167 9.85938 4.29688C8.60938 4.29688 7.35938 4.29688 6.10938 4.29688C6.32144 4.167 6.55059 4.07325 6.79688 4.01562Z" fill="#A41C91"/>
<path opacity="0.981" fill-rule="evenodd" clip-rule="evenodd" d="M11.1406 4.01562C11.7969 4.01562 12.4531 4.01562 13.1094 4.01562C13.1123 4.11553 13.0915 4.20928 13.0469 4.29688C12.4427 4.29688 11.8385 4.29688 11.2344 4.29688C11.1727 4.21612 11.1415 4.12237 11.1406 4.01562Z" fill="#A41C91"/>
<path opacity="0.977" fill-rule="evenodd" clip-rule="evenodd" d="M14.2656 4.01562C14.8177 4.01562 15.3698 4.01562 15.9219 4.01562C15.9427 4.07812 15.9635 4.14062 15.9844 4.20312C15.9844 4.23438 15.9844 4.26562 15.9844 4.29688C15.4323 4.29688 14.8802 4.29688 14.3281 4.29688C14.3073 4.20312 14.2865 4.10938 14.2656 4.01562Z" fill="#A41C91"/>
<path opacity="0.975" fill-rule="evenodd" clip-rule="evenodd" d="M-0.015625 4.29688C0.536459 4.29688 1.08854 4.29688 1.64062 4.29688C1.64952 4.35672 1.6391 4.40878 1.60938 4.45312C1.06771 4.45312 0.526041 4.45312 -0.015625 4.45312C-0.015625 4.40103 -0.015625 4.34897 -0.015625 4.29688Z" fill="#A71C8E"/>
<path opacity="0.983" fill-rule="evenodd" clip-rule="evenodd" d="M6.10938 4.29688C7.35938 4.29688 8.60938 4.29688 9.85938 4.29688C9.9685 4.32531 10.0623 4.37737 10.1406 4.45312C8.70312 4.45312 7.26562 4.45312 5.82812 4.45312C5.9065 4.37737 6.00025 4.32531 6.10938 4.29688Z" fill="#A71C8E"/>
<path opacity="0.974" fill-rule="evenodd" clip-rule="evenodd" d="M11.2344 4.29688C11.8385 4.29688 12.4427 4.29688 13.0469 4.29688C13.023 4.35525 12.9918 4.40734 12.9531 4.45312C12.4115 4.45312 11.8698 4.45312 11.3281 4.45312C11.2734 4.41691 11.2422 4.36481 11.2344 4.29688Z" fill="#A71C8E"/>
<path opacity="0.975" fill-rule="evenodd" clip-rule="evenodd" d="M14.3273 4.29688C14.8794 4.29688 15.4314 4.29688 15.9835 4.29688C15.9835 4.34897 15.9835 4.40103 15.9835 4.45312C15.4419 4.45312 14.9002 4.45312 14.3585 4.45312C14.3288 4.40878 14.3184 4.35672 14.3273 4.29688Z" fill="#A71C8E"/>
<path opacity="0.991" fill-rule="evenodd" clip-rule="evenodd" d="M-0.015625 4.45312C0.526041 4.45312 1.06771 4.45312 1.60938 4.45312C1.60938 4.56772 1.60938 4.68228 1.60938 4.79688C1.06771 4.79688 0.526041 4.79688 -0.015625 4.79688C-0.015625 4.68228 -0.015625 4.56772 -0.015625 4.45312Z" fill="#AA1B8B"/>
<path opacity="0.987" fill-rule="evenodd" clip-rule="evenodd" d="M5.82812 4.45312C7.26562 4.45312 8.70312 4.45312 10.1406 4.45312C10.3246 4.54353 10.4913 4.65812 10.6406 4.79688C8.86978 4.79688 7.09897 4.79688 5.32812 4.79688C5.47744 4.65812 5.64412 4.54353 5.82812 4.45312Z" fill="#AA1B8B"/>
<path opacity="0.949" fill-rule="evenodd" clip-rule="evenodd" d="M11.3281 4.45312C11.8698 4.45312 12.4115 4.45312 12.9531 4.45312C12.8441 4.61419 12.6983 4.72878 12.5156 4.79688C12.2656 4.79688 12.0156 4.79688 11.7656 4.79688C11.5646 4.75209 11.4188 4.6375 11.3281 4.45312Z" fill="#AA1B8B"/>
<path opacity="0.991" fill-rule="evenodd" clip-rule="evenodd" d="M14.3594 4.45312C14.901 4.45312 15.4427 4.45312 15.9844 4.45312C15.9844 4.56772 15.9844 4.68228 15.9844 4.79688C15.4427 4.79688 14.901 4.79688 14.3594 4.79688C14.3594 4.68228 14.3594 4.56772 14.3594 4.45312Z" fill="#AA1B8B"/>
<path opacity="0.99" fill-rule="evenodd" clip-rule="evenodd" d="M-0.015625 4.79688C0.526041 4.79688 1.06771 4.79688 1.60938 4.79688C1.60938 4.83853 1.60938 4.88022 1.60938 4.92188C1.06771 4.92188 0.526041 4.92188 -0.015625 4.92188C-0.015625 4.88022 -0.015625 4.83853 -0.015625 4.79688Z" fill="#AD1B88"/>
<path opacity="0.989" fill-rule="evenodd" clip-rule="evenodd" d="M5.32812 4.79688C7.09897 4.79688 8.86978 4.79688 10.6406 4.79688C10.6927 4.82812 10.7344 4.86978 10.7656 4.92188C8.91147 4.92188 7.05728 4.92188 5.20312 4.92188C5.23438 4.86978 5.27603 4.82812 5.32812 4.79688Z" fill="#AD1B88"/>
<path opacity="0.699" fill-rule="evenodd" clip-rule="evenodd" d="M11.7656 4.79688C12.0156 4.79688 12.2656 4.79688 12.5156 4.79688C12.2653 4.91897 12.0153 4.91897 11.7656 4.79688Z" fill="#AD1C89"/>
<path opacity="0.99" fill-rule="evenodd" clip-rule="evenodd" d="M14.3594 4.79688C14.901 4.79688 15.4427 4.79688 15.9844 4.79688C15.9844 4.83853 15.9844 4.88022 15.9844 4.92188C15.4427 4.92188 14.901 4.92188 14.3594 4.92188C14.3594 4.88022 14.3594 4.83853 14.3594 4.79688Z" fill="#AD1B88"/>
<path opacity="0.99" fill-rule="evenodd" clip-rule="evenodd" d="M-0.015625 4.92188C0.526041 4.92188 1.06771 4.92188 1.60938 4.92188C1.60938 5.04688 1.60938 5.17188 1.60938 5.29688C1.06771 5.29688 0.526041 5.29688 -0.015625 5.29688C-0.015625 5.17188 -0.015625 5.04688 -0.015625 4.92188Z" fill="#B01B85"/>
<path opacity="0.992" fill-rule="evenodd" clip-rule="evenodd" d="M5.20312 4.92188C7.05728 4.92188 8.91147 4.92188 10.7656 4.92188C10.9041 5.03075 11.0291 5.15575 11.1406 5.29688C9.03647 5.29688 6.93228 5.29688 4.82812 5.29688C4.93969 5.15575 5.06469 5.03075 5.20312 4.92188Z" fill="#B01B85"/>
<path opacity="0.99" fill-rule="evenodd" clip-rule="evenodd" d="M14.3594 4.92188C14.901 4.92188 15.4427 4.92188 15.9844 4.92188C15.9844 5.04688 15.9844 5.17188 15.9844 5.29688C15.4427 5.29688 14.901 5.29688 14.3594 5.29688C14.3594 5.17188 14.3594 5.04688 14.3594 4.92188Z" fill="#B01B85"/>
<path opacity="0.99" fill-rule="evenodd" clip-rule="evenodd" d="M-0.015625 5.29688C0.526041 5.29688 1.06771 5.29688 1.60938 5.29688C1.60938 5.35938 1.60938 5.42188 1.60938 5.48438C1.06771 5.48438 0.526041 5.48438 -0.015625 5.48438C-0.015625 5.42188 -0.015625 5.35938 -0.015625 5.29688Z" fill="#B41A82"/>
<path opacity="0.981" fill-rule="evenodd" clip-rule="evenodd" d="M4.82812 5.29688C6.93228 5.29688 9.03647 5.29688 11.1406 5.29688C11.1924 5.35813 11.2445 5.42063 11.2969 5.48438C10.3073 5.48438 9.31772 5.48438 8.32812 5.48438C8.09897 5.48438 7.86978 5.48438 7.64062 5.48438C6.65103 5.48438 5.66147 5.48438 4.67188 5.48438C4.72428 5.42063 4.77637 5.35813 4.82812 5.29688Z" fill="#B41A82"/>
<path opacity="0.99" fill-rule="evenodd" clip-rule="evenodd" d="M14.3594 5.29688C14.901 5.29688 15.4427 5.29688 15.9844 5.29688C15.9844 5.35938 15.9844 5.42188 15.9844 5.48438C15.4427 5.48438 14.901 5.48438 14.3594 5.48438C14.3594 5.42188 14.3594 5.35938 14.3594 5.29688Z" fill="#B41A82"/>
<path opacity="0.99" fill-rule="evenodd" clip-rule="evenodd" d="M-0.015625 5.48438C0.526041 5.48438 1.06771 5.48438 1.60938 5.48438C1.60938 5.59897 1.60938 5.71353 1.60938 5.82812C1.06771 5.82812 0.526041 5.82812 -0.015625 5.82812C-0.015625 5.71353 -0.015625 5.59897 -0.015625 5.48438Z" fill="#B81A7E"/>
<path opacity="0.967" fill-rule="evenodd" clip-rule="evenodd" d="M4.67188 5.48438C5.66147 5.48438 6.65103 5.48438 7.64062 5.48438C7.30525 5.55456 6.98231 5.66916 6.67188 5.82812C5.93228 5.82812 5.19272 5.82812 4.45312 5.82812C4.51287 5.70572 4.58578 5.59116 4.67188 5.48438Z" fill="#B71A7E"/>
<path opacity="0.967" fill-rule="evenodd" clip-rule="evenodd" d="M8.32812 5.48438C9.31772 5.48438 10.3073 5.48438 11.2969 5.48438C11.383 5.59116 11.4559 5.70572 11.5156 5.82812C10.776 5.82812 10.0365 5.82812 9.29688 5.82812C8.98644 5.66916 8.6635 5.55456 8.32812 5.48438Z" fill="#B71A7E"/>
<path opacity="0.99" fill-rule="evenodd" clip-rule="evenodd" d="M14.3594 5.48438C14.901 5.48438 15.4427 5.48438 15.9844 5.48438C15.9844 5.59897 15.9844 5.71353 15.9844 5.82812C15.4427 5.82812 14.901 5.82812 14.3594 5.82812C14.3594 5.71353 14.3594 5.59897 14.3594 5.48438Z" fill="#B81A7E"/>
<path opacity="0.99" fill-rule="evenodd" clip-rule="evenodd" d="M-0.015625 5.82812C0.526041 5.82812 1.06771 5.82812 1.60938 5.82812C1.60938 5.85938 1.60938 5.89062 1.60938 5.92188C1.06771 5.92188 0.526041 5.92188 -0.015625 5.92188C-0.015625 5.89062 -0.015625 5.85938 -0.015625 5.82812Z" fill="#BA1A7C"/>
<path opacity="0.975" fill-rule="evenodd" clip-rule="evenodd" d="M4.45312 5.82812C5.19272 5.82812 5.93228 5.82812 6.67188 5.82812C6.64263 5.87419 6.60094 5.90544 6.54688 5.92188C5.82812 5.92188 5.10938 5.92188 4.39062 5.92188C4.40413 5.88406 4.42497 5.85281 4.45312 5.82812Z" fill="#BA1A7C"/>
<path opacity="0.975" fill-rule="evenodd" clip-rule="evenodd" d="M9.29688 5.82812C10.0365 5.82812 10.776 5.82812 11.5156 5.82812C11.5438 5.85281 11.5646 5.88406 11.5781 5.92188C10.8594 5.92188 10.1406 5.92188 9.42188 5.92188C9.36781 5.90544 9.32612 5.87419 9.29688 5.82812Z" fill="#BA1A7C"/>
<path opacity="0.99" fill-rule="evenodd" clip-rule="evenodd" d="M14.3594 5.82812C14.901 5.82812 15.4427 5.82812 15.9844 5.82812C15.9844 5.85938 15.9844 5.89062 15.9844 5.92188C15.4427 5.92188 14.901 5.92188 14.3594 5.92188C14.3594 5.89062 14.3594 5.85938 14.3594 5.82812Z" fill="#BA1A7C"/>
<path opacity="0.99" fill-rule="evenodd" clip-rule="evenodd" d="M-0.015625 5.92188C0.526041 5.92188 1.06771 5.92188 1.60938 5.92188C1.60938 6.05728 1.60938 6.19272 1.60938 6.32812C1.06771 6.32812 0.526041 6.32812 -0.015625 6.32812C-0.015625 6.19272 -0.015625 6.05728 -0.015625 5.92188Z" fill="#BE1978"/>
<path opacity="0.977" fill-rule="evenodd" clip-rule="evenodd" d="M4.39062 5.92188C5.10938 5.92188 5.82812 5.92188 6.54688 5.92188C6.38219 6.04472 6.22594 6.18012 6.07812 6.32812C5.44272 6.32812 4.80728 6.32812 4.17188 6.32812C4.23734 6.18666 4.31025 6.05122 4.39062 5.92188Z" fill="#BD1978"/>
<path opacity="0.977" fill-rule="evenodd" clip-rule="evenodd" d="M9.42188 5.92188C10.1406 5.92188 10.8594 5.92188 11.5781 5.92188C11.6585 6.05122 11.7314 6.18666 11.7969 6.32812C11.1615 6.32812 10.526 6.32812 9.89062 6.32812C9.74281 6.18012 9.58656 6.04472 9.42188 5.92188Z" fill="#BD1978"/>
<path opacity="0.99" fill-rule="evenodd" clip-rule="evenodd" d="M14.3594 5.92188C14.901 5.92188 15.4427 5.92188 15.9844 5.92188C15.9844 6.05728 15.9844 6.19272 15.9844 6.32812C15.4427 6.32812 14.901 6.32812 14.3594 6.32812C14.3594 6.19272 14.3594 6.05728 14.3594 5.92188Z" fill="#BE1978"/>
<path opacity="0.99" fill-rule="evenodd" clip-rule="evenodd" d="M-0.015625 6.32812C0.526041 6.32812 1.06771 6.32812 1.60938 6.32812C1.60938 6.34897 1.60938 6.36978 1.60938 6.39062C1.06771 6.39062 0.526041 6.39062 -0.015625 6.39062C-0.015625 6.36978 -0.015625 6.34897 -0.015625 6.32812Z" fill="#C01975"/>
<path opacity="0.98" fill-rule="evenodd" clip-rule="evenodd" d="M4.17187 6.32812C4.80728 6.32812 5.44272 6.32812 6.07812 6.32812C6.06772 6.34897 6.05728 6.36978 6.04687 6.39062C5.41147 6.39062 4.77603 6.39062 4.14062 6.39062C4.15103 6.36978 4.16147 6.34897 4.17187 6.32812Z" fill="#C01975"/>
<path opacity="0.98" fill-rule="evenodd" clip-rule="evenodd" d="M9.89062 6.32812C10.526 6.32812 11.1615 6.32812 11.7969 6.32812C11.8073 6.34897 11.8177 6.36978 11.8281 6.39062C11.1927 6.39062 10.5573 6.39062 9.92187 6.39062C9.91147 6.36978 9.90103 6.34897 9.89062 6.32812Z" fill="#C01975"/>
<path opacity="0.99" fill-rule="evenodd" clip-rule="evenodd" d="M14.3594 6.32812C14.901 6.32812 15.4427 6.32812 15.9844 6.32812C15.9844 6.34897 15.9844 6.36978 15.9844 6.39062C15.4427 6.39062 14.901 6.39062 14.3594 6.39062C14.3594 6.36978 14.3594 6.34897 14.3594 6.32812Z" fill="#C01975"/>
<path opacity="0.99" fill-rule="evenodd" clip-rule="evenodd" d="M-0.015625 6.39062C0.526041 6.39062 1.06771 6.39062 1.60938 6.39062C1.60938 6.58853 1.60938 6.78647 1.60938 6.98438C1.06771 6.98438 0.526041 6.98438 -0.015625 6.98438C-0.015625 6.78647 -0.015625 6.58853 -0.015625 6.39062Z" fill="#C21B72"/>
<path opacity="0.974" fill-rule="evenodd" clip-rule="evenodd" d="M4.14062 6.39062C4.77603 6.39062 5.41147 6.39062 6.04688 6.39062C5.898 6.57384 5.773 6.77178 5.67188 6.98438C5.09897 6.98438 4.52603 6.98438 3.95312 6.98438C4.00313 6.78228 4.06562 6.58437 4.14062 6.39062Z" fill="#C21B72"/>
<path opacity="0.974" fill-rule="evenodd" clip-rule="evenodd" d="M9.92188 6.39062C10.5573 6.39062 11.1927 6.39062 11.8281 6.39062C11.9031 6.58437 11.9656 6.78228 12.0156 6.98438C11.4427 6.98438 10.8698 6.98438 10.2969 6.98438C10.1957 6.77178 10.0707 6.57384 9.92188 6.39062Z" fill="#C21B72"/>
<path opacity="0.99" fill-rule="evenodd" clip-rule="evenodd" d="M14.3594 6.39062C14.901 6.39062 15.4427 6.39062 15.9844 6.39062C15.9844 6.58853 15.9844 6.78647 15.9844 6.98438C15.4427 6.98438 14.901 6.98438 14.3594 6.98438C14.3594 6.78647 14.3594 6.58853 14.3594 6.39062Z" fill="#C21B72"/>
<path opacity="0.99" fill-rule="evenodd" clip-rule="evenodd" d="M-0.015625 6.98438C0.526041 6.98438 1.06771 6.98438 1.60938 6.98438C1.60938 7.00522 1.60938 7.02603 1.60938 7.04688C1.06771 7.04688 0.526041 7.04688 -0.015625 7.04688C-0.015625 7.02603 -0.015625 7.00522 -0.015625 6.98438Z" fill="#C21F6F"/>
<path opacity="0.979" fill-rule="evenodd" clip-rule="evenodd" d="M3.95312 6.98438C4.52603 6.98438 5.09897 6.98438 5.67187 6.98438C5.67725 7.01537 5.66681 7.03619 5.64062 7.04688C5.07812 7.04688 4.51562 7.04688 3.95312 7.04688C3.95312 7.02603 3.95312 7.00522 3.95312 6.98438Z" fill="#C21F6F"/>
<path opacity="0.979" fill-rule="evenodd" clip-rule="evenodd" d="M10.2982 6.98438C10.8712 6.98438 11.4441 6.98438 12.017 6.98438C12.017 7.00522 12.017 7.02603 12.017 7.04688C11.4545 7.04688 10.892 7.04688 10.3295 7.04688C10.3033 7.03619 10.2929 7.01537 10.2982 6.98438Z" fill="#C21F6F"/>
<path opacity="0.99" fill-rule="evenodd" clip-rule="evenodd" d="M14.3594 6.98438C14.901 6.98438 15.4427 6.98438 15.9844 6.98438C15.9844 7.00522 15.9844 7.02603 15.9844 7.04688C15.4427 7.04688 14.901 7.04688 14.3594 7.04688C14.3594 7.02603 14.3594 7.00522 14.3594 6.98438Z" fill="#C21F6F"/>
<path opacity="0.99" fill-rule="evenodd" clip-rule="evenodd" d="M-0.015625 7.04688C0.526041 7.04688 1.06771 7.04688 1.60938 7.04688C1.60938 7.23438 1.60938 7.42188 1.60938 7.60938C1.06771 7.60938 0.526041 7.60938 -0.015625 7.60938C-0.015625 7.42188 -0.015625 7.23438 -0.015625 7.04688Z" fill="#C3226D"/>
<path opacity="0.978" fill-rule="evenodd" clip-rule="evenodd" d="M3.95312 7.04688C4.51562 7.04688 5.07812 7.04688 5.64062 7.04688C5.57963 7.22991 5.53797 7.41741 5.51562 7.60938C4.96353 7.60938 4.41147 7.60938 3.85938 7.60938C3.86425 7.41353 3.8955 7.22603 3.95312 7.04688Z" fill="#C3226D"/>
<path opacity="0.978" fill-rule="evenodd" clip-rule="evenodd" d="M10.3281 7.04688C10.8906 7.04688 11.4531 7.04688 12.0156 7.04688C12.0733 7.22603 12.1045 7.41353 12.1094 7.60938C11.5573 7.60938 11.0052 7.60938 10.4531 7.60938C10.4308 7.41741 10.3891 7.22991 10.3281 7.04688Z" fill="#C3226D"/>
<path opacity="0.99" fill-rule="evenodd" clip-rule="evenodd" d="M14.3594 7.04688C14.901 7.04688 15.4427 7.04688 15.9844 7.04688C15.9844 7.23438 15.9844 7.42188 15.9844 7.60938C15.4427 7.60938 14.901 7.60938 14.3594 7.60938C14.3594 7.42188 14.3594 7.23438 14.3594 7.04688Z" fill="#C3226D"/>
<path opacity="0.99" fill-rule="evenodd" clip-rule="evenodd" d="M-0.015625 7.60938C0.526041 7.60938 1.06771 7.60938 1.60938 7.60938C1.60938 7.63022 1.60938 7.65103 1.60938 7.67188C1.06771 7.67188 0.526041 7.67188 -0.015625 7.67188C-0.015625 7.65103 -0.015625 7.63022 -0.015625 7.60938Z" fill="#C2266A"/>
<path opacity="0.986" fill-rule="evenodd" clip-rule="evenodd" d="M3.85938 7.60938C4.41147 7.60938 4.96353 7.60938 5.51562 7.60938C5.50522 7.63022 5.49478 7.65103 5.48438 7.67188C4.94272 7.67188 4.40103 7.67188 3.85938 7.67188C3.85938 7.65103 3.85938 7.63022 3.85938 7.60938Z" fill="#C2266A"/>
<path opacity="0.986" fill-rule="evenodd" clip-rule="evenodd" d="M10.4531 7.60938C11.0052 7.60938 11.5573 7.60938 12.1094 7.60938C12.1094 7.63022 12.1094 7.65103 12.1094 7.67188C11.5677 7.67188 11.026 7.67188 10.4844 7.67188C10.474 7.65103 10.4635 7.63022 10.4531 7.60938Z" fill="#C2266A"/>
<path opacity="0.99" fill-rule="evenodd" clip-rule="evenodd" d="M14.3594 7.60938C14.901 7.60938 15.4427 7.60938 15.9844 7.60938C15.9844 7.63022 15.9844 7.65103 15.9844 7.67188C15.4427 7.67188 14.901 7.67188 14.3594 7.67188C14.3594 7.65103 14.3594 7.63022 14.3594 7.60938Z" fill="#C2266A"/>
<path opacity="0.99" fill-rule="evenodd" clip-rule="evenodd" d="M-0.015625 7.67188C0.526041 7.67188 1.06771 7.67188 1.60938 7.67188C1.60938 7.83853 1.60938 8.00522 1.60938 8.17188C1.06771 8.17188 0.526041 8.17188 -0.015625 8.17188C-0.015625 8.00522 -0.015625 7.83853 -0.015625 7.67188Z" fill="#C32868"/>
<path opacity="0.974" fill-rule="evenodd" clip-rule="evenodd" d="M3.86162 7.67188C4.40328 7.67188 4.94497 7.67188 5.48662 7.67188C5.48662 7.83853 5.48662 8.00522 5.48662 8.17188C4.93453 8.17188 4.38247 8.17188 3.83037 8.17188C3.82309 8.00328 3.8335 7.83662 3.86162 7.67188Z" fill="#C32868"/>
<path opacity="0.974" fill-rule="evenodd" clip-rule="evenodd" d="M10.4844 7.67188C11.026 7.67188 11.5677 7.67188 12.1094 7.67188C12.1375 7.83662 12.1479 8.00328 12.1406 8.17188C11.5885 8.17188 11.0365 8.17188 10.4844 8.17188C10.4844 8.00522 10.4844 7.83853 10.4844 7.67188Z" fill="#C32868"/>
<path opacity="0.99" fill-rule="evenodd" clip-rule="evenodd" d="M14.3594 7.67188C14.901 7.67188 15.4427 7.67188 15.9844 7.67188C15.9844 7.83853 15.9844 8.00522 15.9844 8.17188C15.4427 8.17188 14.901 8.17188 14.3594 8.17188C14.3594 8.00522 14.3594 7.83853 14.3594 7.67188Z" fill="#C32868"/>
<path opacity="0.99" fill-rule="evenodd" clip-rule="evenodd" d="M-0.015625 8.17188C0.526041 8.17188 1.06771 8.17188 1.60938 8.17188C1.60938 8.28647 1.60938 8.40103 1.60938 8.51562C1.06771 8.51562 0.526041 8.51562 -0.015625 8.51562C-0.015625 8.40103 -0.015625 8.28647 -0.015625 8.17188Z" fill="#C42D65"/>
<path opacity="0.983" fill-rule="evenodd" clip-rule="evenodd" d="M3.82812 8.17188C4.38022 8.17188 4.93228 8.17188 5.48438 8.17188C5.49819 8.28606 5.50863 8.40066 5.51562 8.51562C4.96353 8.51562 4.41147 8.51562 3.85938 8.51562C3.86491 8.39894 3.8545 8.28434 3.82812 8.17188Z" fill="#C42D64"/>
<path opacity="0.983" fill-rule="evenodd" clip-rule="evenodd" d="M10.4844 8.17188C11.0365 8.17188 11.5885 8.17188 12.1406 8.17188C12.1142 8.28434 12.1038 8.39894 12.1094 8.51562C11.5573 8.51562 11.0052 8.51562 10.4531 8.51562C10.4601 8.40066 10.4706 8.28606 10.4844 8.17188Z" fill="#C42D64"/>
<path opacity="0.99" fill-rule="evenodd" clip-rule="evenodd" d="M14.3594 8.17188C14.901 8.17188 15.4427 8.17188 15.9844 8.17188C15.9844 8.28647 15.9844 8.40103 15.9844 8.51562C15.4427 8.51562 14.901 8.51562 14.3594 8.51562C14.3594 8.40103 14.3594 8.28647 14.3594 8.17188Z" fill="#C42D65"/>
<path opacity="0.99" fill-rule="evenodd" clip-rule="evenodd" d="M-0.015625 8.51562C0.526041 8.51562 1.06771 8.51562 1.60938 8.51562C1.60938 8.58853 1.60938 8.66147 1.60938 8.73438C1.06771 8.73438 0.526041 8.73438 -0.015625 8.73438C-0.015625 8.66147 -0.015625 8.58853 -0.015625 8.51562Z" fill="#C43062"/>
<path opacity="0.977" fill-rule="evenodd" clip-rule="evenodd" d="M3.85938 8.51562C4.41147 8.51562 4.96353 8.51562 5.51562 8.51562C5.55037 8.58122 5.57122 8.65416 5.57812 8.73438C5.01562 8.73438 4.45312 8.73438 3.89062 8.73438C3.89225 8.65928 3.88184 8.58637 3.85938 8.51562Z" fill="#C43062"/>
<path opacity="0.977" fill-rule="evenodd" clip-rule="evenodd" d="M10.4531 8.51562C11.0052 8.51562 11.5573 8.51562 12.1094 8.51562C12.0869 8.58637 12.0765 8.65928 12.0781 8.73438C11.5156 8.73438 10.9531 8.73438 10.3906 8.73438C10.3975 8.65416 10.4184 8.58122 10.4531 8.51562Z" fill="#C43062"/>
<path opacity="0.99" fill-rule="evenodd" clip-rule="evenodd" d="M14.3594 8.51562C14.901 8.51562 15.4427 8.51562 15.9844 8.51562C15.9844 8.58853 15.9844 8.66147 15.9844 8.73438C15.4427 8.73438 14.901 8.73438 14.3594 8.73438C14.3594 8.66147 14.3594 8.58853 14.3594 8.51562Z" fill="#C43062"/>
<path opacity="0.99" fill-rule="evenodd" clip-rule="evenodd" d="M-0.015625 8.73438C0.526041 8.73438 1.06771 8.73438 1.60938 8.73438C1.60938 8.90103 1.60938 9.06772 1.60938 9.23438C1.06771 9.23438 0.526041 9.23438 -0.015625 9.23438C-0.015625 9.06772 -0.015625 8.90103 -0.015625 8.73438Z" fill="#C4345F"/>
<path opacity="0.975" fill-rule="evenodd" clip-rule="evenodd" d="M3.89062 8.73438C4.45312 8.73438 5.01562 8.73438 5.57812 8.73438C5.64984 8.89891 5.72275 9.06556 5.79688 9.23438C5.20312 9.23438 4.60938 9.23438 4.01562 9.23438C3.97378 9.06706 3.93212 8.90037 3.89062 8.73438Z" fill="#C4345F"/>
<path opacity="0.975" fill-rule="evenodd" clip-rule="evenodd" d="M10.3906 8.73438C10.9531 8.73438 11.5156 8.73438 12.0781 8.73438C12.0366 8.90037 11.995 9.06706 11.9531 9.23438C11.3594 9.23438 10.7656 9.23438 10.1719 9.23438C10.246 9.06556 10.3189 8.89891 10.3906 8.73438Z" fill="#C4345F"/>
<path opacity="0.99" fill-rule="evenodd" clip-rule="evenodd" d="M14.3594 8.73438C14.901 8.73438 15.4427 8.73438 15.9844 8.73438C15.9844 8.90103 15.9844 9.06772 15.9844 9.23438C15.4427 9.23438 14.901 9.23438 14.3594 9.23438C14.3594 9.06772 14.3594 8.90103 14.3594 8.73438Z" fill="#C4345F"/>
<path opacity="0.99" fill-rule="evenodd" clip-rule="evenodd" d="M-0.015625 9.23438C0.526041 9.23438 1.06771 9.23438 1.60938 9.23438C1.60938 9.27603 1.60938 9.31772 1.60938 9.35938C1.06771 9.35938 0.526041 9.35938 -0.015625 9.35938C-0.015625 9.31772 -0.015625 9.27603 -0.015625 9.23438Z" fill="#C5375D"/>
<path opacity="0.973" fill-rule="evenodd" clip-rule="evenodd" d="M4.01562 9.23438C4.60938 9.23438 5.20312 9.23438 5.79688 9.23438C5.82775 9.27484 5.859 9.3165 5.89062 9.35938C5.28647 9.35938 4.68228 9.35938 4.07812 9.35938C4.05172 9.32278 4.03091 9.28109 4.01562 9.23438Z" fill="#C5375D"/>
<path opacity="0.973" fill-rule="evenodd" clip-rule="evenodd" d="M10.1719 9.23438C10.7656 9.23438 11.3594 9.23438 11.9531 9.23438C11.9378 9.28109 11.917 9.32278 11.8906 9.35938C11.2865 9.35938 10.6823 9.35938 10.0781 9.35938C10.1097 9.3165 10.141 9.27484 10.1719 9.23438Z" fill="#C5375D"/>
<path opacity="0.99" fill-rule="evenodd" clip-rule="evenodd" d="M14.3594 9.23438C14.901 9.23438 15.4427 9.23438 15.9844 9.23438C15.9844 9.27603 15.9844 9.31772 15.9844 9.35938C15.4427 9.35938 14.901 9.35938 14.3594 9.35938C14.3594 9.31772 14.3594 9.27603 14.3594 9.23438Z" fill="#C5375D"/>
<path opacity="0.99" fill-rule="evenodd" clip-rule="evenodd" d="M-0.015625 9.35938C0.526041 9.35938 1.06771 9.35938 1.60938 9.35938C1.60938 9.55728 1.60938 9.75522 1.60938 9.95312C1.06771 9.95312 0.526041 9.95312 -0.015625 9.95312C-0.015625 9.75522 -0.015625 9.55728 -0.015625 9.35938Z" fill="#C53B59"/>
<path opacity="0.978" fill-rule="evenodd" clip-rule="evenodd" d="M4.07812 9.35938C4.68228 9.35938 5.28647 9.35938 5.89062 9.35938C6.03475 9.58681 6.21184 9.78475 6.42188 9.95312C5.72397 9.95312 5.02603 9.95312 4.32812 9.95312C4.21903 9.76616 4.13569 9.56822 4.07812 9.35938Z" fill="#C53B59"/>
<path opacity="0.978" fill-rule="evenodd" clip-rule="evenodd" d="M10.0781 9.35938C10.6823 9.35938 11.2865 9.35938 11.8906 9.35938C11.8331 9.56822 11.7497 9.76616 11.6406 9.95312C10.9427 9.95312 10.2448 9.95312 9.54688 9.95312C9.75691 9.78475 9.934 9.58681 10.0781 9.35938Z" fill="#C53B59"/>
<path opacity="0.99" fill-rule="evenodd" clip-rule="evenodd" d="M14.3594 9.35938C14.901 9.35938 15.4427 9.35938 15.9844 9.35938C15.9844 9.55728 15.9844 9.75522 15.9844 9.95312C15.4427 9.95312 14.901 9.95312 14.3594 9.95312C14.3594 9.75522 14.3594 9.55728 14.3594 9.35938Z" fill="#C53B59"/>
<path opacity="0.99" fill-rule="evenodd" clip-rule="evenodd" d="M-0.015625 9.95312C0.526041 9.95312 1.06771 9.95312 1.60938 9.95312C1.60938 10.1302 1.60938 10.3073 1.60938 10.4844C1.06771 10.4844 0.526041 10.4844 -0.015625 10.4844C-0.015625 10.3073 -0.015625 10.1302 -0.015625 9.95312Z" fill="#C64155"/>
<path opacity="0.969" fill-rule="evenodd" clip-rule="evenodd" d="M4.32812 9.95312C5.02603 9.95312 5.72397 9.95312 6.42188 9.95312C6.78872 10.2252 7.19497 10.4023 7.64062 10.4844C6.65103 10.4844 5.66147 10.4844 4.67188 10.4844C4.54497 10.3157 4.43041 10.1386 4.32812 9.95312Z" fill="#C64155"/>
<path opacity="0.969" fill-rule="evenodd" clip-rule="evenodd" d="M9.54688 9.95312C10.2448 9.95312 10.9427 9.95312 11.6406 9.95312C11.5383 10.1386 11.4238 10.3157 11.2969 10.4844C10.3073 10.4844 9.31772 10.4844 8.32812 10.4844C8.77378 10.4023 9.18003 10.2252 9.54688 9.95312Z" fill="#C64155"/>
<path opacity="0.99" fill-rule="evenodd" clip-rule="evenodd" d="M14.3594 9.95312C14.901 9.95312 15.4427 9.95312 15.9844 9.95312C15.9844 10.1302 15.9844 10.3073 15.9844 10.4844C15.4427 10.4844 14.901 10.4844 14.3594 10.4844C14.3594 10.3073 14.3594 10.1302 14.3594 9.95312Z" fill="#C64155"/>
<path opacity="0.99" fill-rule="evenodd" clip-rule="evenodd" d="M-0.015625 10.4844C0.526041 10.4844 1.06771 10.4844 1.60938 10.4844C1.60938 10.5365 1.60938 10.5885 1.60938 10.6406C1.06771 10.6406 0.526041 10.6406 -0.015625 10.6406C-0.015625 10.5885 -0.015625 10.5365 -0.015625 10.4844Z" fill="#C64552"/>
<path opacity="0.98" fill-rule="evenodd" clip-rule="evenodd" d="M4.67188 10.4844C5.66147 10.4844 6.65103 10.4844 7.64062 10.4844C7.86978 10.4844 8.09897 10.4844 8.32812 10.4844C9.31772 10.4844 10.3073 10.4844 11.2969 10.4844C11.2543 10.5372 11.2126 10.5893 11.1719 10.6406C9.04688 10.6406 6.92188 10.6406 4.79688 10.6406C4.75616 10.5893 4.7145 10.5372 4.67188 10.4844Z" fill="#C64552"/>
<path opacity="0.99" fill-rule="evenodd" clip-rule="evenodd" d="M14.3594 10.4844C14.901 10.4844 15.4427 10.4844 15.9844 10.4844C15.9844 10.5365 15.9844 10.5885 15.9844 10.6406C15.4427 10.6406 14.901 10.6406 14.3594 10.6406C14.3594 10.5885 14.3594 10.5365 14.3594 10.4844Z" fill="#C64552"/>
<path opacity="0.99" fill-rule="evenodd" clip-rule="evenodd" d="M-0.015625 10.6406C0.526041 10.6406 1.06771 10.6406 1.60938 10.6406C1.60938 10.776 1.60938 10.9115 1.60938 11.0469C1.06771 11.0469 0.526041 11.0469 -0.015625 11.0469C-0.015625 10.9115 -0.015625 10.776 -0.015625 10.6406Z" fill="#C6484F"/>
<path opacity="0.992" fill-rule="evenodd" clip-rule="evenodd" d="M4.79688 10.6406C6.92188 10.6406 9.04688 10.6406 11.1719 10.6406C11.0452 10.7882 10.9098 10.9236 10.7656 11.0469C8.91147 11.0469 7.05728 11.0469 5.20312 11.0469C5.05897 10.9236 4.92356 10.7882 4.79688 10.6406Z" fill="#C6484F"/>
<path opacity="0.99" fill-rule="evenodd" clip-rule="evenodd" d="M14.3594 10.6406C14.901 10.6406 15.4427 10.6406 15.9844 10.6406C15.9844 10.776 15.9844 10.9115 15.9844 11.0469C15.4427 11.0469 14.901 11.0469 14.3594 11.0469C14.3594 10.9115 14.3594 10.776 14.3594 10.6406Z" fill="#C6484F"/>
<path opacity="0.99" fill-rule="evenodd" clip-rule="evenodd" d="M-0.015625 11.0469C0.526041 11.0469 1.06771 11.0469 1.60938 11.0469C1.60938 11.1302 1.60938 11.2135 1.60938 11.2969C1.06771 11.2969 0.526041 11.2969 -0.015625 11.2969C-0.015625 11.2135 -0.015625 11.1302 -0.015625 11.0469Z" fill="#C74C4D"/>
<path opacity="0.988" fill-rule="evenodd" clip-rule="evenodd" d="M5.20312 11.0469C7.05728 11.0469 8.91147 11.0469 10.7656 11.0469C10.6845 11.1602 10.5804 11.2435 10.4531 11.2969C8.80728 11.2969 7.16147 11.2969 5.51562 11.2969C5.38837 11.2435 5.28422 11.1602 5.20312 11.0469Z" fill="#C74B4D"/>
<path opacity="0.99" fill-rule="evenodd" clip-rule="evenodd" d="M14.3594 11.0469C14.901 11.0469 15.4427 11.0469 15.9844 11.0469C15.9844 11.1302 15.9844 11.2135 15.9844 11.2969C15.4427 11.2969 14.901 11.2969 14.3594 11.2969C14.3594 11.2135 14.3594 11.1302 14.3594 11.0469Z" fill="#C74C4D"/>
<path opacity="0.991" fill-rule="evenodd" clip-rule="evenodd" d="M-0.015625 11.2969C0.526041 11.2969 1.06771 11.2969 1.60938 11.2969C1.60938 11.3698 1.60938 11.4427 1.60938 11.5156C1.06771 11.5156 0.526041 11.5156 -0.015625 11.5156C-0.015625 11.4427 -0.015625 11.3698 -0.015625 11.2969Z" fill="#C84F4C"/>
<path opacity="0.987" fill-rule="evenodd" clip-rule="evenodd" d="M5.51562 11.2969C7.16147 11.2969 8.80728 11.2969 10.4531 11.2969C10.3664 11.3939 10.2622 11.4668 10.1406 11.5156C8.70312 11.5156 7.26562 11.5156 5.82812 11.5156C5.7065 11.4668 5.60234 11.3939 5.51562 11.2969Z" fill="#C84F4C"/>
<path opacity="0.991" fill-rule="evenodd" clip-rule="evenodd" d="M14.3594 11.2969C14.901 11.2969 15.4427 11.2969 15.9844 11.2969C15.9844 11.3698 15.9844 11.4427 15.9844 11.5156C15.4427 11.5156 14.901 11.5156 14.3594 11.5156C14.3594 11.4427 14.3594 11.3698 14.3594 11.2969Z" fill="#C84F4C"/>
<path opacity="0.978" fill-rule="evenodd" clip-rule="evenodd" d="M-0.015625 11.5156C0.526041 11.5156 1.06771 11.5156 1.60938 11.5156C1.64427 11.6342 1.6651 11.7592 1.67188 11.8906C1.11979 11.8906 0.567709 11.8906 0.015625 11.8906C0.023994 11.8407 0.0135773 11.799 -0.015625 11.7656C-0.015625 11.6823 -0.015625 11.599 -0.015625 11.5156Z" fill="#C9544B"/>
<path opacity="0.977" fill-rule="evenodd" clip-rule="evenodd" d="M5.82812 11.5156C7.26562 11.5156 8.70312 11.5156 10.1406 11.5156C9.90238 11.6816 9.64197 11.8066 9.35938 11.8906C8.44272 11.8906 7.52603 11.8906 6.60938 11.8906C6.32678 11.8066 6.06638 11.6816 5.82812 11.5156Z" fill="#C9544B"/>
<path opacity="0.978" fill-rule="evenodd" clip-rule="evenodd" d="M14.3594 11.5156C14.901 11.5156 15.4427 11.5156 15.9844 11.5156C15.9844 11.599 15.9844 11.6823 15.9844 11.7656C15.9552 11.799 15.9447 11.8407 15.9531 11.8906C15.401 11.8906 14.849 11.8906 14.2969 11.8906C14.3037 11.7592 14.3245 11.6342 14.3594 11.5156Z" fill="#C9544B"/>
<path opacity="0.968" fill-rule="evenodd" clip-rule="evenodd" d="M0.0169916 11.8906C0.569076 11.8906 1.12116 11.8906 1.67324 11.8906C1.69944 11.9013 1.70985 11.9221 1.70449 11.9531C1.15241 11.9531 0.600326 11.9531 0.0482416 11.9531C0.0220464 11.9424 0.0116297 11.9216 0.0169916 11.8906Z" fill="#CA584A"/>
<path opacity="0.954" fill-rule="evenodd" clip-rule="evenodd" d="M6.60938 11.8906C7.52603 11.8906 8.44272 11.8906 9.35938 11.8906C9.30581 11.9293 9.24331 11.9502 9.17188 11.9531C8.38022 11.9531 7.58853 11.9531 6.79688 11.9531C6.72544 11.9502 6.66294 11.9293 6.60938 11.8906Z" fill="#CA584A"/>
<path opacity="0.968" fill-rule="evenodd" clip-rule="evenodd" d="M14.2982 11.8906C14.8503 11.8906 15.4024 11.8906 15.9545 11.8906C15.9599 11.9216 15.9494 11.9424 15.9232 11.9531C15.3712 11.9531 14.8191 11.9531 14.267 11.9531C14.2616 11.9221 14.2721 11.9013 14.2982 11.8906Z" fill="#CA584A"/>
<path opacity="0.981" fill-rule="evenodd" clip-rule="evenodd" d="M0.0477558 11.9531C0.59984 11.9531 1.15192 11.9531 1.70401 11.9531C1.72974 12.0457 1.75057 12.1394 1.76651 12.2344C1.20401 12.2344 0.641506 12.2344 0.0790058 12.2344C0.0540386 12.1428 0.043622 12.0491 0.0477558 11.9531Z" fill="#CB5B4A"/>
<path opacity="0.858" fill-rule="evenodd" clip-rule="evenodd" d="M6.79688 11.9531C7.58853 11.9531 8.38022 11.9531 9.17188 11.9531C8.38022 12.2031 7.58853 12.2031 6.79688 11.9531Z" fill="#CB5A4A"/>
<path opacity="0.981" fill-rule="evenodd" clip-rule="evenodd" d="M14.2656 11.9531C14.8177 11.9531 15.3698 11.9531 15.9219 11.9531C15.926 12.0491 15.9156 12.1428 15.8906 12.2344C15.3281 12.2344 14.7656 12.2344 14.2031 12.2344C14.2191 12.1394 14.2399 12.0457 14.2656 11.9531Z" fill="#CB5B4A"/>
<path opacity="0.977" fill-rule="evenodd" clip-rule="evenodd" d="M0.078125 12.2344C0.640625 12.2344 1.20312 12.2344 1.76562 12.2344C1.8293 12.3519 1.88138 12.4769 1.92188 12.6094C1.33854 12.6094 0.755209 12.6094 0.171875 12.6094C0.140625 12.4844 0.109375 12.3594 0.078125 12.2344Z" fill="#CD6048"/>
<path opacity="0.977" fill-rule="evenodd" clip-rule="evenodd" d="M14.2031 12.2344C14.7656 12.2344 15.3281 12.2344 15.8906 12.2344C15.8594 12.3594 15.8281 12.4844 15.7969 12.6094C15.2135 12.6094 14.6302 12.6094 14.0469 12.6094C14.0874 12.4769 14.1394 12.3519 14.2031 12.2344Z" fill="#CD6048"/>
<path opacity="0.977" fill-rule="evenodd" clip-rule="evenodd" d="M0.171875 12.6094C0.755209 12.6094 1.33854 12.6094 1.92188 12.6094C2.0126 12.7384 2.09593 12.8738 2.17188 13.0156C1.55729 13.0156 0.942709 13.0156 0.328125 13.0156C0.269909 12.8827 0.217826 12.7473 0.171875 12.6094Z" fill="#CF6747"/>
<path opacity="0.977" fill-rule="evenodd" clip-rule="evenodd" d="M14.0469 12.6094C14.6302 12.6094 15.2135 12.6094 15.7969 12.6094C15.7509 12.7473 15.6988 12.8827 15.6406 13.0156C15.026 13.0156 14.4115 13.0156 13.7969 13.0156C13.8728 12.8738 13.9562 12.7384 14.0469 12.6094Z" fill="#CF6747"/>
<path opacity="0.978" fill-rule="evenodd" clip-rule="evenodd" d="M0.328125 13.0156C0.942709 13.0156 1.55729 13.0156 2.17188 13.0156C2.26334 13.149 2.36751 13.274 2.48438 13.3906C1.81771 13.3906 1.15104 13.3906 0.484375 13.3906C0.432291 13.2656 0.380209 13.1406 0.328125 13.0156Z" fill="#D16D46"/>
<path opacity="0.978" fill-rule="evenodd" clip-rule="evenodd" d="M13.7969 13.0156C14.4115 13.0156 15.026 13.0156 15.6406 13.0156C15.5885 13.1406 15.5365 13.2656 15.4844 13.3906C14.8177 13.3906 14.151 13.3906 13.4844 13.3906C13.6013 13.274 13.7054 13.149 13.7969 13.0156Z" fill="#D16D46"/>
<path opacity="0.973" fill-rule="evenodd" clip-rule="evenodd" d="M0.484375 13.3906C1.15104 13.3906 1.81771 13.3906 2.48438 13.3906C2.61018 13.5061 2.73518 13.6207 2.85938 13.7344C2.14062 13.7344 1.42188 13.7344 0.703125 13.7344C0.622837 13.6262 0.549919 13.5116 0.484375 13.3906Z" fill="#D37345"/>
<path opacity="0.973" fill-rule="evenodd" clip-rule="evenodd" d="M13.4844 13.3906C14.151 13.3906 14.8177 13.3906 15.4844 13.3906C15.4188 13.5116 15.3459 13.6262 15.2656 13.7344C14.5469 13.7344 13.8281 13.7344 13.1094 13.7344C13.2336 13.6207 13.3586 13.5061 13.4844 13.3906Z" fill="#D37345"/>
<path opacity="0.975" fill-rule="evenodd" clip-rule="evenodd" d="M0.703125 13.7344C1.42188 13.7344 2.14062 13.7344 2.85938 13.7344C3.06883 13.8598 3.27716 13.9848 3.48438 14.1094C2.64062 14.1094 1.79688 14.1094 0.953125 14.1094C0.854378 13.9954 0.771047 13.8704 0.703125 13.7344Z" fill="#D57943"/>
<path opacity="0.975" fill-rule="evenodd" clip-rule="evenodd" d="M13.1094 13.7344C13.8281 13.7344 14.5469 13.7344 15.2656 13.7344C15.1977 13.8704 15.1144 13.9954 15.0156 14.1094C14.1719 14.1094 13.3281 14.1094 12.4844 14.1094C12.6916 13.9848 12.8999 13.8598 13.1094 13.7344Z" fill="#D57943"/>
<path opacity="0.954" fill-rule="evenodd" clip-rule="evenodd" d="M0.953125 14.1094C1.79688 14.1094 2.64062 14.1094 3.48438 14.1094C3.79806 14.2217 4.12097 14.2998 4.45312 14.3438C6.80728 14.3646 9.16147 14.3646 11.5156 14.3438C11.8478 14.2998 12.1707 14.2217 12.4844 14.1094C13.3281 14.1094 14.1719 14.1094 15.0156 14.1094C14.9118 14.2547 14.7973 14.3902 14.6719 14.5156C10.2135 14.5156 5.75522 14.5156 1.29688 14.5156C1.17148 14.3902 1.0569 14.2547 0.953125 14.1094Z" fill="#D78042"/>
<path opacity="0.995" fill-rule="evenodd" clip-rule="evenodd" d="M1.29688 14.5156C5.75522 14.5156 10.2135 14.5156 14.6719 14.5156C14.5556 14.6622 14.4202 14.7872 14.2656 14.8906C10.0781 14.8906 5.89062 14.8906 1.70312 14.8906C1.5486 14.7872 1.41319 14.6622 1.29688 14.5156Z" fill="#D98641"/>
<path opacity="0.994" fill-rule="evenodd" clip-rule="evenodd" d="M1.70312 14.8906C5.89062 14.8906 10.0781 14.8906 14.2656 14.8906C14.1189 15.0163 13.9626 15.1309 13.7969 15.2344C9.92188 15.2344 6.04688 15.2344 2.17188 15.2344C2.00611 15.1309 1.84986 15.0163 1.70312 14.8906Z" fill="#DB8C3F"/>
<path opacity="0.993" fill-rule="evenodd" clip-rule="evenodd" d="M2.17188 15.2344C6.04688 15.2344 9.92188 15.2344 13.7969 15.2344C13.6544 15.3421 13.4982 15.4254 13.3281 15.4844C9.76562 15.4844 6.20312 15.4844 2.64062 15.4844C2.47058 15.4254 2.31433 15.3421 2.17188 15.2344Z" fill="#DC913F"/>
<path opacity="0.994" fill-rule="evenodd" clip-rule="evenodd" d="M2.64062 15.4844C6.20312 15.4844 9.76562 15.4844 13.3281 15.4844C13.2547 15.5419 13.1714 15.5836 13.0781 15.6094C9.68228 15.6094 6.28647 15.6094 2.89062 15.6094C2.79735 15.5836 2.71402 15.5419 2.64062 15.4844Z" fill="#DE943E"/>
<path opacity="0.982" fill-rule="evenodd" clip-rule="evenodd" d="M2.89062 15.6094C6.28647 15.6094 9.68228 15.6094 13.0781 15.6094C12.6567 15.7928 12.2192 15.9178 11.7656 15.9844C9.24478 15.9844 6.72397 15.9844 4.20312 15.9844C3.7495 15.9178 3.312 15.7928 2.89062 15.6094Z" fill="#DF983D"/>
</g>
<defs>
<clipPath id="clip0_7275_9286">
<rect width="16" height="16" fill="white"/>
</clipPath>
</defs>
</svg>
