<svg width="31" height="32" viewBox="0 0 31 32" fill="none" xmlns="http://www.w3.org/2000/svg">
<g clip-path="url(#clip0_7275_9907)">
<path d="M17.4635 1.76869C17.5067 1.74359 17.5498 1.71849 17.5943 1.69263C17.8644 1.54214 18.1124 1.44775 18.4179 1.39979C18.4596 1.39287 18.5013 1.38595 18.5443 1.37881C19.1589 1.33218 19.7718 1.52886 20.2417 1.9231C20.5051 2.15747 20.6571 2.40224 20.8306 2.7091C20.8563 2.75353 20.882 2.79795 20.9085 2.84372C21.3732 3.66322 21.3732 3.66322 21.285 4.06581C21.1917 4.23551 21.0845 4.294 20.9077 4.36224C20.78 4.39149 20.6797 4.37669 20.5614 4.31993C20.3747 4.17387 20.2967 3.93988 20.2111 3.72627C20.0085 3.23006 19.7706 2.76594 19.2775 2.51756C18.9565 2.38449 18.6444 2.38103 18.3145 2.4665C17.1496 2.94802 16.2443 3.98314 15.818 5.18743C15.8012 5.23389 15.7845 5.28035 15.7672 5.32822C15.6981 5.52595 15.6333 5.71822 15.5968 5.92467C15.5875 5.97745 15.5781 6.03023 15.5685 6.08462C15.6067 6.06226 15.6449 6.03989 15.6842 6.01686C15.8277 5.93308 15.9715 5.8501 16.1155 5.76734C16.1775 5.73159 16.2393 5.69564 16.301 5.65946C16.9545 5.27674 16.9545 5.27674 17.3533 5.22776C17.395 5.22084 17.4367 5.21392 17.4797 5.20678C18.0943 5.16015 18.7072 5.35684 19.1772 5.75108C19.2368 5.80414 19.2957 5.85801 19.3537 5.91292C19.3727 5.93082 19.3918 5.94872 19.4114 5.96716C19.502 6.07166 19.5646 6.18497 19.633 6.30516C19.6482 6.33166 19.6633 6.35815 19.679 6.38545C19.7297 6.47425 19.7801 6.5632 19.8305 6.65216C19.8669 6.71589 19.9032 6.77961 19.9395 6.84332C20.0589 7.05272 20.1778 7.26235 20.2967 7.47199C20.3377 7.5443 20.3788 7.61661 20.4198 7.68892C20.6129 8.02894 20.8057 8.36907 20.9983 8.70933C21.2201 9.10109 21.4425 9.49249 21.6654 9.88358C21.838 10.1865 22.01 10.4896 22.1816 10.7931C22.2839 10.974 22.3864 11.1548 22.4896 11.3353C22.5869 11.5054 22.6834 11.6759 22.7794 11.8468C22.8146 11.909 22.8499 11.9711 22.8856 12.033C23.4121 12.9479 23.4918 13.8315 23.2196 14.8553C23.1492 15.1122 23.0696 15.3644 22.9776 15.6145C22.921 15.7832 22.875 15.9544 22.8283 16.126C22.763 16.3663 22.6924 16.6008 22.6062 16.8345C22.5496 17.0024 22.504 17.1729 22.4575 17.3439C22.3921 17.5841 22.3215 17.8186 22.2353 18.0523C22.1788 18.2202 22.1331 18.3907 22.0866 18.5617C22.0212 18.8019 21.9506 19.0365 21.8644 19.2701C21.8079 19.4381 21.7622 19.6086 21.7157 19.7795C21.6503 20.0198 21.5797 20.2543 21.4935 20.488C21.437 20.6559 21.3913 20.8264 21.3448 20.9973C21.2794 21.2376 21.2089 21.4721 21.1226 21.7058C21.0661 21.8737 21.0204 22.0442 20.9739 22.2152C20.9085 22.4554 20.838 22.6899 20.7517 22.9236C20.6952 23.0916 20.6495 23.2621 20.603 23.433C20.5376 23.6733 20.4671 23.9078 20.3808 24.1415C20.3243 24.3094 20.2786 24.4799 20.2321 24.6508C20.1553 24.9317 20.0744 25.208 19.9693 25.4799C19.9552 25.5178 19.9411 25.5556 19.9266 25.5946C19.6379 26.3333 19.1402 26.7246 18.4369 27.0513C17.6062 27.3355 16.7397 27.003 15.9335 26.7797C15.8471 26.7558 15.7606 26.732 15.6741 26.7082C15.3922 26.6304 15.1104 26.5524 14.8286 26.4744C14.7311 26.4474 14.6337 26.4204 14.5362 26.3934C14.0784 26.2668 13.6207 26.1399 13.1631 26.0129C12.6363 25.8668 12.1094 25.7211 11.5824 25.5758C11.1738 25.4632 10.7654 25.3501 10.357 25.2366C10.1136 25.169 9.87014 25.1016 9.62655 25.0346C9.3975 24.9717 9.16862 24.9082 8.93985 24.8442C8.85622 24.821 8.77253 24.7979 8.68878 24.775C7.86181 24.5492 7.1678 24.2531 6.72649 23.4846C6.41198 22.9288 6.28669 22.3947 6.43441 21.7607C6.45985 21.6698 6.48634 21.5792 6.51389 21.4889C6.54759 21.3754 6.57294 21.2646 6.59488 21.1484C6.63692 20.9342 6.69495 20.726 6.75458 20.5162C6.81279 20.3113 6.8701 20.1083 6.91012 19.8989C6.95683 19.6546 7.0271 19.4174 7.09505 19.1783C7.14311 19.0077 7.18791 18.8386 7.22119 18.6645C7.26791 18.4201 7.33818 18.1829 7.40613 17.9438C7.45419 17.7733 7.49899 17.6042 7.53227 17.43C7.57899 17.1856 7.64926 16.9485 7.71721 16.7093C7.76527 16.5388 7.81007 16.3697 7.84335 16.1956C7.89007 15.9512 7.96033 15.714 8.02829 15.4749C8.07635 15.3044 8.12115 15.1352 8.15443 14.9611C8.20114 14.7167 8.27141 14.4795 8.33937 14.2404C8.38743 14.0699 8.43222 13.9008 8.46551 13.7266C8.51222 13.4822 8.58249 13.2451 8.65045 13.0059C8.69851 12.8354 8.7433 12.6663 8.77659 12.4922C8.82327 12.2479 8.89347 12.011 8.96138 11.772C9.01088 11.5964 9.05666 11.4219 9.09183 11.2428C9.26034 10.3864 9.62773 9.58945 10.332 9.04235C10.5913 8.86938 10.867 8.72306 11.1409 8.57484C11.2771 8.50094 11.4124 8.42578 11.5477 8.35021C11.9317 8.1357 12.3164 7.92234 12.7031 7.71258C12.9407 7.58358 13.1768 7.45219 13.4122 7.31919C13.5017 7.26925 13.5917 7.22023 13.6821 7.17216C14.1968 6.92818 14.1968 6.92818 14.5136 6.48908C14.5475 6.31246 14.5432 6.13921 14.54 5.95969C14.5584 5.85695 14.5789 5.75455 14.6032 5.65305C14.6128 5.61083 14.6224 5.56861 14.6323 5.52511C15.0371 3.92117 16.0326 2.59417 17.4635 1.76869ZM9.92269 11.9909C9.87638 12.1832 9.82593 12.3734 9.77165 12.5635C9.7259 12.7238 9.68519 12.8825 9.65353 13.0461C9.61199 13.2591 9.55415 13.466 9.49488 13.6746C9.43666 13.8794 9.37935 14.0825 9.33934 14.2918C9.29262 14.5362 9.22235 14.7734 9.1544 15.0125C9.10634 15.183 9.06154 15.3521 9.02826 15.5263C8.98154 15.7707 8.91127 16.0078 8.84332 16.247C8.79526 16.4175 8.75046 16.5866 8.71718 16.7608C8.67046 17.0052 8.6002 17.2423 8.53224 17.4814C8.48418 17.652 8.43939 17.8211 8.4061 17.9952C8.35939 18.2396 8.28912 18.4768 8.22116 18.7159C8.1731 18.8864 8.12831 19.0555 8.09502 19.2297C8.04831 19.4741 7.97804 19.7112 7.91008 19.9504C7.86202 20.1209 7.81723 20.29 7.78394 20.4641C7.74393 20.6735 7.68658 20.8765 7.6284 21.0814C7.54917 21.3615 7.47479 21.6398 7.42544 21.9271C7.41881 21.9638 7.41217 22.0005 7.40534 22.0383C7.33279 22.4951 7.42027 22.8097 7.68594 23.1916C8.07215 23.6604 8.76633 23.7597 9.32345 23.9151C9.41096 23.9398 9.49847 23.9644 9.58597 23.9891C9.82253 24.0557 10.0592 24.122 10.2959 24.1881C10.444 24.2295 10.5921 24.2709 10.7402 24.3124C11.2043 24.4423 11.6685 24.572 12.1327 24.7014C12.6673 24.8503 13.2017 25.0001 13.7359 25.1505C14.1499 25.267 14.564 25.3828 14.9783 25.4981C15.2253 25.5669 15.4722 25.6359 15.719 25.7057C15.9511 25.7713 16.1834 25.8361 16.4159 25.9001C16.5008 25.9237 16.5857 25.9476 16.6705 25.9718C17.2267 26.1305 17.8096 26.2933 18.3543 26.0014C18.87 25.6988 19.017 25.2217 19.1818 24.6769C19.195 24.634 19.2081 24.5911 19.2217 24.5468C19.3073 24.2665 19.3873 23.9851 19.4639 23.7022C19.4964 23.5888 19.5333 23.4791 19.5739 23.3683C19.6483 23.1645 19.7055 22.9574 19.7624 22.7482C19.8278 22.5079 19.8984 22.2734 19.9846 22.0397C20.0411 21.8718 20.0868 21.7013 20.1333 21.5304C20.1987 21.2901 20.2693 21.0556 20.3555 20.8219C20.412 20.654 20.4577 20.4835 20.5042 20.3125C20.5696 20.0723 20.6401 19.8378 20.7264 19.6041C20.7829 19.4361 20.8286 19.2656 20.8751 19.0947C20.9405 18.8545 21.011 18.6199 21.0973 18.3863C21.1538 18.2183 21.1995 18.0478 21.246 17.8769C21.3114 17.6366 21.3819 17.4021 21.4682 17.1684C21.5247 17.0005 21.5704 16.83 21.6169 16.659C21.6823 16.4188 21.7528 16.1843 21.8391 15.9506C21.9069 15.749 21.96 15.5434 22.0158 15.3382C22.0744 15.1248 22.1409 14.9166 22.2161 14.7084C22.4294 14.1124 22.4611 13.5044 22.2428 12.9024C22.1981 12.8147 22.1513 12.7281 22.1033 12.6423C22.082 12.6042 22.082 12.6042 22.0603 12.5653C22.0129 12.4804 21.9653 12.3957 21.9177 12.311C21.8836 12.2501 21.8495 12.1892 21.8154 12.1282C21.7036 11.9284 21.5914 11.7287 21.4791 11.5291C21.4404 11.4603 21.4017 11.3914 21.3631 11.3226C21.1813 10.999 20.9993 10.6755 20.8171 10.3522C20.6071 9.97956 20.3977 9.60656 20.1889 9.23325C20.0272 8.94434 19.865 8.65576 19.7023 8.36743C19.6052 8.19539 19.5085 8.02322 19.4123 7.85069C19.3217 7.68827 19.2304 7.52627 19.1386 7.36457C19.1051 7.30538 19.0719 7.24605 19.039 7.18656C18.7768 6.71307 18.5146 6.39509 17.9852 6.23112C17.6693 6.16764 17.3297 6.19233 17.048 6.35241C17.0121 6.37272 16.9761 6.39303 16.9391 6.41396C16.8812 6.44705 16.8812 6.44705 16.8221 6.4808C16.7626 6.51453 16.7626 6.51453 16.7019 6.54894C16.575 6.62087 16.4483 6.69306 16.3216 6.76525C16.2357 6.81404 16.1498 6.8628 16.0639 6.91155C15.8531 7.03115 15.6425 7.15096 15.4319 7.27094C15.4673 7.6441 15.5064 8.00691 15.6078 8.36899C15.6221 8.4217 15.6221 8.4217 15.6366 8.47548C15.7046 8.71941 15.7878 8.94681 15.9016 9.17359C15.9411 9.16478 15.9807 9.15596 16.0214 9.14688C16.6929 9.01178 17.313 9.08146 17.8978 9.46091C18.3936 9.80022 18.7846 10.3981 18.9111 10.9872C19.0038 11.7015 18.8685 12.3199 18.4252 12.8974C18.3603 12.9706 18.2951 13.0392 18.2233 13.1056C18.1988 13.1285 18.1744 13.1514 18.1491 13.1751C17.6111 13.6079 16.9616 13.8178 16.2708 13.7547C15.689 13.6462 15.1423 13.3608 14.7723 12.8869C14.378 12.268 14.1556 11.647 14.2898 10.9001C14.4124 10.4122 14.6965 9.99026 15.0607 9.64856C15.0506 9.62263 15.0405 9.59671 15.03 9.57C14.9825 9.44698 14.9359 9.32359 14.8894 9.20019C14.8655 9.13914 14.8655 9.13914 14.8412 9.07685C14.7329 8.78728 14.6606 8.50058 14.5989 8.19803C14.5907 8.15858 14.5825 8.11913 14.5741 8.07849C14.5541 7.98205 14.5343 7.88558 14.5146 7.78909C14.0577 8.04247 13.6013 8.29669 13.1454 8.55198C12.9337 8.67052 12.7218 8.78877 12.5096 8.90636C12.3044 9.02003 12.0997 9.13447 11.8953 9.24943C11.8175 9.29296 11.7396 9.33623 11.6616 9.37922C10.5331 10.0014 10.2143 10.7745 9.92269 11.9909ZM15.2497 11.0543C15.1713 11.4304 15.2037 11.8369 15.4105 12.1682C15.6881 12.5329 16.0468 12.7443 16.4987 12.8193C16.886 12.8206 17.2503 12.7244 17.5352 12.4514C17.8566 12.0955 18.0032 11.7516 17.9929 11.2695C17.9496 10.9122 17.7605 10.5707 17.4898 10.3342C17.1466 10.0851 16.8121 10.0169 16.3982 10.0527C16.418 10.0891 16.4378 10.1254 16.4582 10.1629C16.5317 10.2985 16.6047 10.4344 16.6774 10.5705C16.7089 10.6292 16.7406 10.6878 16.7725 10.7463C16.8184 10.8307 16.8636 10.9154 16.9087 11.0002C16.9361 11.051 16.9634 11.1018 16.9916 11.1541C17.0703 11.3446 17.0653 11.477 17.0108 11.6729C16.9345 11.7348 16.9345 11.7348 16.8363 11.7936C16.8046 11.8135 16.7729 11.8334 16.7402 11.8539C16.5765 11.9051 16.4876 11.8687 16.3295 11.8057C16.2489 11.7082 16.1919 11.6266 16.1314 11.518C16.1147 11.4897 16.0979 11.4615 16.0807 11.4324C16.0278 11.3426 15.9763 11.2521 15.9247 11.1615C15.8889 11.1002 15.8531 11.039 15.8172 10.9779C15.7295 10.8284 15.6431 10.6782 15.5573 10.5277C15.3848 10.6251 15.3168 10.8768 15.2497 11.0543Z" fill="black" fill-opacity="0.7" stroke="black" stroke-opacity="0.7" stroke-width="0.1"/>
</g>
<defs>
<clipPath id="clip0_7275_9907">
<rect width="22.476" height="22.476" fill="white" transform="translate(0.046875 11.626) rotate(-29.459)"/>
</clipPath>
</defs>
</svg>
