<svg width="16" height="12" viewBox="0 0 16 12" fill="none" xmlns="http://www.w3.org/2000/svg">
<path d="M15.6469 1.75472C15.5551 1.41556 15.3761 1.10636 15.1277 0.857907C14.8792 0.609455 14.57 0.430421 14.2309 0.338631C12.9892 0 7.99202 0 7.99202 0C7.99202 0 2.99456 0.0102501 1.75292 0.348881C1.41375 0.440676 1.10456 0.61972 0.856116 0.868184C0.607675 1.11665 0.428658 1.42586 0.336893 1.76503C-0.0386761 3.97119 -0.184366 7.33287 0.347205 9.45079C0.43898 9.78994 0.618001 10.0991 0.866442 10.3476C1.11488 10.596 1.42407 10.7751 1.76323 10.8669C3.00488 11.2055 8.00221 11.2055 8.00221 11.2055C8.00221 11.2055 12.9995 11.2055 14.2411 10.8669C14.5802 10.7751 14.8894 10.5961 15.1379 10.3476C15.3863 10.0992 15.5654 9.78995 15.6572 9.45079C16.0533 7.2415 16.1753 3.88188 15.6469 1.75472Z" fill="#FF0000"/>
<path d="M6.40625 8.00448L10.5518 5.60331L6.40625 3.20215V8.00448Z" fill="white"/>
</svg>
