<svg width="18" height="18" viewBox="0 0 18 18" fill="none" xmlns="http://www.w3.org/2000/svg">
<path d="M17 9C17 6.87827 16.1571 4.84344 14.6569 3.34315C13.1566 1.84285 11.1217 1 9 1M17 9H1M17 9C17 11.1217 16.1571 13.1566 14.6569 14.6569C13.1566 16.1571 11.1217 17 9 17M9 1C6.87827 1 4.84344 1.84285 3.34315 3.34315C1.84285 4.84344 1 6.87827 1 9M9 1C8.56757 1 5.54054 4.58141 5.54054 9C5.54054 13.4186 8.56757 17 9 17M9 1C9.43243 1 12.4595 4.58141 12.4595 9C12.4595 13.4186 9.43243 17 9 17M1 9C1 11.1217 1.84285 13.1566 3.34315 14.6569C4.84344 16.1571 6.87827 17 9 17" stroke="#00C9ED" stroke-width="1.5" stroke-linecap="round" stroke-linejoin="round"/>
</svg>
