<svg width="16" height="15" viewBox="0 0 16 15" fill="none" xmlns="http://www.w3.org/2000/svg">
<path d="M5.90079 1.83679C4.33177 2.18648 2.95907 3.10972 2.06417 4.41719C1.16928 5.72466 0.820021 7.31726 1.08801 8.86842M5.90079 1.83679L3.80098 1M5.90079 1.83679L5.20085 3.73684M12.945 10.5789C13.3772 9.72857 13.6015 8.79167 13.6001 7.8421C13.6001 4.79052 11.3302 2.25826 8.35058 1.76905M12.945 10.5789L15 9.21052M12.945 10.5789L11.8503 8.52631M2.06233 11.2632C2.63746 12.1057 3.41654 12.7963 4.33037 13.2738C5.2442 13.7512 6.26451 14.0007 7.30067 14C8.85058 14.0019 10.3464 13.4433 11.5003 12.4318M2.06233 11.2632H4.50091M2.06233 11.2632V13.6579" stroke="#0087FF" stroke-width="1.35" stroke-linecap="round" stroke-linejoin="round"/>
</svg>
