<svg width="19" height="18" viewBox="0 0 19 18" fill="none" xmlns="http://www.w3.org/2000/svg">
<g clip-path="url(#clip0_3238_9503)">
<path d="M6.10141 11.8604C4.97781 12.6043 3.39719 11.9223 2.30313 13.6055C2.12594 13.8783 1.96703 14.3565 1.76313 15.054C1.60281 15.5996 0.742188 15.9835 0.742188 15.9835C0.742188 15.9835 1.48328 16.7682 2.18219 16.9187C3.19328 17.138 4.64594 17.2477 5.63031 16.1748C6.7525 14.9513 6.25047 13.8221 7.23906 13.1429C7.23766 13.1429 7.225 11.1151 6.10141 11.8604Z" fill="#F09300"/>
<path d="M5.27101 12.209C5.15851 12.3074 5.12898 12.4705 5.1332 12.6196C5.15148 13.1863 5.60429 13.7095 6.16257 13.8065C6.38898 13.8459 6.65335 13.8079 6.79257 13.6251C6.94867 13.4212 6.8896 13.1259 6.77992 12.8938C6.65898 12.6393 6.48601 12.4101 6.27226 12.2273" fill="#C67100"/>
<path d="M17.6953 0.915279C17.6953 0.915279 17.4168 0.541217 16.7039 0.958873C15.735 1.52559 12.599 3.85997 8.8373 7.73559C7.99073 8.60747 7.65745 9.1095 7.65745 9.1095C7.65745 9.1095 7.44792 9.43012 8.25089 10.2331C9.05245 11.0347 9.79636 11.1978 9.79636 11.1978L10.432 10.5439C14.9685 5.87231 17.2523 2.877 17.684 1.9095C18.0187 1.15434 17.6953 0.915279 17.6953 0.915279Z" fill="#1565C0"/>
<path d="M8.66411 10.2179C7.86114 9.43748 7.7388 9.02686 7.7388 9.02686C7.7388 9.02686 7.49833 9.18295 7.35348 9.36857C7.13411 9.64982 7.1102 9.85232 7.1102 9.85232L5.3102 12.1065C5.3102 12.1065 5.08098 12.534 5.76723 13.1992C6.45208 13.8644 6.87395 13.6239 6.87395 13.6239L9.07473 11.7606C9.07473 11.7606 9.27583 11.7311 9.55145 11.5033C9.73286 11.3528 9.88192 11.1081 9.88192 11.1081C9.88192 11.1081 9.46708 10.997 8.66411 10.2179Z" fill="#BDBDBD"/>
<path d="M8.25272 10.2321C8.24991 10.2349 8.2485 10.2377 8.24569 10.2406C8.19647 10.2968 8.11069 10.2982 8.03616 10.2841C7.76616 10.2321 7.57913 10.0521 7.4821 9.80462C7.4371 9.6879 7.42866 9.5529 7.4835 9.4404C7.58335 9.2379 7.7296 9.3743 7.8421 9.4868C7.98444 9.63015 8.10952 9.78967 8.21475 9.96212C8.24007 10.0043 8.26538 10.0493 8.27522 10.0985C8.28507 10.1449 8.28085 10.1956 8.25272 10.2321Z" fill="#EEEEEE"/>
<path d="M9.15788 8.37565C9.411 8.93956 11.5485 6.71909 12.0899 6.14253C12.3599 5.85565 14.226 4.17659 13.8041 4.10628C13.3823 4.03596 12.4218 4.86284 12.104 5.11596C11.4683 5.62081 10.6541 6.41815 10.0255 7.07346C9.71756 7.39268 9.06225 8.16331 9.15788 8.37565Z" fill="#2196F3"/>
<path d="M6.65228 10.8199C6.70994 10.7595 6.77884 10.6934 6.86884 10.6934C6.95322 10.6934 7.02353 10.7524 7.08119 10.8087C7.27103 10.9943 7.44681 11.2516 7.34416 11.4837C7.30197 11.5779 7.22041 11.651 7.14025 11.7213L6.20088 12.551C6.01244 12.717 5.83384 12.5004 5.76353 12.3345C5.70025 12.1826 5.74806 12.0616 5.82963 11.928C6.06447 11.5357 6.33447 11.1588 6.65228 10.8199Z" fill="#EEEEEE"/>
<path d="M8.86507 11.6184C8.89742 11.6409 8.93257 11.6718 8.92835 11.7098C8.9258 11.7243 8.9195 11.7379 8.91007 11.7492C8.83554 11.8518 8.68507 11.8729 8.56414 11.8321C8.4446 11.7913 8.34757 11.7028 8.25476 11.617C7.90179 11.2851 7.55304 10.9406 7.29992 10.5271C7.26054 10.4638 7.05664 10.0968 7.19726 10.0617C7.28726 10.0392 7.48976 10.3654 7.54742 10.4329C7.79821 10.7198 8.07039 10.9873 8.36164 11.2331C8.52476 11.3681 8.6921 11.4974 8.86507 11.6184Z" fill="#9E9E9E"/>
<path d="M5.63031 16.1745C5.63031 16.1745 4.28172 16.9311 2.84734 16.7173C2.84734 16.7173 3.98219 16.5106 4.46313 14.9736C4.46313 14.9736 3.37047 16.1112 2.38328 16.1886C2.38328 16.1886 3.32547 15.6978 3.38594 14.21C2.8825 15.1071 2.55203 15.5557 1.75047 15.8271C2.6125 14.9004 2.29891 13.6123 2.29891 13.6123C2.12312 13.8865 1.96562 14.3604 1.76312 15.0523C1.60281 15.5979 0.742188 15.9818 0.742188 15.9818C0.742188 15.9818 1.48328 16.7665 2.18219 16.917C3.19328 17.1378 4.64734 17.2461 5.63031 16.1745Z" fill="#C67100"/>
</g>
<defs>
<clipPath id="clip0_3238_9503">
<rect width="18" height="18" fill="white" transform="translate(0.5)"/>
</clipPath>
</defs>
</svg>
