<svg width="18" height="18" viewBox="0 0 18 18" fill="none" xmlns="http://www.w3.org/2000/svg">
<g clip-path="url(#clip0_3238_9459)">
<path d="M17.4191 16.7065L16.55 14.3876L15.9523 12.7915C15.8173 12.3794 15.792 12.2093 15.5628 11.9801L13.9006 10.3179L10.3203 13.8982L11.9839 15.5618C12.1203 15.6982 12.3819 15.8149 12.7939 15.9499L14.39 16.5476L16.7089 17.4166C17.1463 17.5587 17.5611 17.1438 17.4191 16.7065Z" fill="#FFECB3"/>
<path d="M16.71 17.4162L14.7891 16.6963C14.7891 16.6963 15.5822 16.6512 16.118 16.1155C16.6537 15.5797 16.7002 14.7852 16.7002 14.7852L17.4202 16.7061C17.5622 17.1434 17.1473 17.5583 16.71 17.4162Z" fill="#616161"/>
<path d="M6.07375 2.49029L5.31297 5.20295L2.49485 6.0692L0.90297 4.47873C0.46422 4.03998 0.256095 3.16529 1.41906 2.00232L2.12078 1.30061C3.12625 0.295138 4.04453 0.459669 4.48328 0.898419L6.07375 2.49029Z" fill="#EF5350"/>
<path d="M4.82031 6.27762L6.27859 4.81934L14.7484 13.2892C14.7484 13.2892 14.9214 14.0092 14.4812 14.4493C14.0411 14.8895 13.2902 14.7475 13.2902 14.7475L4.82031 6.27762Z" fill="#FFC107"/>
<path d="M3.75781 7.33766L11.9956 15.5755C13.3259 15.8652 13.2683 14.7275 13.2683 14.7275L4.81813 6.27734L3.75781 7.33766Z" fill="#FFA000"/>
<path d="M6.28125 4.81764L14.7314 13.2678C14.7314 13.2678 16.253 13.2678 15.5569 11.9726L7.34156 3.75732L6.28125 4.81764Z" fill="#FDD835"/>
<path d="M13.2577 14.912L4.73438 6.38871L4.93266 6.19043L13.5108 14.7686L13.29 14.7461L13.2577 14.912Z" fill="#D1762C"/>
<path d="M14.7834 13.5213L5.64844 4.38627L5.84812 4.18799L14.9142 13.2541L14.7497 13.2878L14.7834 13.5213Z" fill="#F19534"/>
<path opacity="0.2" d="M7.33812 3.75732C7.33812 3.75732 6.56891 4.89498 5.93187 5.53904C4.71266 6.76811 3.75781 7.33764 3.75781 7.33764L4.00391 7.58373C4.35406 7.44732 5.24984 7.03811 6.14422 6.14514C7.04422 5.24514 7.46891 4.36623 7.61094 4.03014L7.33812 3.75732Z" fill="#4E342E"/>
<path d="M3.30341 7.29847C3.38216 7.37722 3.49325 7.41238 3.60294 7.3941C3.60294 7.3941 4.75466 7.04253 5.89935 5.89785C7.04403 4.75316 7.42232 3.638 7.42232 3.638C7.4406 3.52832 7.40544 3.41582 7.32669 3.33707L6.12013 2.1305C6.0695 2.07988 5.99919 2.05316 5.92888 2.0616C5.90497 2.06441 5.88107 2.06722 5.85575 2.07144C5.76013 2.0855 5.68419 2.15582 5.65747 2.24863C5.65747 2.24863 5.10622 3.31738 4.19778 4.22441C3.28935 5.13144 2.18122 5.66019 2.18122 5.66019C2.08841 5.6855 2.01669 5.76003 2.00263 5.85566V5.85847C1.99138 5.93441 2.01669 6.01035 2.07013 6.06378L3.30341 7.29847Z" fill="#94D1E0"/>
<path d="M2.5592 2.55789C3.3846 1.73247 3.8556 0.86522 3.61121 0.620842C3.36682 0.376463 2.49959 0.847494 1.6742 1.67292C0.848803 2.49834 0.377802 3.36559 0.622189 3.60997C0.866576 3.85435 1.73381 3.38331 2.5592 2.55789Z" fill="#FF8383"/>
<path d="M5.84918 3.05698C5.38652 3.94292 4.62574 4.66995 3.72012 5.09042C3.66105 5.11713 3.57808 5.13682 3.54293 5.08338C3.51621 5.0412 3.54012 4.98776 3.56683 4.94557C3.68496 4.76276 3.84808 4.6151 4.00558 4.46463C4.41621 4.07088 4.79308 3.64338 5.13199 3.18776C5.30496 2.95573 5.46668 2.71667 5.61855 2.47057C5.70293 2.33557 5.8534 2.0501 6.04605 2.2512C6.2134 2.42417 5.93777 2.88682 5.84918 3.05698ZM5.32465 4.70651C5.28808 4.74448 5.25012 4.78245 5.23183 4.83167C5.21355 4.88088 5.22058 4.94417 5.26277 4.9751C5.29793 5.00182 5.34574 4.99901 5.38933 4.99198C5.63262 4.95401 5.84777 4.8162 6.03762 4.66151C6.45246 4.32542 6.80402 3.85854 6.83777 3.32557C6.84199 3.26229 6.84058 3.1962 6.81246 3.13995C6.63387 2.78698 6.25558 3.57588 6.18105 3.68698C5.93215 4.05682 5.63543 4.3887 5.32465 4.70651Z" fill="#B9E4EA"/>
</g>
<defs>
<clipPath id="clip0_3238_9459">
<rect width="18" height="18" fill="white"/>
</clipPath>
</defs>
</svg>
