<svg width="118" height="98" viewBox="0 0 118 98" fill="none" xmlns="http://www.w3.org/2000/svg">
<path d="M0 9.89795L107 97.179V33.898C107 20.6431 96.2548 9.89795 83 9.89795H0Z" fill="url(#paint0_linear_5553_249)"/>
<path d="M54.1078 27.2546C53.7245 27.5673 53.2724 27.7885 52.7517 27.9183C52.231 28.0482 51.6632 28.0394 51.0484 27.892C50.4409 27.7386 49.8261 27.4083 49.204 26.901L47.837 25.7862L44.7778 28.2819L43.541 27.2732L51.0804 21.1226L53.6843 23.2461C54.2629 23.7179 54.6499 24.1987 54.8453 24.6883C55.055 25.1779 55.0876 25.641 54.943 26.0776C54.8056 26.52 54.5272 26.9124 54.1078 27.2546ZM50.2129 26.078C50.6831 26.4614 51.1387 26.662 51.5799 26.6796C52.0283 26.6914 52.4478 26.538 52.8384 26.2194C53.6628 25.5468 53.6085 24.83 52.6754 24.0691L51.3084 22.9543L48.8459 24.9632L50.2129 26.078ZM52.489 34.7296C51.9248 34.2695 51.5414 33.7504 51.3389 33.1723C51.1435 32.5883 51.1471 32.0013 51.3496 31.4114C51.5592 30.8155 51.9715 30.2668 52.5862 29.7654C53.1937 29.2698 53.8663 28.9393 54.604 28.7741C55.3417 28.6089 56.0686 28.6117 56.7846 28.7828C57.5006 28.9538 58.1444 29.2723 58.7158 29.7383C59.2872 30.2043 59.6778 30.7293 59.8876 31.3133C60.0974 31.8973 60.1011 32.4901 59.8986 33.0919C59.6961 33.6936 59.2912 34.2423 58.6837 34.7379C58.0762 35.2335 57.4 35.5609 56.655 35.7203C55.9101 35.8796 55.1687 35.8709 54.431 35.6939C53.7077 35.517 53.0604 35.1956 52.489 34.7296ZM53.5629 33.8535C53.8812 34.113 54.2537 34.2929 54.6804 34.3931C55.1144 34.4993 55.57 34.4992 56.0474 34.393C56.5247 34.2868 56.9803 34.0567 57.4143 33.7027C57.8482 33.3487 58.1302 32.9829 58.2604 32.6053C58.3978 32.2219 58.405 31.8561 58.282 31.5081C58.159 31.16 57.9384 30.8562 57.6201 30.5967C57.3019 30.3372 56.9294 30.1573 56.5026 30.057C56.0831 29.9627 55.642 29.9745 55.1791 30.0925C54.7234 30.2047 54.2787 30.4377 53.8447 30.7917C53.2011 31.3168 52.8648 31.8566 52.8359 32.4111C52.8215 32.9657 53.0638 33.4464 53.5629 33.8535ZM63.2478 35.0268C63.7323 34.9737 64.2495 35.0179 64.7991 35.1594C65.3488 35.3009 65.8515 35.5575 66.3072 35.9291C66.828 36.3538 67.1716 36.8464 67.338 37.4068C67.5188 37.9672 67.5008 38.5365 67.2839 39.1146C67.067 39.6928 66.6584 40.2267 66.0581 40.7164C65.4578 41.2061 64.7961 41.5453 64.0729 41.7342C63.3568 41.9171 62.6481 41.9408 61.9465 41.8051C61.2594 41.6695 60.6554 41.3894 60.1347 40.9647C59.679 40.5931 59.3643 40.189 59.1907 39.7525C59.0243 39.31 58.9664 38.8853 59.017 38.4782L55.307 41.5049L54.0701 40.4962L62.8896 33.3013L64.1264 34.31L63.2478 35.0268ZM64.7995 39.69C65.2118 39.3537 65.4793 38.9938 65.6023 38.6104C65.7397 38.2269 65.7432 37.8582 65.613 37.5043C65.4973 37.1503 65.2803 36.8436 64.962 36.584C64.651 36.3304 64.2749 36.1535 63.8337 36.0532C63.3997 35.9589 62.9441 35.9648 62.4667 36.071C61.9966 36.1832 61.5555 36.4074 61.1432 36.7437C60.731 37.08 60.4526 37.4428 60.308 37.8322C60.1778 38.2215 60.1706 38.5932 60.2864 38.9471C60.4093 39.307 60.6264 39.6137 60.9374 39.8673C61.2556 40.1269 61.6317 40.3038 62.0657 40.3982C62.5141 40.4925 62.977 40.4807 63.4544 40.3626C63.9389 40.2505 64.3873 40.0263 64.7995 39.69ZM75.6567 43.7129L69.6794 48.5892L68.4426 47.5805L69.1477 47.0053C68.7065 47.0466 68.2545 46.9965 67.7916 46.855C67.3432 46.7134 66.9417 46.4982 66.5873 46.2091C66.1172 45.8257 65.7917 45.401 65.6108 44.935C65.4372 44.4748 65.4335 44 65.5998 43.5103C65.7734 43.0266 66.1313 42.5634 66.6737 42.1209L70.1885 39.2536L71.4145 40.2534L68.0842 42.9703C67.549 43.4069 67.2706 43.8523 67.2489 44.3066C67.2345 44.7549 67.4587 45.1678 67.9217 45.5453C68.3846 45.9229 68.8909 46.1057 69.4405 46.0938C70.0047 46.082 70.5543 45.8578 71.0895 45.4212L74.4199 42.7043L75.6567 43.7129ZM80.5758 44.3798L72.5482 50.9287L71.3114 49.9201L79.3389 43.3712L80.5758 44.3798ZM76.7756 49.4565C77.3759 48.9668 78.0304 48.6335 78.7391 48.4564C79.4552 48.2853 80.1531 48.2705 80.833 48.412C81.5273 48.5535 82.1349 48.8366 82.6556 49.2613C83.1258 49.6447 83.4405 50.0547 83.5996 50.4912C83.7732 50.9278 83.8275 51.3437 83.7625 51.7389L84.6303 51.0309L85.878 52.0484L79.9007 56.9247L78.653 55.9072L79.5426 55.1815C79.0507 55.2405 78.53 55.1993 77.9803 55.0578C77.4306 54.9162 76.9243 54.6567 76.4614 54.2792C75.9479 53.8604 75.6079 53.3708 75.4415 52.8104C75.2823 52.244 75.3112 51.6659 75.5281 51.076C75.7595 50.486 76.1753 49.9462 76.7756 49.4565ZM81.6471 53.4646C82.0593 53.1283 82.3305 52.7655 82.4606 52.3761C82.598 51.9927 82.6088 51.624 82.4931 51.27C82.3773 50.9161 82.1603 50.6093 81.8421 50.3498C81.5238 50.0903 81.1477 49.9133 80.7138 49.819C80.287 49.7187 79.835 49.7217 79.3576 49.8279C78.8948 49.9342 78.4572 50.1554 78.045 50.4917C77.6328 50.828 77.3543 51.1909 77.2097 51.5802C77.0723 51.9755 77.0579 52.353 77.1664 52.7129C77.2894 53.0727 77.5064 53.3795 77.8175 53.6331C78.1357 53.8926 78.5118 54.0696 78.9458 54.1639C79.3797 54.2583 79.8318 54.2494 80.3019 54.1373C80.7865 54.0251 81.2349 53.8009 81.6471 53.4646ZM87.8716 55.0899C88.3562 54.9896 88.8299 54.9925 89.2928 55.0986C89.7701 55.2048 90.215 55.426 90.6272 55.7622L89.3472 56.8065L89.0325 56.5499C88.5479 56.1547 88.0561 55.9541 87.557 55.9483C87.0652 55.9483 86.5156 56.1962 85.9081 56.6917L82.7621 59.2582L81.5253 58.2495L87.5026 53.3733L88.7394 54.3819L87.8716 55.0899Z" fill="white"/>
<path d="M72.9299 25.5265L73.6452 28.1498L75.4796 25.8044L78.8012 25.9308L76.7191 23.8971L78.0474 21.3571L74.9318 22.4377L72.4408 20.7371L72.592 23.4465L69.7145 24.9401L72.9299 25.5265Z" fill="white"/>
<path d="M80.7043 31.8746L81.4196 34.4979L83.254 32.1526L86.5756 32.2789L84.4935 30.2452L85.8218 27.7052L82.7062 28.7858L80.2152 27.0852L80.3664 29.7946L77.4889 31.2882L80.7043 31.8746Z" fill="white"/>
<path d="M88.4777 38.2223L89.193 40.8456L91.0275 38.5002L94.349 38.6266L92.2669 36.5929L93.5952 34.0529L90.4797 35.1335L87.9887 33.4329L88.1399 36.1423L85.2623 37.6359L88.4777 38.2223Z" fill="white"/>
<defs>
<linearGradient id="paint0_linear_5553_249" x1="30.1408" y1="15.5814" x2="75.8597" y2="94.6931" gradientUnits="userSpaceOnUse">
<stop stop-color="#2C73FF"/>
<stop offset="1" stop-color="#632CFF"/>
</linearGradient>
</defs>
</svg>
