<svg width="48" height="47" viewBox="0 0 48 47" fill="none" xmlns="http://www.w3.org/2000/svg">
<path d="M8.82031 25.9476C8.82031 24.6491 9.33612 23.4039 10.2543 22.4857C11.1724 21.5676 12.4177 21.0518 13.7161 21.0518H34.2786C35.5771 21.0518 36.8224 21.5676 37.7405 22.4857C38.6587 23.4039 39.1745 24.6491 39.1745 25.9476V41.6143H8.82031V25.9476Z" stroke="#0087FF" stroke-width="2" stroke-linecap="round" stroke-linejoin="round"/>
<path d="M8.82031 29.1203L13.2246 31.9598C14.1738 32.572 15.2794 32.8976 16.4089 32.8976C17.5383 32.8976 18.6439 32.572 19.5931 31.9598L20.8131 31.1765C21.7623 30.5643 22.8679 30.2387 23.9974 30.2387C25.1269 30.2387 26.2324 30.5643 27.1816 31.1765L28.4017 31.9598C29.3509 32.572 30.4564 32.8976 31.5859 32.8976C32.7154 32.8976 33.821 32.572 34.7702 31.9598L39.1745 29.1203M42.112 41.6046H5.88281M23.9974 14.844V21.0519M23.9974 5.38525L26.7665 8.15434C27.3144 8.70205 27.6875 9.39993 27.8387 10.1597C27.9899 10.9195 27.9124 11.7071 27.616 12.4228C27.3196 13.1386 26.8176 13.7503 26.1735 14.1808C25.5294 14.6112 24.7721 14.8409 23.9974 14.8409C23.2227 14.8409 22.4654 14.6112 21.8213 14.1808C21.1772 13.7503 20.6752 13.1386 20.3788 12.4228C20.0823 11.7071 20.0049 10.9195 20.1561 10.1597C20.3073 9.39993 20.6804 8.70205 21.2283 8.15434L23.9974 5.38525Z" stroke="#0087FF" stroke-width="2" stroke-linecap="round" stroke-linejoin="round"/>
</svg>
