<svg width="24" height="24" viewBox="0 0 24 24" fill="none" xmlns="http://www.w3.org/2000/svg">
<mask id="mask0_3446_9528" style="mask-type:luminance" maskUnits="userSpaceOnUse" x="0" y="0" width="24" height="24">
<path d="M0 0H24V24H0V0Z" fill="white"/>
</mask>
<g mask="url(#mask0_3446_9528)">
<mask id="mask1_3446_9528" style="mask-type:luminance" maskUnits="userSpaceOnUse" x="0" y="0" width="24" height="24">
<path d="M23.3769 20.7444L23.3788 20.7462L23.3806 20.7487L23.3856 20.7525L23.3875 20.755L23.3894 20.7569L23.3919 20.7587L23.3938 20.7612L23.3988 20.765L23.4006 20.7669L23.4025 20.77L23.4044 20.7719L23.4075 20.7737L23.4094 20.7762L23.4113 20.7781L23.4138 20.78L23.4175 20.785L23.4225 20.7887L23.4244 20.7912L23.4306 20.7975L23.4325 20.8L23.435 20.8019L23.4394 20.8062L23.4413 20.8087L23.4438 20.8106L23.4475 20.8156L23.45 20.8175L23.4519 20.8194L23.4538 20.8219L23.4581 20.8262L23.46 20.8287L23.5113 20.8862L23.56 20.9456L23.6056 21.0062L23.6488 21.0675L23.6894 21.1312L23.7263 21.195L23.7606 21.2606L23.7931 21.3269L23.8219 21.3944L23.8481 21.4619L23.8719 21.5312L23.8925 21.6012L23.9106 21.6712L23.9256 21.7412L23.9381 21.8125L23.9475 21.8837L23.9544 21.9556L23.9588 22.0275L23.96 22.0994L23.9594 22.1712L23.955 22.2425L23.9481 22.3144L23.9388 22.3856L23.9263 22.4569L23.9113 22.5269L23.8938 22.5969L23.8738 22.6662L23.8506 22.735L23.825 22.8031L23.7963 22.87L23.765 22.9356L23.7313 23.0006L23.6944 23.0644L23.655 23.1275L23.6131 23.1881L23.5688 23.2487L23.5206 23.3069L23.4713 23.3644L23.4181 23.4194L23.3625 23.4731L23.305 23.5244L23.2463 23.5731L23.1856 23.6187L23.1238 23.6619L23.0606 23.7019L22.9963 23.7394L22.9313 23.7737L22.8644 23.8056L22.7975 23.8344L22.7288 23.8612L22.66 23.8844L22.5906 23.905L22.5206 23.9231L22.4494 23.9381L22.3788 23.9506L22.3069 23.9606L22.2356 23.9681L22.1638 23.9719L22.0919 23.9737L22.0206 23.9719L21.9481 23.9681L21.8769 23.9612L21.8056 23.9519L21.735 23.9394L21.6644 23.925L21.5944 23.9075L21.525 23.8862L21.4569 23.8637L21.3888 23.8375L21.3219 23.8094L21.2556 23.7781L21.1906 23.7437L21.1269 23.7075L21.0644 23.6675L21.0025 23.6256L20.9425 23.5812L20.8838 23.5344L20.8275 23.4837L20.7719 23.4312L20.7181 23.3756L14.9881 17.645L17.6438 15.0112L23.3769 20.7444ZM9.215 0.0543555L9.55813 0.0893555L9.89688 0.13748L10.2319 0.19873L10.5613 0.273105L10.8863 0.359355L11.2063 0.459356L11.52 0.569981L11.8288 0.693106L12.1306 0.828106L12.4269 0.974356L12.7163 1.13061L12.9988 1.29873L13.2738 1.47686L13.5419 1.66498L13.8019 1.86373L14.0538 2.07123L14.2981 2.28873L14.5331 2.51498L14.76 2.74998L14.9775 2.99373L15.1856 3.24561L15.3844 3.50561L15.5731 3.77311L15.7513 4.04873L15.9194 4.33061L16.0769 4.61936L16.2231 4.91561L16.3581 5.21748L16.4813 5.52623L16.5931 5.83998L16.6931 6.15936L16.78 6.48436L16.8544 6.81373L16.9163 7.14873L16.9644 7.48748L16.9994 7.83061L17.0206 8.17811L17.0281 8.52811L17.0269 8.69748L17.0225 8.86623L17.015 9.03436L17.0031 9.20248L16.9888 9.37061L16.9706 9.53686L16.95 9.70311L16.9256 9.86873L16.8975 10.0337L16.8669 10.1975L16.8325 10.3612L16.7956 10.5237L16.755 10.685L16.7113 10.8456L16.665 11.0056L16.615 11.1644L16.5625 11.3219L16.5063 11.4781L16.4475 11.6337L16.3856 11.7875L16.32 11.9406L16.2525 12.0925L16.1813 12.2425L16.1075 12.3912L16.0306 12.5387L15.9506 12.6844L15.8681 12.8294L15.7825 12.9725L15.6938 13.1131L15.6025 13.2531L15.5081 13.3912L15.4113 13.5269L15.3113 13.6612L15.2094 13.7937L15.1031 13.925L14.9956 14.0531L14.885 14.18L14.7719 14.3044L14.6556 14.4275L14.5363 14.5481L14.4163 14.6662L14.2931 14.7819L14.1688 14.895L14.0419 15.005L13.9131 15.1125L13.7825 15.2175L13.65 15.32L13.5163 15.4187L13.38 15.5156L13.2419 15.6094L13.1025 15.7006L12.9613 15.7887L12.8188 15.8744L12.6744 15.9569L12.5288 16.0369L12.3819 16.1131L12.2331 16.1869L12.0831 16.2581L11.9319 16.3256L11.7794 16.3912L11.6256 16.4525L11.4706 16.5119L11.3138 16.5681L11.1569 16.6206L10.9981 16.6712L10.8394 16.7175L10.6794 16.7612L10.5175 16.8019L10.3556 16.8394L10.1925 16.8737L10.0288 16.9044L9.86438 16.9325L9.69938 16.9575L9.53313 16.9787L9.36688 16.9975L9.19938 17.0119L9.03188 17.0237L8.86438 17.0319L8.695 17.0375L8.52688 17.0394L8.17625 17.0319L7.82875 17.0112L7.48563 16.9769L7.14688 16.9287L6.8125 16.8675L6.4825 16.7931L6.1575 16.7062L5.8375 16.6075L5.52375 16.4956L5.215 16.3725L4.91313 16.2375L4.6175 16.0919L4.3275 15.935L4.045 15.7669L3.77 15.5894L3.50188 15.4006L3.24188 15.2025L2.99 14.9944L2.74563 14.7775L2.51063 14.5512L2.28438 14.3162L2.06625 14.0725L1.85813 13.8206L1.65938 13.5606L1.47063 13.2931L1.2925 13.0181L1.125 12.7356L0.9675 12.4462L0.82125 12.15L0.685625 11.8481L0.5625 11.5406L0.45125 11.2262L0.35125 10.9062L0.26375 10.5812L0.189375 10.2519L0.1275 9.91686L0.079375 9.57811L0.044375 9.23498L0.023125 8.88873L0.015625 8.53748L0.0225 8.18748L0.04375 7.83998L0.078125 7.49686L0.12625 7.15811L0.1875 6.82311L0.261875 6.49373L0.34875 6.16873L0.448125 5.84873L0.559375 5.53498L0.681875 5.22623L0.816875 4.92373L0.963125 4.62811L1.12 4.33873L1.2875 4.05623L1.46563 3.78123L1.65438 3.51311L1.8525 3.25311L2.06 3.00061L2.2775 2.75686L2.50375 2.52123L2.73938 2.29498L2.9825 2.07748L3.23438 1.86936L3.495 1.67061L3.76188 1.48186L4.0375 1.30373L4.32 1.13561L4.60875 0.978731L4.90438 0.832481L5.20625 0.696856L5.515 0.573731L5.82875 0.461856L6.14875 0.36248L6.47313 0.27498L6.80313 0.200605L7.1375 0.13873L7.47625 0.0899805L7.81938 0.0556055L8.16688 0.0343555L8.5175 0.0268555L8.86813 0.0337305L9.215 0.0543555ZM15.3563 16.5637L14.4844 15.6937L14.255 15.465L14.2813 15.4444L14.3075 15.4231L14.3338 15.4025L14.36 15.3812L14.3856 15.3594L14.4113 15.3381L14.4375 15.3156L14.4888 15.2719L14.54 15.2269L14.5656 15.205L14.5906 15.1819L14.6156 15.1594L14.6413 15.1356L14.6663 15.1131L14.6913 15.09L14.7413 15.0425L14.7656 15.0194L14.7906 14.9956L14.815 14.9719L14.8638 14.9231L14.8881 14.8994L14.9119 14.875L14.9606 14.8262L14.9844 14.8019L15.0081 14.7769L15.0313 14.7525L15.0788 14.7025L15.125 14.6525L15.1488 14.6275L15.1719 14.6019L15.1944 14.5769L15.2175 14.5512L15.24 14.5256L15.2631 14.5L15.3081 14.4487L15.3306 14.4225L15.3756 14.3712L15.3975 14.345L15.4194 14.3194L15.4419 14.2925L15.4638 14.2662L16.5625 15.365L15.3563 16.5637ZM8.07 1.41623L7.79438 1.43936L7.52 1.47311L7.24563 1.51686L6.97313 1.57186L6.70188 1.63811L6.43188 1.71561L6.16375 1.80373L5.8975 1.90311L5.635 2.01311L5.375 2.13498L5.11813 2.26811L4.86563 2.41311L4.61625 2.56936L4.37313 2.73498L4.13938 2.90936L3.915 3.09186L3.69938 3.28123L3.4925 3.47873L3.29563 3.68186L3.1075 3.89248L2.92938 4.10873L2.76 4.33123L2.6 4.55936L2.45063 4.79311L2.31 5.03186L2.17938 5.27498L2.05813 5.52186L1.9475 5.77373L1.84625 6.02873L1.75438 6.28748L1.67375 6.54936L1.60188 6.81373L1.54125 7.08061L1.49063 7.34998L1.45 7.62061L1.42 7.89311L1.40063 8.16623L1.39125 8.44123L1.39188 8.71623L1.40438 8.99186L1.42688 9.26686L1.46063 9.54123L1.50438 9.81498L1.56 10.0881L1.62563 10.36L1.70313 10.63L1.79125 10.8975L1.89063 11.1631L2.00125 11.4256L2.12313 11.6862L2.25688 11.9425L2.40125 12.1956L2.55688 12.445L2.5975 12.5062L2.63875 12.5669L2.7225 12.6869L2.80875 12.8044L2.85313 12.8631L2.8975 12.9206L2.9425 12.9781L2.98875 13.035L3.035 13.0906L3.08188 13.1469L3.12938 13.2025L3.1775 13.2575L3.22625 13.3119L3.275 13.3656L3.375 13.4719L3.42563 13.5244L3.47688 13.5756L3.52875 13.6269L3.58125 13.6775L3.63438 13.7281L3.6875 13.7775L3.74125 13.8269L3.795 13.8756L3.85 13.9231L3.90563 13.9706L4.01813 14.0644L4.07438 14.11L4.13188 14.155L4.24813 14.2437L4.30688 14.2869L4.36625 14.33L4.42625 14.3725L4.48625 14.4137L4.54688 14.455L4.6075 14.4956L4.85688 14.6519L5.10875 14.7962L5.36563 14.9294L5.625 15.0512L5.88813 15.1625L6.15313 15.2612L6.42063 15.35L6.69 15.4269L6.96125 15.4937L7.23375 15.5481L7.50813 15.5931L7.78188 15.6269L8.05688 15.6494L8.33188 15.6612L8.60688 15.6631L8.88063 15.6544L9.15375 15.6344L9.42625 15.6044L9.69625 15.5644L9.96563 15.5137L10.2325 15.4531L10.4969 15.3819L10.7581 15.3012L11.0163 15.21L11.2713 15.1087L11.5231 14.9981L11.77 14.8781L12.0131 14.7475L12.2513 14.6075L12.485 14.4575L12.7125 14.2981L12.935 14.1294L13.1519 13.9512L13.3619 13.7637L13.5656 13.5669L13.7625 13.3606L13.9519 13.1456L14.1344 12.9206L14.3081 12.6875L14.4744 12.445H14.4763L14.4769 12.4444H14.4894L14.49 12.445H14.4919L14.6056 12.2656L14.7131 12.0837L14.815 11.9L14.9119 11.7131L15.0019 11.525L15.0863 11.3344L15.165 11.1425L15.2381 10.9487L15.305 10.7531L15.3663 10.5562L15.4219 10.3575L15.4713 10.1587L15.515 9.95811L15.5525 9.75623L15.585 9.55436L15.6113 9.35186L15.6313 9.14873L15.6463 8.94498L15.655 8.74061L15.6581 8.53623L15.655 8.33248L15.6463 8.12873L15.6313 7.92498L15.6113 7.72123L15.585 7.51873L15.5525 7.31686L15.515 7.11498L15.4713 6.91498L15.4219 6.71561L15.3663 6.51686L15.305 6.31998L15.2381 6.12436L15.165 5.93061L15.0863 5.73873L15.0019 5.54811L14.9119 5.35998L14.815 5.17373L14.7131 4.98936L14.6056 4.80748L14.4919 4.62811L14.3256 4.38561L14.1513 4.15186L13.9694 3.92686L13.78 3.71123L13.5831 3.50498L13.3794 3.30811L13.1688 3.11998L12.9519 2.94123L12.73 2.77186L12.5013 2.61248L12.2681 2.46248L12.03 2.32248L11.7869 2.19123L11.5388 2.07061L11.2875 1.95936L11.0319 1.85811L10.7738 1.76686L10.5119 1.68561L10.2475 1.61436L9.98063 1.55311L9.71125 1.50248L9.44063 1.46186L9.16813 1.43186L8.89438 1.41248L8.62 1.40311L8.345 1.40436L8.07 1.41623ZM8.84063 9.44373L9.00188 9.45311L9.16313 9.46748L9.32313 9.48498L9.48313 9.50686L9.64188 9.53186L9.79938 9.56123L9.95625 9.59436L10.1119 9.63123L10.2669 9.67123L10.4194 9.71498L10.5719 9.76248L10.7219 9.81373L10.8713 9.86873L11.0194 9.92748L11.1656 9.98936L11.3106 10.0544L11.4531 10.1231L11.595 10.1956L11.7344 10.2706L11.8719 10.35L12.0081 10.4319L12.1419 10.5175L12.2738 10.6056L12.4038 10.6975L12.5313 10.7925L12.6569 10.8906L12.78 10.9919L12.9013 11.0962L13.0194 11.2037L13.1356 11.3137L13.2494 11.4275L13.36 11.5431L13.4681 11.6625L13.5744 11.7844L13.6775 11.9094L13.7775 12.0369L13.8744 12.1675L13.9688 12.3006L13.9344 12.35L13.8988 12.3987L13.8638 12.4475L13.8281 12.4962L13.7925 12.5444L13.7188 12.6394L13.6806 12.6862L13.6431 12.7331L13.605 12.7794L13.5663 12.8256L13.5275 12.8712L13.4881 12.9162L13.4481 12.9606L13.4075 13.0056L13.3669 13.0494L13.3256 13.0937L13.2844 13.1369L13.2425 13.18L13.2006 13.2225L13.1581 13.2644L13.115 13.3062L13.0713 13.3481L13.0281 13.3887L12.9831 13.43L12.9394 13.47L12.8944 13.5094L12.8031 13.5881L12.7575 13.6269L12.7113 13.665L12.6644 13.7031L12.6175 13.74L12.57 13.7775L12.5219 13.8137L12.4744 13.85L12.3769 13.9212L12.3281 13.9562L12.2788 13.9906L12.0506 14.1406L11.8188 14.2812L11.5838 14.4106L11.345 14.5294L11.1031 14.6381L10.8588 14.7362L10.6125 14.8244L10.3631 14.9019L10.1125 14.9694L9.86 15.0262L9.60688 15.0737L9.3525 15.1112L9.09813 15.1387L8.8425 15.1556L8.58688 15.1631L8.33188 15.1606L8.0775 15.1487L7.82438 15.1269L7.57188 15.0956L7.32063 15.0537L7.07188 15.0037L6.82438 14.9437L6.57938 14.8737L6.3375 14.795L6.09813 14.7069L5.86188 14.6094L5.62938 14.5025L5.40063 14.3862L5.17625 14.2619L4.95625 14.1275L4.74063 13.9844L4.53 13.8319L4.325 13.6712L4.12563 13.5012L3.93188 13.3231L3.74438 13.1362L3.56375 12.94L3.38938 12.7356L3.2225 12.5225L3.06313 12.3006L3.15688 12.1675L3.25438 12.0369L3.35375 11.9094L3.45688 11.7844L3.56188 11.6619L3.67063 11.5431L3.78125 11.4269L3.895 11.3131L4.01063 11.2031L4.12875 11.0956L4.25 10.9912L4.37313 10.89L4.49875 10.7919L4.62625 10.6969L4.75625 10.605L4.8875 10.5162L5.02125 10.4306L5.1575 10.3487L5.295 10.27L5.435 10.1944L5.57625 10.1225L5.71875 10.0537L5.86375 9.98811L6.01 9.92623L6.15813 9.86873L6.3075 9.81373L6.4575 9.76248L6.61 9.71436L6.7625 9.67061L6.9175 9.62998L7.07313 9.59311L7.23 9.56061L7.3875 9.53186L7.54563 9.50623L7.70563 9.48436L7.86625 9.46686L8.0275 9.45311L8.18875 9.44311L8.35125 9.43748L8.51438 9.43498L8.6775 9.43748L8.84063 9.44373ZM8.67875 4.94186L8.75938 4.94998L8.83875 4.96186L8.9175 4.97623L8.99563 4.99373L9.07125 5.01373L9.14688 5.03748L9.22063 5.06373L9.29313 5.09248L9.36438 5.12436L9.43375 5.15873L9.5025 5.19623L9.56875 5.23561L9.63313 5.27748L9.69625 5.32123L9.75688 5.36811L9.81688 5.41748L9.87375 5.46811L9.92938 5.52123L9.9825 5.57686L10.0331 5.63436L10.0825 5.69373L10.1294 5.75436L10.1731 5.81811L10.215 5.88186L10.255 5.94873L10.2919 6.01686L10.3263 6.08623L10.3581 6.15748L10.3869 6.22998L10.4131 6.30373L10.4369 6.37936L10.4575 6.45498L10.4744 6.53311L10.4888 6.61186L10.5006 6.69186L10.5088 6.77186L10.5138 6.85373L10.5156 6.93623L10.5138 7.01873L10.5088 7.10061L10.5006 7.18061L10.4888 7.26061L10.4744 7.33936L10.4575 7.41686L10.4369 7.49311L10.4131 7.56873L10.3869 7.64248L10.3581 7.71498L10.3263 7.78623L10.2919 7.85561L10.255 7.92373L10.215 7.99061L10.1731 8.05498L10.1294 8.11811L10.0825 8.17873L10.0331 8.23811L9.9825 8.29561L9.92938 8.35123L9.87375 8.40436L9.81688 8.45498L9.75688 8.50436L9.69625 8.55123L9.63313 8.59498L9.56875 8.63686L9.5025 8.67623L9.43375 8.71373L9.36438 8.74811L9.29313 8.77936L9.22063 8.80873L9.14688 8.83498L9.07125 8.85811L8.99563 8.87873L8.9175 8.89623L8.83875 8.91061L8.75938 8.92186L8.67875 8.93061L8.59688 8.93498L8.51438 8.93686L8.43188 8.93498L8.35063 8.93061L8.27 8.92186L8.19 8.91061L8.11125 8.89623L8.03375 8.87873L7.9575 8.85811L7.88188 8.83498L7.80813 8.80873L7.73563 8.77936L7.66438 8.74811L7.595 8.71373L7.52688 8.67623L7.46063 8.63686L7.39625 8.59498L7.33313 8.55123L7.27188 8.50436L7.2125 8.45498L7.155 8.40436L7.09938 8.35123L7.04688 8.29561L6.99563 8.23811L6.94625 8.17873L6.89938 8.11811L6.85563 8.05498L6.81375 7.99061L6.77438 7.92373L6.73688 7.85561L6.7025 7.78623L6.67125 7.71498L6.64188 7.64248L6.61563 7.56873L6.5925 7.49311L6.57188 7.41686L6.55438 7.33936L6.54 7.26061L6.52875 7.18061L6.52 7.10061L6.51563 7.01873L6.51375 6.93623L6.51563 6.85373L6.52 6.77186L6.52875 6.69186L6.54 6.61186L6.55438 6.53311L6.57188 6.45498L6.5925 6.37936L6.61563 6.30373L6.64188 6.22998L6.67125 6.15748L6.7025 6.08623L6.73688 6.01686L6.77438 5.94873L6.81375 5.88186L6.85563 5.81811L6.89938 5.75436L6.94625 5.69373L6.99563 5.63436L7.04688 5.57686L7.09938 5.52123L7.155 5.46811L7.2125 5.41748L7.27188 5.36811L7.33313 5.32123L7.39625 5.27748L7.46063 5.23561L7.52688 5.19623L7.595 5.15873L7.66438 5.12436L7.73563 5.09248L7.80813 5.06373L7.88188 5.03748L7.9575 5.01373L8.03375 4.99373L8.11125 4.97623L8.19 4.96186L8.27 4.94998L8.35063 4.94186L8.43188 4.93748L8.51438 4.93498L8.59688 4.93748L8.67875 4.94186Z" fill="white"/>
</mask>
<g mask="url(#mask1_3446_9528)">
<path d="M0.015625 0.0268555V23.9737H23.96V0.0268555H0.015625Z" fill="#0084FF"/>
</g>
</g>
</svg>
