<svg width="48" height="47" viewBox="0 0 48 47" fill="none" xmlns="http://www.w3.org/2000/svg">
<mask id="mask0_3376_6433" style="mask-type:luminance" maskUnits="userSpaceOnUse" x="0" y="0" width="48" height="47">
<path d="M0.5 0H47.5V47H0.5V0Z" fill="white"/>
</mask>
<g mask="url(#mask0_3376_6433)">
<mask id="mask1_3376_6433" style="mask-type:luminance" maskUnits="userSpaceOnUse" x="0" y="0" width="48" height="47">
<path d="M46.3038 40.6245L46.3075 40.6282L46.3111 40.6331L46.3209 40.6404L46.3246 40.6453L46.3283 40.649L46.3332 40.6527L46.3369 40.6576L46.3466 40.6649L46.3503 40.6686L46.354 40.6747L46.3577 40.6784L46.3638 40.682L46.3675 40.6869L46.3711 40.6906L46.376 40.6943L46.3834 40.7041L46.3932 40.7114L46.3968 40.7163L46.4091 40.7285L46.4127 40.7334L46.4176 40.7371L46.4262 40.7457L46.4299 40.7506L46.4348 40.7542L46.4421 40.764L46.447 40.7677L46.4507 40.7714L46.4544 40.7763L46.4629 40.7848L46.4666 40.7897L46.567 40.9023L46.6624 41.0186L46.7518 41.1373L46.8362 41.2573L46.9158 41.3821L46.988 41.507L47.0553 41.6355L47.119 41.7652L47.1753 41.8974L47.2267 42.0296L47.2732 42.1655L47.3136 42.3026L47.3491 42.4396L47.3784 42.5767L47.4029 42.7163L47.4213 42.8558L47.4347 42.9965L47.4433 43.1373L47.4458 43.278L47.4445 43.4188L47.436 43.5583L47.4225 43.6991L47.4041 43.8386L47.3797 43.9781L47.3503 44.1152L47.316 44.2523L47.2769 44.3882L47.2316 44.5228L47.1814 44.6562L47.1251 44.7872L47.0639 44.9157L46.9978 45.043L46.9256 45.1678L46.8485 45.2915L46.7665 45.4102L46.6796 45.5289L46.5853 45.6427L46.4886 45.7553L46.3846 45.863L46.2757 45.9683L46.1631 46.0687L46.048 46.1641L45.9293 46.2535L45.8081 46.3379L45.6845 46.4163L45.5584 46.4897L45.4311 46.557L45.3002 46.6195L45.1692 46.6758L45.0346 46.7284L44.8999 46.7737L44.7641 46.8141L44.627 46.8496L44.4875 46.8789L44.3491 46.9034L44.2084 46.923L44.0689 46.9377L43.9281 46.945L43.7873 46.9487L43.6478 46.945L43.5058 46.9377L43.3663 46.9242L43.2268 46.9059L43.0885 46.8814L42.9502 46.8532L42.8131 46.819L42.6772 46.7773L42.5438 46.7333L42.4104 46.6819L42.2794 46.6268L42.1497 46.5656L42.0224 46.4983L41.8976 46.4273L41.7752 46.349L41.654 46.267L41.5365 46.1801L41.4214 46.0883L41.3113 45.9891L41.2023 45.8863L41.0971 45.7774L29.8758 34.5549L35.0764 29.3971L46.3038 40.6245ZM18.5701 0.106589L19.2421 0.17513L19.9055 0.269375L20.5615 0.389323L21.2065 0.534974L21.843 0.70388L22.4697 0.899714L23.0841 1.11635L23.6887 1.35747L24.2799 1.62185L24.8601 1.90826L25.4267 2.21424L25.98 2.54349L26.5185 2.89232L27.0436 3.26073L27.5528 3.64995L28.046 4.0563L28.5246 4.48224L28.9848 4.92531L29.4291 5.38552L29.855 5.86286L30.2626 6.35612L30.6518 6.86529L31.0215 7.38914L31.3703 7.92891L31.6995 8.48091L32.008 9.04638L32.2944 9.62654L32.5588 10.2177L32.7999 10.8223L33.019 11.4368L33.2148 12.0622L33.3849 12.6987L33.5306 13.3437L33.6517 13.9997L33.746 14.6631L33.8145 15.3351L33.8561 16.0156L33.8708 16.701L33.8684 17.0327L33.8598 17.3632L33.8451 17.6924L33.8219 18.0217L33.7937 18.3509L33.7582 18.6765L33.7178 19.0021L33.6701 19.3264L33.615 19.6495L33.5551 19.9702L33.4877 20.2909L33.4155 20.6091L33.336 20.9249L33.2503 21.2395L33.1597 21.5528L33.0618 21.8637L32.959 22.1721L32.8488 22.4781L32.7338 22.7829L32.6126 23.084L32.4841 23.3838L32.3519 23.6812L32.2124 23.975L32.0679 24.2663L31.9174 24.5552L31.7607 24.8403L31.5992 25.1243L31.4315 25.4046L31.2577 25.68L31.079 25.9541L30.8942 26.2246L30.7045 26.4902L30.5086 26.7534L30.3091 27.0129L30.101 27.2699L29.8905 27.5208L29.6739 27.7693L29.4523 28.0128L29.2247 28.254L28.9909 28.4902L28.7559 28.7215L28.5148 28.9479L28.2712 29.1695L28.0228 29.3849L27.7706 29.5954L27.5148 29.801L27.2553 30.0018L26.9934 30.1952L26.7266 30.3849L26.4561 30.5685L26.1832 30.7472L25.9065 30.9197L25.6275 31.0874L25.3447 31.249L25.0596 31.4057L24.7719 31.555L24.4806 31.6994L24.1869 31.8389L23.8907 31.9711L23.592 32.0996L23.2909 32.2196L22.9874 32.3359L22.6802 32.446L22.373 32.5488L22.0621 32.648L21.7512 32.7385L21.4379 32.8242L21.1209 32.9038L20.8039 32.9772L20.4844 33.0445L20.1637 33.1045L19.8418 33.1596L19.5187 33.2085L19.1931 33.2502L18.8676 33.2869L18.5395 33.315L18.2115 33.3383L17.8835 33.3542L17.5518 33.3652L17.2226 33.3689L16.5359 33.3542L15.8554 33.3138L15.1834 33.2465L14.5201 33.1522L13.8652 33.0323L13.219 32.8866L12.5825 32.7165L11.9559 32.5231L11.3414 32.304L10.7368 32.0629L10.1456 31.7985L9.56669 31.5134L8.99878 31.2061L8.44555 30.8769L7.90701 30.5293L7.38193 30.1597L6.87276 29.7717L6.37951 29.3641L5.90094 28.9394L5.44073 28.4963L4.99766 28.0361L4.5705 27.5588L4.16292 27.0655L3.7737 26.5563L3.40406 26.0325L3.05523 25.4939L2.72721 24.9407L2.41878 24.374L2.13237 23.7939L1.86677 23.2027L1.62565 22.6005L1.40779 21.9848L1.21195 21.3582L1.0406 20.7217L0.894948 20.0767L0.773776 19.4207L0.679531 18.7573L0.61099 18.0853L0.569375 17.4072L0.554688 16.7194L0.568151 16.034L0.609766 15.3534L0.677083 14.6815L0.771328 14.0181L0.891276 13.3621L1.03693 12.717L1.20706 12.0806L1.40167 11.4539L1.61953 10.8395L1.85943 10.2348L2.1238 9.64245L2.41021 9.06352L2.71742 8.49682L3.04544 7.94359L3.39427 7.40505L3.76391 6.87997L4.1519 6.37081L4.55826 5.87633L4.98419 5.39898L5.42727 4.93755L5.8887 4.49448L6.36482 4.06854L6.85807 3.66096L7.36846 3.27174L7.89109 2.90211L8.43086 2.55328L8.98409 2.22404L9.54956 1.91682L10.1285 1.63042L10.7197 1.36482L11.3243 1.1237L11.9387 0.904609L12.5654 0.71L13.2006 0.538646L13.8469 0.392995L14.5017 0.271823L15.1651 0.176354L15.837 0.109036L16.5176 0.0674219L17.2042 0.0527344L17.8908 0.0661979L18.5701 0.106589ZM30.5967 32.4374L28.8893 30.7337L28.4401 30.2857L28.4915 30.2453L28.5429 30.2037L28.5944 30.1633L28.6458 30.1217L28.6959 30.0789L28.7461 30.0373L28.7975 29.9932L28.8979 29.9075L28.9983 29.8194L29.0484 29.7766L29.0974 29.7313L29.1464 29.6872L29.1965 29.6407L29.2455 29.5966L29.2945 29.5514L29.3924 29.4583L29.4401 29.413L29.4891 29.3665L29.5368 29.32L29.6323 29.2246L29.68 29.178L29.7265 29.1303L29.822 29.0348L29.8685 28.9871L29.915 28.9382L29.9603 28.8904L30.0533 28.7925L30.1439 28.6946L30.1904 28.6456L30.2357 28.5954L30.2797 28.5465L30.325 28.4963L30.3691 28.4461L30.4144 28.3959L30.5025 28.2956L30.5466 28.2442L30.6347 28.1438L30.6775 28.0924L30.7204 28.0422L30.7644 27.9896L30.8073 27.9382L32.959 30.0899L30.5967 32.4374ZM16.3278 2.77359L15.7881 2.81888L15.2508 2.88497L14.7134 2.97065L14.1798 3.07836L13.6486 3.2081L13.1198 3.35987L12.5948 3.53245L12.0734 3.72706L11.5593 3.94247L11.0501 4.18115L10.5471 4.44185L10.0526 4.72581L9.56425 5.0318L9.08813 5.35615L8.63037 5.69763L8.19096 6.05503L7.7687 6.42589L7.36357 6.81266L6.97802 7.21044L6.60961 7.62292L6.26078 8.04641L5.92909 8.48214L5.61576 8.92888L5.32323 9.38664L5.04784 9.85419L4.79203 10.3303L4.55458 10.8138L4.33794 11.307L4.13966 11.8064L3.95974 12.3131L3.80185 12.826L3.66109 13.3437L3.54237 13.8663L3.44323 14.3939L3.36367 14.9238L3.30492 15.4575L3.26698 15.9923L3.24862 16.5309L3.24984 17.0694L3.27432 17.6092L3.31839 18.1477L3.38448 18.6851L3.47016 19.2211L3.57909 19.756L3.7076 20.2884L3.85938 20.8172L4.03195 21.341L4.22656 21.8612L4.4432 22.3753L4.68188 22.8857L4.9438 23.3875L5.22654 23.8832L5.5313 24.3716L5.61086 24.4915L5.69164 24.6102L5.85565 24.8452L6.02456 25.0753L6.11146 25.1904L6.19836 25.303L6.28648 25.4156L6.37706 25.527L6.46763 25.6359L6.55943 25.7461L6.65245 25.855L6.74669 25.9627L6.84216 26.0692L6.93763 26.1745L7.13346 26.3825L7.2326 26.4853L7.33297 26.5857L7.43456 26.6861L7.53737 26.7852L7.64141 26.8843L7.74544 26.981L7.8507 27.0777L7.95596 27.1732L8.06367 27.2662L8.17261 27.3592L8.39292 27.5428L8.50307 27.6322L8.61568 27.7203L8.84333 27.8941L8.95839 27.9786L9.07466 28.063L9.19216 28.1462L9.30966 28.227L9.42839 28.3078L9.54711 28.3874L10.0355 28.6934L10.5287 28.9761L11.0318 29.2368L11.5397 29.4755L12.055 29.6933L12.574 29.8867L13.0978 30.0605L13.6253 30.2111L14.1565 30.342L14.6902 30.4485L15.2275 30.5366L15.7636 30.6027L16.3021 30.6468L16.8407 30.6701L17.3792 30.6737L17.9153 30.6566L18.4502 30.6174L18.9838 30.5587L19.5126 30.4803L20.0401 30.3812L20.5627 30.2625L21.0805 30.1229L21.5921 29.9651L22.0976 29.7864L22.597 29.5881L23.0902 29.3714L23.5737 29.1364L24.0498 28.8806L24.5161 28.6065L24.9739 28.3127L25.4194 28.0006L25.8551 27.6701L26.2798 27.3213L26.6911 26.9541L27.0901 26.5686L27.4757 26.1647L27.8465 25.7436L28.2039 25.303L28.5442 24.8465L28.8697 24.3716H28.8734L28.8746 24.3703H28.8991L28.9003 24.3716H28.904L29.1268 24.0203L29.3373 23.6641L29.5368 23.3043L29.7265 22.9383L29.9028 22.5699L30.068 22.1966L30.2222 21.8208L30.3654 21.4414L30.4964 21.0583L30.6163 20.6728L30.7253 20.2835L30.822 19.8943L30.9076 19.5014L30.9811 19.1061L31.0447 18.7108L31.0961 18.3142L31.1353 17.9164L31.1647 17.5174L31.1818 17.1172L31.1879 16.7169L31.1818 16.3179L31.1647 15.9189L31.1353 15.5199L31.0961 15.1209L31.0447 14.7243L30.9811 14.329L30.9076 13.9336L30.822 13.542L30.7253 13.1515L30.6163 12.7623L30.4964 12.3768L30.3654 11.9937L30.2222 11.6142L30.068 11.2385L29.9028 10.8652L29.7265 10.4968L29.5368 10.132L29.3373 9.77096L29.1268 9.41479L28.904 9.06352L28.5784 8.58862L28.237 8.13086L27.8808 7.69023L27.5099 7.26797L27.1244 6.86406L26.7254 6.47852L26.3129 6.1101L25.8882 5.76005L25.4537 5.42836L25.0057 5.11625L24.5492 4.8225L24.0828 4.54833L23.6067 4.2913L23.1208 4.05508L22.6288 3.83721L22.1282 3.63893L21.6227 3.46023L21.1098 3.30112L20.5921 3.16159L20.0695 3.04164L19.542 2.9425L19.012 2.86294L18.4783 2.80419L17.9422 2.76625L17.4049 2.74789L16.8664 2.75034L16.3278 2.77359ZM17.837 18.4941L18.1528 18.5125L18.4685 18.5406L18.7819 18.5749L19.0952 18.6177L19.4061 18.6667L19.7145 18.7242L20.0217 18.7891L20.3265 18.8613L20.6301 18.9396L20.9287 19.0253L21.2273 19.1183L21.5211 19.2187L21.8136 19.3264L22.1037 19.4415L22.3901 19.5626L22.6741 19.6899L22.9531 19.8246L23.231 19.9665L23.5039 20.1134L23.7732 20.2689L24.04 20.4292L24.3019 20.5969L24.5602 20.7695L24.8148 20.9494L25.0645 21.1354L25.3105 21.3276L25.5516 21.5259L25.789 21.7303L26.0204 21.9408L26.248 22.1562L26.4708 22.379L26.6874 22.6054L26.8992 22.8392L27.1072 23.0778L27.3092 23.3226L27.505 23.5723L27.6947 23.8281L27.8796 24.0888L27.8122 24.1855L27.7425 24.281L27.6739 24.3765L27.6042 24.4719L27.5344 24.5662L27.39 24.7522L27.3153 24.844L27.2419 24.9358L27.1672 25.0264L27.0913 25.117L27.0154 25.2063L26.9383 25.2944L26.86 25.3813L26.7804 25.4695L26.7009 25.5551L26.6201 25.642L26.5393 25.7265L26.4573 25.8109L26.3753 25.8942L26.2921 25.9762L26.2076 26.0582L26.122 26.1402L26.0375 26.2197L25.9494 26.3005L25.8637 26.3789L25.7756 26.456L25.5969 26.6102L25.5075 26.6861L25.417 26.7607L25.3252 26.8354L25.2334 26.9076L25.1403 26.981L25.0461 27.052L24.9531 27.123L24.7621 27.2626L24.6667 27.3311L24.57 27.3984L24.1232 27.6922L23.6691 27.9676L23.2089 28.2209L22.7414 28.4535L22.2677 28.6664L21.7891 28.8586L21.3069 29.0312L20.8185 29.1829L20.3277 29.3151L19.8333 29.4265L19.3376 29.5195L18.8394 29.593L18.3413 29.6468L17.8407 29.6799L17.3401 29.6946L16.8407 29.6897L16.3425 29.6664L15.8468 29.6236L15.3523 29.5624L14.8603 29.4804L14.3732 29.3824L13.8885 29.2649L13.4087 29.1279L12.935 28.9736L12.4663 28.8011L12.0036 28.6101L11.5483 28.4008L11.1003 28.1732L10.6609 27.9296L10.2301 27.6665L9.80781 27.3862L9.39534 27.0875L8.99388 26.773L8.60344 26.4401L8.22401 26.0912L7.85682 25.7253L7.5031 25.3409L7.16162 24.9407L6.83482 24.5233L6.52271 24.0888L6.7063 23.8281L6.89724 23.5723L7.09185 23.3226L7.2938 23.0778L7.49943 22.8379L7.7124 22.6054L7.92904 22.3777L8.1518 22.155L8.37823 21.9396L8.60956 21.729L8.84701 21.5246L9.08813 21.3264L9.33414 21.1342L9.58383 20.9482L9.83841 20.7682L10.0954 20.5944L10.3574 20.4267L10.6242 20.2664L10.8935 20.1122L11.1676 19.9641L11.4442 19.8233L11.7233 19.6887L12.0073 19.5602L12.2937 19.439L12.5838 19.3264L12.8763 19.2187L13.17 19.1183L13.4687 19.0241L13.7673 18.9384L14.0709 18.8589L14.3756 18.7866L14.6828 18.723L14.9913 18.6667L15.3009 18.6165L15.6143 18.5737L15.9288 18.5394L16.2446 18.5125L16.5604 18.4929L16.8786 18.4819L17.1981 18.477L17.5175 18.4819L17.837 18.4941ZM17.52 9.67794L17.6779 9.69385L17.8333 9.71711L17.9875 9.74526L18.1405 9.77953L18.2886 9.8187L18.4367 9.86521L18.5811 9.91661L18.7231 9.97292L18.8627 10.0353L18.9985 10.1027L19.1332 10.1761L19.2629 10.2532L19.389 10.3352L19.5126 10.4209L19.6313 10.5127L19.7488 10.6094L19.8602 10.7085L19.9691 10.8126L20.0732 10.9215L20.1723 11.0341L20.269 11.1504L20.3608 11.2691L20.4465 11.3939L20.5285 11.5188L20.6068 11.6497L20.679 11.7832L20.7463 11.919L20.8088 12.0585L20.8651 12.2005L20.9165 12.3449L20.963 12.493L21.0034 12.6411L21.0364 12.7941L21.0646 12.9484L21.0878 13.105L21.1037 13.2617L21.1135 13.422L21.1172 13.5836L21.1135 13.7452L21.1037 13.9055L21.0878 14.0622L21.0646 14.2188L21.0364 14.373L21.0034 14.5248L20.963 14.6741L20.9165 14.8222L20.8651 14.9667L20.8088 15.1086L20.7463 15.2482L20.679 15.384L20.6068 15.5174L20.5285 15.6484L20.4465 15.7745L20.3608 15.8981L20.269 16.0168L20.1723 16.1331L20.0732 16.2457L19.9691 16.3546L19.8602 16.4587L19.7488 16.5578L19.6313 16.6545L19.5126 16.7463L19.389 16.832L19.2629 16.914L19.1332 16.9911L18.9985 17.0645L18.8627 17.1318L18.7231 17.193L18.5811 17.2506L18.4367 17.302L18.2886 17.3473L18.1405 17.3877L17.9875 17.4219L17.8333 17.4501L17.6779 17.4721L17.52 17.4892L17.3596 17.4978L17.1981 17.5015L17.0365 17.4978L16.8774 17.4892L16.7195 17.4721L16.5628 17.4501L16.4086 17.4219L16.2569 17.3877L16.1075 17.3473L15.9594 17.302L15.815 17.2506L15.673 17.193L15.5335 17.1318L15.3976 17.0645L15.2642 16.9911L15.1345 16.914L15.0084 16.832L14.8848 16.7463L14.7648 16.6545L14.6486 16.5578L14.536 16.4587L14.427 16.3546L14.3242 16.2457L14.2239 16.1331L14.1272 16.0168L14.0354 15.8981L13.9497 15.7745L13.8677 15.6484L13.7906 15.5174L13.7171 15.384L13.6498 15.2482L13.5886 15.1086L13.5311 14.9667L13.4797 14.8222L13.4344 14.6741L13.394 14.5248L13.3597 14.373L13.3316 14.2188L13.3096 14.0622L13.2924 13.9055L13.2839 13.7452L13.2802 13.5836L13.2839 13.422L13.2924 13.2617L13.3096 13.105L13.3316 12.9484L13.3597 12.7941L13.394 12.6411L13.4344 12.493L13.4797 12.3449L13.5311 12.2005L13.5886 12.0585L13.6498 11.919L13.7171 11.7832L13.7906 11.6497L13.8677 11.5188L13.9497 11.3939L14.0354 11.2691L14.1272 11.1504L14.2239 11.0341L14.3242 10.9215L14.427 10.8126L14.536 10.7085L14.6486 10.6094L14.7648 10.5127L14.8848 10.4209L15.0084 10.3352L15.1345 10.2532L15.2642 10.1761L15.3976 10.1027L15.5335 10.0353L15.673 9.97292L15.815 9.91661L15.9594 9.86521L16.1075 9.8187L16.2569 9.77953L16.4086 9.74526L16.5628 9.71711L16.7195 9.69385L16.8774 9.67794L17.0365 9.66938L17.1981 9.66448L17.3596 9.66938L17.52 9.67794Z" fill="white"/>
</mask>
<g mask="url(#mask1_3376_6433)">
<path d="M0.554688 0.0527344V46.9487H47.4458V0.0527344H0.554688Z" fill="#0084FF"/>
</g>
</g>
</svg>
