<svg width="19" height="18" viewBox="0 0 19 18" fill="none" xmlns="http://www.w3.org/2000/svg">
<path d="M16.0247 13.8235C16.0247 14.2032 16.0669 16.3407 16.0669 16.3407H12.5372C12.5372 16.3407 12.5513 14.6672 12.5513 14.3297C12.5091 12.9235 12.1153 13.5141 11.4685 12.4454C10.4138 10.7016 10.8356 10.7579 10.3294 10.1251C10.0341 9.75943 9.59814 9.59068 9.47158 9.21099C9.35908 9.57662 8.90908 9.75943 8.62783 10.1251C8.10751 10.7719 8.52939 10.7157 7.48876 12.4454C6.84189 13.5141 6.44814 12.9235 6.42001 14.3297C6.40595 14.6672 6.42001 16.3407 6.42001 16.3407H2.89033C2.89033 16.3407 2.93251 14.2032 2.93251 13.8235C2.91845 12.9235 1.75126 13.2891 1.65283 10.5047C1.55439 7.67818 1.63876 6.60943 1.75126 5.97662C1.82158 5.59693 2.46845 5.59693 2.5247 5.99068C2.55283 6.15943 2.67939 8.55006 2.69345 8.64849C2.69345 8.74693 2.82001 8.71881 2.83408 8.64849C2.83408 8.56412 2.94658 4.87974 2.96064 4.69693C3.04501 4.10631 3.90283 4.09224 3.94501 4.68287C3.95908 4.86568 4.0997 8.33912 4.11376 8.42349C4.12783 8.50787 4.22626 8.47974 4.22626 8.42349C4.22626 8.36724 4.31064 4.40162 4.3247 4.17662C4.38095 3.51568 5.32314 3.50162 5.39345 4.16256C5.42158 4.35943 5.49189 8.36724 5.49189 8.47974C5.50595 8.59224 5.63251 8.57818 5.63251 8.47974C5.63251 8.42349 5.84345 5.20318 5.84345 4.90787C5.84345 4.07818 6.95439 4.06412 6.96845 4.87974C6.96845 5.11881 6.94033 9.29537 6.94033 9.40787C6.94033 9.52037 6.96845 9.84381 7.01064 9.95631C7.64345 9.57662 7.78408 8.66256 8.97939 8.62037C9.23251 8.60631 9.40126 8.71881 9.47158 8.88756C9.54189 8.71881 9.7247 8.60631 9.96376 8.62037C11.1591 8.67662 11.2997 9.59068 11.9325 9.95631C11.9606 9.84381 12.0028 9.53443 12.0028 9.40787C12.0028 9.28131 11.9747 5.10474 11.9888 4.87974C12.0028 4.06412 13.1138 4.07818 13.0997 4.90787C13.0997 5.20318 13.3106 8.42349 13.3106 8.47974C13.3106 8.57818 13.4372 8.59224 13.4513 8.47974C13.4653 8.36724 13.5356 4.37349 13.5497 4.16256C13.62 3.50162 14.5622 3.51568 14.6185 4.17662C14.6325 4.40162 14.7169 8.36724 14.7169 8.42349C14.7169 8.47974 14.8153 8.52193 14.8294 8.42349C14.8435 8.33912 14.9841 4.86568 14.9981 4.68287C15.0544 4.09224 15.8981 4.10631 15.9825 4.69693C16.0106 4.86568 16.1091 8.56412 16.1231 8.64849C16.1231 8.73287 16.2497 8.74693 16.2638 8.64849C16.2638 8.55006 16.4044 6.15943 16.4325 5.99068C16.4888 5.59693 17.1356 5.59693 17.206 5.97662C17.3185 6.60943 17.4028 7.66412 17.3184 10.5047C17.22 13.2891 16.0388 12.9235 16.0247 13.8235Z" fill="#FFCA28"/>
<mask id="mask0_3238_9690" style="mask-type:luminance" maskUnits="userSpaceOnUse" x="1" y="3" width="17" height="14">
<path d="M16.0247 13.8235C16.0247 14.2032 16.0669 16.3407 16.0669 16.3407H12.5372C12.5372 16.3407 12.5513 14.6672 12.5513 14.3297C12.5091 12.9235 12.1153 13.5141 11.4685 12.4454C10.4138 10.7016 10.8356 10.7579 10.3294 10.1251C10.0341 9.75943 9.59814 9.59068 9.47158 9.21099C9.35908 9.57662 8.90908 9.75943 8.62783 10.1251C8.10751 10.7719 8.52939 10.7157 7.48876 12.4454C6.84189 13.5141 6.44814 12.9235 6.42001 14.3297C6.40595 14.6672 6.42001 16.3407 6.42001 16.3407H2.89033C2.89033 16.3407 2.93251 14.2032 2.93251 13.8235C2.91845 12.9235 1.75126 13.2891 1.65283 10.5047C1.55439 7.67818 1.63876 6.60943 1.75126 5.97662C1.82158 5.59693 2.46845 5.59693 2.5247 5.99068C2.55283 6.15943 2.67939 8.55006 2.69345 8.64849C2.69345 8.74693 2.82001 8.71881 2.83408 8.64849C2.83408 8.56412 2.94658 4.87974 2.96064 4.69693C3.04501 4.10631 3.90283 4.09224 3.94501 4.68287C3.95908 4.86568 4.0997 8.33912 4.11376 8.42349C4.12783 8.50787 4.22626 8.47974 4.22626 8.42349C4.22626 8.36724 4.31064 4.40162 4.3247 4.17662C4.38095 3.51568 5.32314 3.50162 5.39345 4.16256C5.42158 4.35943 5.49189 8.36724 5.49189 8.47974C5.50595 8.59224 5.63251 8.57818 5.63251 8.47974C5.63251 8.42349 5.84345 5.20318 5.84345 4.90787C5.84345 4.07818 6.95439 4.06412 6.96845 4.87974C6.96845 5.11881 6.94033 9.29537 6.94033 9.40787C6.94033 9.52037 6.96845 9.84381 7.01064 9.95631C7.64345 9.57662 7.78408 8.66256 8.97939 8.62037C9.23251 8.60631 9.40126 8.71881 9.47158 8.88756C9.54189 8.71881 9.7247 8.60631 9.96376 8.62037C11.1591 8.67662 11.2997 9.59068 11.9325 9.95631C11.9606 9.84381 12.0028 9.53443 12.0028 9.40787C12.0028 9.28131 11.9747 5.10474 11.9888 4.87974C12.0028 4.06412 13.1138 4.07818 13.0997 4.90787C13.0997 5.20318 13.3106 8.42349 13.3106 8.47974C13.3106 8.57818 13.4372 8.59224 13.4513 8.47974C13.4653 8.36724 13.5356 4.37349 13.5497 4.16256C13.62 3.50162 14.5622 3.51568 14.6185 4.17662C14.6325 4.40162 14.7169 8.36724 14.7169 8.42349C14.7169 8.47974 14.8153 8.52193 14.8294 8.42349C14.8435 8.33912 14.9841 4.86568 14.9981 4.68287C15.0544 4.09224 15.8981 4.10631 15.9825 4.69693C16.0106 4.86568 16.1091 8.56412 16.1231 8.64849C16.1231 8.73287 16.2497 8.74693 16.2638 8.64849C16.2638 8.55006 16.4044 6.15943 16.4325 5.99068C16.4888 5.59693 17.1356 5.59693 17.206 5.97662C17.3185 6.60943 17.4028 7.66412 17.3184 10.5047C17.22 13.2891 16.0388 12.9235 16.0247 13.8235Z" fill="white"/>
</mask>
<g mask="url(#mask0_3238_9690)">
<path d="M14.3531 12.2908C14.3531 12.4314 14.1422 12.4174 14.1141 12.2627C13.7625 10.3643 12.4969 10.0408 12.1875 9.97051C12.1453 10.1393 11.9625 10.1533 11.7938 10.083C11.1891 9.84394 11.1328 9.08457 10.2047 8.83145C9.64219 8.67676 9.51563 9.21113 9.83906 9.49238L9.47344 9.75957L9.10781 9.49238C9.43125 9.21113 9.30469 8.67676 8.74219 8.83145C7.8 9.08457 7.75781 9.85801 7.15312 10.083C6.97031 10.1533 6.80156 10.1252 6.75937 9.97051C6.45 10.0408 5.18437 10.3643 4.83281 12.2627C4.80469 12.4174 4.59375 12.4314 4.59375 12.2908C4.62188 9.87207 6.50625 9.70332 6.68906 9.6752C6.87188 9.64707 8.37656 8.07207 8.37656 8.07207L9.47344 8.18457L10.5703 8.07207C10.5703 8.07207 11.3578 8.90176 11.8641 9.36582L11.6531 4.76738L12.1031 3.99395L13.1156 3.96582L13.2562 5.41426L12.9188 4.80957C12.8766 4.35957 12.2438 4.37363 12.2156 4.85176L12.2859 9.49238C12.2859 9.49238 12.2859 9.59082 12.2719 9.6752C12.4969 9.71738 14.3109 9.91426 14.3531 12.2908Z" fill="#FAA700"/>
<path d="M13.0891 8.49384C13.2156 8.71884 13.6656 8.70477 13.6938 8.40946C13.7219 8.12821 13.75 4.33134 13.75 4.19071C13.75 3.85321 14.3547 3.71259 14.3969 4.16259C14.3969 4.16259 14.7484 4.41571 14.7344 4.16259C14.7344 3.90946 14.6219 3.45946 14.0875 3.48759C13.5531 3.51571 13.3703 3.79696 13.3563 4.10634C13.3422 4.41571 13.3422 8.00165 13.3422 8.00165L13.0891 8.49384ZM14.4672 8.32509C14.5094 8.66259 15.1 8.60634 15.1 8.32509C15.1 7.90321 15.1984 4.87977 15.2125 4.75321C15.2547 4.33134 15.775 4.41571 15.775 4.66884C15.775 4.9079 16.1406 4.85165 16.1266 4.66884C16.1125 4.48602 15.9578 4.09227 15.5078 4.10634C15.0437 4.13446 14.8609 4.28915 14.8469 4.55634C14.8328 4.82352 14.7484 7.81884 14.7484 7.81884L14.4672 8.32509ZM15.9016 8.59227C15.9016 8.83134 16.4922 8.81727 16.4922 8.59227C16.4922 8.33915 16.6188 6.20165 16.6188 6.07509C16.6328 5.86415 16.9703 5.82196 16.9984 6.07509C17.0266 6.3704 17.3359 6.24384 17.3359 6.11727C17.3359 5.99071 17.3359 5.51259 16.8297 5.52665C16.3234 5.54071 16.2109 5.8079 16.2109 6.00477C16.2109 6.20165 16.1547 8.24071 16.1547 8.24071L15.9016 8.59227ZM2.37344 6.13134C2.34531 5.79384 1.92344 5.86415 1.90938 6.13134C1.86719 6.63759 1.69844 8.55009 1.825 10.8985C1.83906 11.0813 1.52969 11.2079 1.50156 10.9126C1.45938 10.4626 1.44531 5.55477 1.44531 5.55477L2.52812 5.34384L2.71094 6.17352L2.45781 6.31415L2.37344 6.13134Z" fill="#FAA700"/>
<path d="M2.46094 8.59207C2.51719 8.87332 3.0375 8.84519 3.09375 8.59207C3.15 8.33894 3.15 5.03425 3.16406 4.85144C3.17813 4.34519 3.74063 4.38738 3.76875 4.71082C3.79688 5.00613 4.09219 4.90769 4.07812 4.68269C4.07812 4.45769 3.90938 4.06394 3.4875 4.078C3.06563 4.09207 2.71406 4.4155 2.71406 4.72488C2.71406 5.03425 2.75625 8.32488 2.75625 8.32488L2.46094 8.59207Z" fill="#FAA700"/>
<path d="M3.85156 8.35318C3.85156 8.63443 4.42813 8.63443 4.44219 8.35318C4.45625 8.07193 4.54063 4.47193 4.54063 4.23286C4.55469 3.78286 5.15937 3.81099 5.1875 4.12036C5.21562 4.42974 5.55313 4.3313 5.55313 4.12036C5.55313 3.92349 5.4125 3.45943 4.86406 3.48755C4.31563 3.51568 4.14687 3.8813 4.13281 4.05005C4.11875 4.2188 4.13281 8.05786 4.13281 8.05786L3.85156 8.35318ZM5.27188 8.45161C5.31406 8.74693 5.83437 8.67661 5.84844 8.45161C5.87656 8.22661 6.07344 4.99224 6.07344 4.82349C6.11562 4.3313 6.70625 4.4438 6.73437 4.71099C6.77656 4.99224 7.04375 4.8938 7.05781 4.71099C7.05781 4.52818 6.86094 4.05005 6.425 4.07818C5.98906 4.1063 5.72188 4.3313 5.69375 4.64068C5.66563 4.95005 5.53906 8.17036 5.53906 8.17036L5.27188 8.45161Z" fill="#FAA700"/>
</g>
<mask id="mask1_3238_9690" style="mask-type:luminance" maskUnits="userSpaceOnUse" x="1" y="3" width="17" height="14">
<path d="M16.0247 13.8235C16.0247 14.2032 16.0669 16.3407 16.0669 16.3407H12.5372C12.5372 16.3407 12.5513 14.6672 12.5513 14.3297C12.5091 12.9235 12.1153 13.5141 11.4685 12.4454C10.4138 10.7016 10.8356 10.7579 10.3294 10.1251C10.0341 9.75943 9.59814 9.59068 9.47158 9.21099C9.35908 9.57662 8.90908 9.75943 8.62783 10.1251C8.10751 10.7719 8.52939 10.7157 7.48876 12.4454C6.84189 13.5141 6.44814 12.9235 6.42001 14.3297C6.40595 14.6672 6.42001 16.3407 6.42001 16.3407H2.89033C2.89033 16.3407 2.93251 14.2032 2.93251 13.8235C2.91845 12.9235 1.75126 13.2891 1.65283 10.5047C1.55439 7.67818 1.63876 6.60943 1.75126 5.97662C1.82158 5.59693 2.46845 5.59693 2.5247 5.99068C2.55283 6.15943 2.67939 8.55006 2.69345 8.64849C2.69345 8.74693 2.82001 8.71881 2.83408 8.64849C2.83408 8.56412 2.94658 4.87974 2.96064 4.69693C3.04501 4.10631 3.90283 4.09224 3.94501 4.68287C3.95908 4.86568 4.0997 8.33912 4.11376 8.42349C4.12783 8.50787 4.22626 8.47974 4.22626 8.42349C4.22626 8.36724 4.31064 4.40162 4.3247 4.17662C4.38095 3.51568 5.32314 3.50162 5.39345 4.16256C5.42158 4.35943 5.49189 8.36724 5.49189 8.47974C5.50595 8.59224 5.63251 8.57818 5.63251 8.47974C5.63251 8.42349 5.84345 5.20318 5.84345 4.90787C5.84345 4.07818 6.95439 4.06412 6.96845 4.87974C6.96845 5.11881 6.94033 9.29537 6.94033 9.40787C6.94033 9.52037 6.96845 9.84381 7.01064 9.95631C7.64345 9.57662 7.78408 8.66256 8.97939 8.62037C9.23251 8.60631 9.40126 8.71881 9.47158 8.88756C9.54189 8.71881 9.7247 8.60631 9.96376 8.62037C11.1591 8.67662 11.2997 9.59068 11.9325 9.95631C11.9606 9.84381 12.0028 9.53443 12.0028 9.40787C12.0028 9.28131 11.9747 5.10474 11.9888 4.87974C12.0028 4.06412 13.1138 4.07818 13.0997 4.90787C13.0997 5.20318 13.3106 8.42349 13.3106 8.47974C13.3106 8.57818 13.4372 8.59224 13.4513 8.47974C13.4653 8.36724 13.5356 4.37349 13.5497 4.16256C13.62 3.50162 14.5622 3.51568 14.6185 4.17662C14.6325 4.40162 14.7169 8.36724 14.7169 8.42349C14.7169 8.47974 14.8153 8.52193 14.8294 8.42349C14.8435 8.33912 14.9841 4.86568 14.9981 4.68287C15.0544 4.09224 15.8981 4.10631 15.9825 4.69693C16.0106 4.86568 16.1091 8.56412 16.1231 8.64849C16.1231 8.73287 16.2497 8.74693 16.2638 8.64849C16.2638 8.55006 16.4044 6.15943 16.4325 5.99068C16.4888 5.59693 17.1356 5.59693 17.206 5.97662C17.3185 6.60943 17.4028 7.66412 17.3184 10.5047C17.22 13.2891 16.0388 12.9235 16.0247 13.8235Z" fill="white"/>
</mask>
<g mask="url(#mask1_3238_9690)">
<path d="M12.9896 13.5142C12.9193 13.5142 12.7365 13.5002 12.6521 13.472C12.8771 13.8658 12.9052 16.4252 12.9052 16.4252H12.3709L9.47398 9.43611L6.5771 16.4252H6.04273C6.04273 16.4252 6.07085 13.8799 6.29585 13.472C6.21148 13.5002 6.04273 13.5142 5.95835 13.5142C5.9021 13.5142 5.88804 13.4439 5.94429 13.4158C7.46304 12.6283 7.84273 11.1095 7.98335 10.6595C8.29273 9.66111 9.31929 9.35173 9.37554 9.04236C9.3896 8.95798 9.44585 8.94392 9.47398 8.94392C9.5021 8.94392 9.55835 8.95798 9.57242 9.04236C9.62867 9.35173 10.6552 9.66111 10.9646 10.6595C11.1052 11.1095 11.4849 12.6142 13.0037 13.4158C13.0599 13.4439 13.0459 13.5142 12.9896 13.5142ZM3.15992 16.4674C3.15992 16.4674 3.27242 13.6408 3.13179 13.5283H3.3146C3.35679 13.5283 3.39898 13.472 3.34273 13.4299C2.48492 12.9799 2.0771 12.3049 1.83804 10.8283C1.79585 10.6033 1.64117 10.5189 1.54273 10.4908C1.48648 10.4908 1.65523 12.4595 1.65523 12.4595L2.58335 16.4533L3.15992 16.4674ZM15.788 16.4674C15.788 16.4674 15.6755 13.6408 15.8162 13.5283H15.6334C15.5912 13.5283 15.549 13.472 15.6052 13.4299C16.463 12.9799 16.8568 12.122 16.9974 10.8283C17.138 9.53454 16.9834 7.05954 16.9834 6.44079C16.9834 6.38454 16.9834 5.94861 16.8709 5.79392C16.688 5.54079 17.5177 5.63923 17.5599 6.18767C17.6584 7.35486 17.5177 12.1783 17.5177 12.1783L16.3505 16.4533L15.788 16.4674ZM15.7599 4.26111C15.6615 4.19079 15.5912 4.30329 15.6334 4.35954C15.6755 4.41579 15.7318 4.47204 15.7459 4.68298C15.7459 4.68298 15.8162 8.21267 15.8302 8.35329C15.8584 8.77517 16.1677 8.74704 16.1959 8.63454C16.238 8.46579 16.224 4.33142 16.224 4.33142L15.7599 4.26111ZM14.2412 3.65642C14.199 3.64236 14.1005 3.68454 14.199 3.79704C14.2412 3.83923 14.3537 4.00798 14.3677 4.24704C14.3818 4.48611 14.438 7.90329 14.438 8.05798C14.4521 8.59236 14.7896 8.47986 14.7896 8.31111V4.06423L14.3818 3.65642H14.2412ZM12.7927 4.26111C12.7365 4.20486 12.624 4.26111 12.7084 4.33142C12.7927 4.40173 12.863 4.61267 12.8771 4.83767C12.8912 5.06267 12.9755 8.14236 12.9896 8.26892C13.0318 8.70486 13.3693 8.62048 13.3834 8.46579C13.3974 8.31111 13.2709 4.71111 13.2709 4.71111L12.9474 4.17673L12.7927 4.26111ZM7.01304 9.94236C6.88648 9.99861 6.6896 9.95642 6.6896 9.59079C6.6896 9.28142 6.74585 4.86579 6.74585 4.72517C6.74585 4.57048 6.63335 4.37361 6.5771 4.33142C6.52085 4.28923 6.59117 4.17673 6.6896 4.24704C6.78804 4.31736 7.1396 4.65486 7.1396 4.65486V9.68923L7.01304 9.94236ZM5.18492 3.69861C5.1146 3.64236 4.98804 3.67048 5.05835 3.76892C5.12867 3.85329 5.17085 4.02204 5.17085 4.17673C5.17085 4.33142 5.2271 8.22673 5.24117 8.32517C5.25523 8.66267 5.5646 8.60642 5.5646 8.46579C5.5646 8.18454 5.63492 4.05017 5.63492 4.05017L5.18492 3.69861ZM3.73648 4.26111C3.69429 4.23298 3.56773 4.24704 3.63804 4.33142C3.70835 4.41579 3.73648 4.54236 3.73648 4.66892C3.73648 4.79548 3.80679 8.11423 3.82085 8.21267C3.84898 8.56423 4.15835 8.53611 4.15835 8.36736C4.15835 8.21267 4.07398 4.38767 4.07398 4.38767L3.73648 4.26111ZM2.38648 5.72361C2.28804 5.66736 2.17554 5.69548 2.25992 5.79392C2.33023 5.89236 2.33023 5.99079 2.33023 6.07517C2.33023 6.17361 2.4146 8.33923 2.4146 8.43767C2.4146 8.71892 2.76617 8.77517 2.76617 8.63454C2.76617 8.42361 2.65367 5.72361 2.65367 5.72361H2.38648Z" fill="#B55E19"/>
</g>
<path d="M9.20626 1.1251C9.20626 0.843848 9.69845 0.829785 9.69845 1.13916V3.55791C9.68439 3.86729 9.1922 3.88135 9.20626 3.55791V1.1251ZM6.53439 2.60166C6.36564 2.37666 6.74533 2.06729 6.92814 2.32041C7.02658 2.44697 8.0672 3.8251 8.13751 3.90947C8.32033 4.1626 7.92658 4.45791 7.74376 4.20479C7.67345 4.10635 6.53439 2.60166 6.53439 2.60166ZM12.3703 2.60166C12.5391 2.37666 12.1594 2.06729 11.9766 2.32041C11.8781 2.44697 10.8375 3.8251 10.7672 3.90947C10.5844 4.1626 10.9781 4.45791 11.161 4.20479C11.2313 4.10635 12.3703 2.60166 12.3703 2.60166Z" fill="#B0BEC5"/>
</svg>
