<svg width="17" height="18" viewBox="0 0 17 18" fill="none" xmlns="http://www.w3.org/2000/svg">
<g clip-path="url(#clip0_3238_9489)">
<path d="M7.93771 5.33731C7.50326 4.31381 6.99185 3.30431 6.50876 2.20731C6.49554 2.17331 6.48468 2.13831 6.47004 2.10431C6.43982 2.03331 6.40535 1.96581 6.37182 1.89781L6.34726 1.84231L6.34632 1.84381C5.57282 0.34881 3.94129 -0.33719 2.57987 0.31031C1.14149 0.99381 0.551207 2.90631 1.26237 4.58131C1.97307 6.25681 3.7151 7.05981 5.15349 6.37581C5.20354 6.35231 5.25029 6.32331 5.29799 6.29631C6.21174 6.51531 6.2396 7.23481 6.2396 7.23481C6.2396 7.23481 8.42032 6.47431 7.93771 5.33731ZM2.3041 4.08631C1.85171 3.01981 2.1851 1.82281 3.04785 1.41281C3.91012 1.00181 4.9764 1.53381 5.42879 2.59981C5.88118 3.66581 5.54826 4.86281 4.68599 5.27281C3.82276 5.68331 2.75601 5.15231 2.3041 4.08631Z" fill="#DD2E44"/>
<path d="M12.7359 17.4338C13.2851 17.1053 13.7687 16.1968 13.458 15.6148L7.90793 5.2793C7.38707 5.5273 6.52054 6.4358 6.23438 7.2353L12.7359 17.4338Z" fill="#99AAB5"/>
<path d="M14.4201 0.309821C13.0591 -0.337679 11.4271 0.348321 10.6536 1.84332L10.6522 1.84182L10.6272 1.89782C10.5937 1.96532 10.5587 2.03282 10.529 2.10382C10.5148 2.13782 10.504 2.17232 10.4907 2.20682C10.0076 3.30382 9.49576 4.31332 9.06179 5.33682C8.57965 6.47382 10.7604 7.23482 10.7604 7.23482C10.7604 7.23482 10.7882 6.51532 11.7015 6.29632C11.7497 6.32332 11.796 6.35182 11.8465 6.37582C13.2844 7.05982 15.026 6.25682 15.7376 4.58132C16.4483 2.90632 15.858 0.993821 14.4201 0.309821ZM14.6959 4.08632C14.243 5.15232 13.1772 5.68332 12.314 5.27282C11.4517 4.86282 11.1188 3.66582 11.5716 2.59982C12.0231 1.53382 13.0894 1.00232 13.9521 1.41282C14.8149 1.82332 15.1478 3.01982 14.6959 4.08632Z" fill="#DD2E44"/>
<path d="M4.25705 17.4338C3.70785 17.1053 3.2243 16.1968 3.53502 15.6148L9.08505 5.2793C9.60591 5.5273 10.4724 6.4358 10.7586 7.2353L4.25705 17.4338Z" fill="#CCD6DD"/>
<path d="M9.23398 8.69802C9.23385 8.90528 9.15597 9.10401 9.01747 9.25047C8.87896 9.39694 8.69117 9.47915 8.49542 9.47902C8.29967 9.47888 8.11199 9.39642 7.97366 9.24977C7.83533 9.10311 7.75769 8.90428 7.75781 8.69702C7.75787 8.59439 7.77703 8.49278 7.81418 8.39799C7.85133 8.3032 7.90574 8.21708 7.97433 8.14456C8.04291 8.07204 8.12431 8.01453 8.21388 7.97531C8.30345 7.9361 8.39944 7.91595 8.49637 7.91602C8.59329 7.91608 8.68926 7.93636 8.77878 7.9757C8.86831 8.01503 8.94964 8.07265 9.01813 8.14527C9.08663 8.21788 9.14094 8.30407 9.17798 8.39891C9.21501 8.49375 9.23404 8.59539 9.23398 8.69802Z" fill="#99AAB5"/>
</g>
<defs>
<clipPath id="clip0_3238_9489">
<rect width="17" height="18" fill="white"/>
</clipPath>
</defs>
</svg>
