<svg width="16" height="13" viewBox="0 0 16 13" fill="none" xmlns="http://www.w3.org/2000/svg">
                                <path d="M13.0538 0.69045C13.3073 0.437751 13.6446 0.298049 13.9945 0.300822C14.3444 0.303595 14.6796 0.448626 14.9294 0.705313C15.1792 0.962 15.3239 1.31026 15.3332 1.67662C15.3424 2.04297 15.2154 2.39877 14.979 2.66892L7.80023 12.0713C7.67679 12.2106 7.5278 12.3223 7.36218 12.3999C7.19656 12.4775 7.01771 12.5192 6.83632 12.5228C6.65492 12.5263 6.47471 12.4915 6.30647 12.4204C6.13822 12.3493 5.98539 12.2434 5.85711 12.109L1.09647 7.12329C0.963896 6.99391 0.857561 6.8379 0.783809 6.66455C0.710057 6.4912 0.670399 6.30406 0.667202 6.11432C0.664005 5.92457 0.697335 5.73609 0.765202 5.56012C0.833069 5.38415 0.934083 5.2243 1.06222 5.09011C1.19035 4.95591 1.34299 4.85012 1.51101 4.77905C1.67903 4.70797 1.859 4.67307 2.04018 4.67641C2.22137 4.67976 2.40005 4.7213 2.56557 4.79853C2.7311 4.87577 2.88007 4.98714 3.00361 5.12598L6.77109 9.06972L13.0197 0.731904L13.0538 0.69045Z" fill="#02DF33"/>
                            </svg>