<svg width="19" height="18" viewBox="0 0 19 18" fill="none" xmlns="http://www.w3.org/2000/svg">
<path d="M9.44531 16.7063C5.52187 16.7063 1.28906 14.2453 1.28906 8.84531C1.28906 3.44531 5.52187 0.984375 9.44531 0.984375C11.625 0.984375 13.6359 1.70156 15.1266 3.00937C16.7438 4.44375 17.6016 6.46875 17.6016 8.84531C17.6016 11.2219 16.7438 13.2328 15.1266 14.6672C13.6359 15.975 11.6109 16.7063 9.44531 16.7063Z" fill="url(#paint0_radial_3238_9721)"/>
<path d="M16.1817 4.17236C16.9313 5.38174 17.3222 6.82174 17.3222 8.42346C17.3222 10.8 16.4644 12.811 14.8472 14.2453C13.3566 15.5531 11.3316 16.2844 9.16594 16.2844C6.62625 16.2844 3.96281 15.2508 2.39062 13.0585C3.90375 15.5419 6.75 16.7063 9.44719 16.7063C11.6128 16.7063 13.6378 15.975 15.1284 14.6672C16.7456 13.2328 17.6034 11.2219 17.6034 8.84533C17.6034 7.05377 17.1155 5.46189 16.1817 4.17236Z" fill="#EB8F00"/>
<path d="M9.49781 13.1922C7.87922 13.1922 6.72328 12.3485 6.37594 11.8226C6.31182 11.7392 6.27144 11.64 6.25906 11.5355C6.24668 11.4311 6.26277 11.3252 6.30562 11.2291C6.37172 11.104 6.5025 11.0266 6.64453 11.0308C6.69656 11.0308 6.74859 11.0393 6.79781 11.0547C7.67319 11.3194 8.58332 11.4512 9.49781 11.4457C10.4119 11.4513 11.3231 11.3191 12.1978 11.0547C12.247 11.0393 12.2991 11.0308 12.3511 11.0308C12.4931 11.0266 12.6239 11.104 12.69 11.2291C12.7329 11.3252 12.7489 11.4311 12.7366 11.5355C12.7242 11.64 12.6838 11.7392 12.6197 11.8226C12.2723 12.3513 11.1164 13.1922 9.49781 13.1922ZM17.9353 6.3874C17.9353 6.3874 17.3363 6.40005 17.3363 6.87958C17.3363 8.06365 17.3503 10.6047 14.2425 10.6047C11.7591 10.6047 10.5736 9.32224 10.3739 7.90615C10.2923 7.31693 10.0927 6.67568 9.49219 6.67568C8.89172 6.67568 8.69766 7.31271 8.61609 7.90615C8.41641 9.32224 7.23094 10.6047 4.7475 10.6047C1.64531 10.6047 1.65375 8.06365 1.65375 6.87958C1.65375 6.40005 1.05469 6.3874 1.05469 6.3874V5.21458C2.01738 5.08831 2.98769 5.02911 3.95859 5.0374C5.71359 5.0374 6.4125 5.0374 7.80891 5.17802C8.63438 5.25958 9.49641 5.26943 9.49641 5.26943C9.49641 5.26943 10.3542 5.25958 11.1839 5.17802C12.5803 5.0374 13.2792 5.0374 15.0342 5.0374C16.0045 5.02896 16.9734 5.08943 17.9353 5.21458V6.3874Z" fill="#422B0D"/>
<path d="M3.47041 7.31257C3.45634 7.53757 3.36634 7.7457 3.14556 7.78789C3.12025 7.7921 3.09634 7.79492 3.07103 7.79492C2.97478 7.79448 2.8818 7.75989 2.80867 7.69731C2.73553 7.63473 2.68698 7.54823 2.67166 7.4532C2.58588 7.06507 2.68009 6.65867 2.92759 6.34789C3.04024 6.2118 3.18165 6.10237 3.34164 6.02748C3.50164 5.95259 3.67625 5.91409 3.85291 5.91476C4.06525 5.89507 4.25369 6.05117 4.27338 6.26351C4.27338 6.26773 4.27478 6.27195 4.27478 6.27757C4.27478 6.54195 4.06384 6.65445 3.85291 6.72757C3.62228 6.83164 3.47322 7.05945 3.47041 7.31257ZM12.4113 7.31257C12.3987 7.53757 12.3073 7.7457 12.0879 7.78789C12.0345 7.79798 11.9796 7.79728 11.9264 7.78584C11.8732 7.7744 11.8229 7.75244 11.7783 7.72125C11.7338 7.69007 11.6959 7.65029 11.667 7.60425C11.638 7.55822 11.6186 7.50686 11.6098 7.4532C11.524 7.06507 11.6182 6.65867 11.8657 6.34789C11.9786 6.21177 12.1203 6.10234 12.2805 6.02745C12.4408 5.95257 12.6156 5.91408 12.7924 5.91476C13.0048 5.89507 13.1932 6.05117 13.2129 6.26351C13.2129 6.26773 13.2143 6.27195 13.2143 6.27757C13.2143 6.54195 13.0034 6.65445 12.7924 6.72757C12.6798 6.7787 12.5841 6.8609 12.5166 6.96453C12.4491 7.06816 12.4126 7.1889 12.4113 7.31257Z" fill="#896024"/>
<defs>
<radialGradient id="paint0_radial_3238_9721" cx="0" cy="0" r="1" gradientUnits="userSpaceOnUse" gradientTransform="translate(9.44531 8.84531) scale(8.01)">
<stop offset="0.5" stop-color="#FDE030"/>
<stop offset="0.92" stop-color="#F7C02B"/>
<stop offset="1" stop-color="#F4A223"/>
</radialGradient>
</defs>
</svg>
