<svg width="18" height="18" viewBox="0 0 18 18" fill="none" xmlns="http://www.w3.org/2000/svg">
<path d="M8.94531 16.7063C5.02187 16.7063 0.789062 14.2453 0.789062 8.84531C0.789062 3.44531 5.02187 0.984375 8.94531 0.984375C11.125 0.984375 13.1359 1.70156 14.6266 3.00937C16.2438 4.44375 17.1016 6.46875 17.1016 8.84531C17.1016 11.2219 16.2438 13.2328 14.6266 14.6672C13.1359 15.975 11.1109 16.7063 8.94531 16.7063Z" fill="url(#paint0_radial_3238_9706)"/>
<path d="M8.94531 16.7063C5.02187 16.7063 0.789062 14.2453 0.789062 8.84531C0.789062 3.44531 5.02187 0.984375 8.94531 0.984375C11.125 0.984375 13.1359 1.70156 14.6266 3.00937C16.2438 4.44375 17.1016 6.46875 17.1016 8.84531C17.1016 11.2219 16.2438 13.2328 14.6266 14.6672C13.1359 15.975 11.1109 16.7063 8.94531 16.7063Z" fill="url(#paint1_linear_3238_9706)"/>
<path d="M15.6817 4.17236C16.4312 5.38174 16.8222 6.82174 16.8222 8.42346C16.8222 10.8 15.9644 12.811 14.3472 14.2453C12.8566 15.5531 10.8316 16.2844 8.66594 16.2844C6.12625 16.2844 3.45719 15.2508 1.89062 13.0585C3.40375 15.5419 6.24859 16.7063 8.94719 16.7063C11.1128 16.7063 13.1378 15.975 14.6284 14.6672C16.2456 13.2328 17.1034 11.2219 17.1034 8.84533C17.1034 7.05377 16.6155 5.46189 15.6817 4.17236Z" fill="#EB8F00"/>
<path opacity="0.8" d="M4.175 11.3061C5.44094 11.3061 6.46719 10.2798 6.46719 9.01387C6.46719 7.74793 5.44094 6.72168 4.175 6.72168C2.90906 6.72168 1.88281 7.74793 1.88281 9.01387C1.88281 10.2798 2.90906 11.3061 4.175 11.3061Z" fill="url(#paint2_radial_3238_9706)"/>
<path opacity="0.8" d="M13.6281 9.53457C14.8941 9.53457 15.9203 8.50832 15.9203 7.24238C15.9203 5.97644 14.8941 4.9502 13.6281 4.9502C12.3622 4.9502 11.3359 5.97644 11.3359 7.24238C11.3359 8.50832 12.3622 9.53457 13.6281 9.53457Z" fill="url(#paint3_radial_3238_9706)"/>
<path d="M13.6237 6.94668C12.5408 7.94512 11.1065 8.73262 9.4471 9.1123C7.78772 9.49199 6.15647 9.42168 4.75022 8.98574C4.4971 8.90137 4.31428 9.23887 4.53928 9.40762C5.9596 10.4623 7.85803 10.9123 9.75647 10.4623C11.6549 10.0264 13.1737 8.80293 13.9893 7.22793C14.1299 6.98887 13.8205 6.76387 13.6237 6.94668ZM6.81741 6.6373L6.78928 6.60918C6.77522 6.59512 6.7471 6.58105 6.71897 6.55293C6.69085 6.53887 6.66272 6.51074 6.6346 6.49668C6.60647 6.46855 6.56428 6.44043 6.5221 6.4123C6.47991 6.38418 6.43772 6.35605 6.39553 6.34199C6.35335 6.31387 6.31116 6.2998 6.26897 6.2998C6.22678 6.28574 6.19866 6.28574 6.1846 6.28574H6.14241H6.17053L6.10022 6.2998C6.08616 6.31387 6.05803 6.32793 6.02991 6.34199C6.00178 6.37012 5.9596 6.39824 5.93147 6.42637C5.90335 6.45449 5.87522 6.49668 5.8471 6.53887C5.79085 6.62324 5.74866 6.69355 5.72053 6.7498C5.67835 6.83418 5.66428 6.83418 5.66428 6.83418L5.63616 6.89043C5.49553 7.12949 5.18616 7.22793 4.93303 7.10137C4.76428 7.01699 4.66585 6.8623 4.65178 6.69355V6.53887C4.66585 6.44043 4.67991 6.2998 4.73616 6.13105C4.79241 5.9623 4.89085 5.75137 5.07366 5.55449C5.1721 5.45605 5.2846 5.34355 5.42522 5.27324C5.45335 5.24512 5.49553 5.23105 5.53772 5.21699C5.57991 5.20293 5.60803 5.1748 5.66428 5.16074L5.7346 5.13262C5.76272 5.11855 5.79085 5.11855 5.80491 5.11855L5.87522 5.10449L5.91741 5.09043H5.97366L6.04397 5.07637H6.17053C6.25491 5.07637 6.33928 5.07637 6.42366 5.09043C6.59241 5.11855 6.73303 5.1748 6.8596 5.23105C7.11272 5.35762 7.26741 5.5123 7.39397 5.63887C7.45022 5.70918 7.50647 5.76543 7.5346 5.82168C7.57678 5.87793 7.60491 5.93418 7.63303 5.97637C7.66116 6.01855 7.66116 6.04668 7.67522 6.06074C7.67522 6.0748 7.68928 6.08887 7.68928 6.08887C7.78772 6.34199 7.6471 6.62324 7.36585 6.72168C7.16897 6.79199 6.95803 6.7498 6.81741 6.6373ZM11.6408 5.69512L11.6127 5.66699C11.5987 5.65293 11.5705 5.63887 11.5424 5.61074C11.5143 5.59668 11.4862 5.56855 11.458 5.55449C11.4299 5.52637 11.3877 5.49824 11.3455 5.47012C11.3033 5.44199 11.2612 5.41387 11.219 5.3998C11.1768 5.37168 11.1346 5.35762 11.0924 5.35762C11.0643 5.34355 11.0362 5.34355 11.0221 5.34355H10.9799H11.008L10.9377 5.35762C10.9237 5.37168 10.8955 5.38574 10.8533 5.3998C10.8252 5.42793 10.7971 5.45605 10.7549 5.48418C10.7268 5.5123 10.6987 5.55449 10.6705 5.59668C10.6143 5.68105 10.5721 5.75137 10.544 5.80762C10.5158 5.86387 10.4877 5.89199 10.4877 5.89199L10.4596 5.93418C10.319 6.17324 10.0096 6.27168 9.75647 6.14512C9.58772 6.06074 9.48928 5.90605 9.47522 5.7373C9.47522 5.7373 9.47522 5.68105 9.48928 5.58262C9.50335 5.48418 9.51741 5.34355 9.57366 5.1748C9.62991 5.00605 9.72835 4.79512 9.91116 4.59824C10.0096 4.4998 10.1221 4.3873 10.2627 4.31699C10.2908 4.30293 10.333 4.2748 10.3752 4.26074C10.4174 4.24668 10.4455 4.21855 10.5018 4.20449L10.5862 4.17637C10.6143 4.1623 10.6424 4.1623 10.6565 4.1623L10.7268 4.14824L10.769 4.13418H10.8252L10.8955 4.12012H11.0221C11.1065 4.12012 11.1908 4.12012 11.2752 4.13418C11.444 4.1623 11.5846 4.21855 11.7112 4.2748C11.9643 4.40137 12.119 4.55605 12.2455 4.68262C12.3018 4.75293 12.358 4.80918 12.3862 4.86543C12.4283 4.92168 12.4565 4.97793 12.4846 5.02012C12.5127 5.0623 12.5127 5.09043 12.5268 5.10449C12.5408 5.11855 12.5408 5.13262 12.5408 5.13262C12.6393 5.38574 12.4987 5.66699 12.2174 5.76543C11.9924 5.86387 11.7815 5.82168 11.6408 5.69512Z" fill="#422B0D"/>
<path d="M6.02883 11.6198C5.99367 11.2697 6.00914 11.07 5.74055 11.0067C5.43961 10.9364 5.17102 11.1516 5.08945 11.4595C4.8743 12.2836 5.23992 12.8587 5.23992 12.8587C4.71961 12.7561 4.28508 12.2498 4.28508 12.2498C4.01367 11.9306 3.63117 11.1375 3.3668 10.8112C3.20648 10.613 2.94352 10.4512 2.68195 10.5876C2.05477 10.9167 2.74945 12.0361 2.98289 12.3342C3.24867 12.6731 2.29242 11.5889 2.1518 11.3526C1.89023 10.9139 1.56961 10.7972 1.30102 11.0264C1.03242 11.2542 1.24758 11.8237 1.36992 12.0403C2.11945 13.3551 2.77336 13.6772 2.77336 13.6772C2.77336 13.6772 2.07727 13.3425 1.48383 12.6239C0.92414 11.9461 0.392578 12.6619 0.765234 13.2637C0.843984 13.3917 0.994453 13.7222 1.4782 14.1398C1.60758 14.2678 1.84945 14.4605 1.4782 14.1398C0.983203 13.6519 0.455859 14.1722 0.614765 14.5983C0.798984 15.0891 1.39945 15.5433 1.80586 15.8442C2.59617 16.4292 3.58195 16.8975 4.58039 16.8651C5.69133 16.83 6.51117 16.3673 6.75727 14.9934C6.87117 14.355 6.51539 13.3762 6.40992 13.1259C6.06539 12.3159 6.04852 11.8181 6.02883 11.6198Z" fill="url(#paint4_radial_3238_9706)"/>
<path d="M4.91065 15.0386C4.76159 14.8291 4.34112 13.856 5.12581 12.8604L5.35362 13.0038C4.46487 14.1007 5.08644 15.0372 5.19472 15.2496C5.19472 15.2496 5.05269 15.2397 4.91065 15.0386Z" fill="#EB8F00"/>
<path d="M6.49905 13.0359C6.1503 12.3595 6.12499 12.008 6.10108 11.6226C6.07436 11.3442 6.05467 10.9997 5.71858 10.9209C5.57514 10.8872 5.37546 10.9069 5.19827 11.1023C4.7553 11.5945 5.10827 12.7392 5.10827 12.7392C4.47124 12.4411 4.36436 12.1781 3.91296 11.4989C3.71608 11.2008 3.40249 10.6495 3.11561 10.4892C2.9103 10.3739 2.60655 10.4597 2.45467 10.665C2.11296 11.1234 2.72186 12.053 2.72186 12.053C2.72186 12.053 2.38577 11.5636 2.23952 11.3076C1.99061 10.8731 1.53499 10.6326 1.19889 10.935C0.650455 11.4286 1.71639 12.7561 1.71639 12.7561C1.71639 12.7561 1.22561 11.9784 0.736236 12.3075C0.481705 12.479 0.381861 12.9262 0.646236 13.3565C0.762955 13.552 1.05967 13.898 1.05967 13.898C1.05967 13.898 0.940143 13.822 0.740455 13.8867C0.518268 13.9598 0.328424 14.2355 0.490143 14.6658C0.677174 15.1692 1.23124 15.6051 1.73608 15.9694C2.88499 16.799 4.22796 16.8497 4.22796 16.8497C4.22796 16.8497 2.75561 16.567 1.81342 15.7092C1.51811 15.4406 0.348111 14.6236 0.765768 14.1989C0.864205 14.0976 1.04421 14.047 1.30999 14.258C2.24514 15.0033 2.56436 14.8303 2.56436 14.8303C2.59811 14.7009 2.5053 14.6461 2.22686 14.4815C2.03421 14.3676 1.76983 14.2115 1.57436 14.0442C1.09483 13.6294 0.553424 12.908 0.850143 12.5873C1.00905 12.4158 1.19327 12.4523 1.37186 12.6365C2.61499 13.905 2.90749 13.7264 2.90749 13.7264C2.90749 13.7264 2.94546 13.5886 2.55311 13.244C2.25217 12.9811 1.88233 12.6562 1.4253 11.8603C1.30436 11.6494 1.24249 11.2739 1.41967 11.1262C1.65874 10.9237 1.87952 11.0573 2.0778 11.354C2.31967 11.7155 2.6628 12.1598 3.00452 12.4875C3.41796 12.8826 3.64014 13.0036 3.65421 12.9895C3.75264 12.8826 3.32936 12.4678 3.14092 12.209C2.47717 11.2936 2.48702 10.9926 2.62483 10.755C2.71202 10.6045 2.95249 10.537 3.24217 10.9012C3.86655 11.6212 4.18155 12.7926 5.35717 13.0008C5.35717 13.0008 5.40217 12.9305 5.29671 12.5494C5.17014 12.1514 5.14905 11.8125 5.21374 11.5158C5.28546 11.1881 5.54842 11.0953 5.69327 11.1305C5.88733 11.1769 5.86483 11.5031 5.86483 11.5031C5.86483 11.5031 5.87608 11.6226 5.88171 11.6775C5.90421 11.9137 5.95061 12.4059 6.27686 13.1653C6.40764 13.469 7.10514 14.7178 6.16014 16.2801C6.16014 16.2801 6.56092 16.3828 7.02077 16.4897C7.02077 16.4897 7.20217 15.8498 7.1178 14.8556C7.01514 13.6055 6.73389 13.4915 6.49905 13.0359Z" fill="#EB8F00"/>
<path d="M0.078125 14.4381C0.0823437 14.3987 0.0879688 14.365 0.095 14.3354C0.0851563 14.3678 0.0795312 14.4015 0.078125 14.4381Z" fill="url(#paint5_radial_3238_9706)"/>
<path d="M11.8444 11.6199C11.8796 11.2697 11.8655 11.0771 12.1327 11.0067C12.4196 10.9322 12.6966 11.153 12.7838 11.4596C12.9849 12.1796 12.5996 12.8588 12.5996 12.8588C13.1199 12.7561 13.5614 12.2569 13.5614 12.2569C13.8328 11.9377 14.2435 11.1375 14.5064 10.8113C14.6668 10.613 14.8566 10.485 15.1322 10.5863C15.7018 10.7972 15.1069 11.9503 14.8735 12.2499C14.6077 12.5888 14.7764 12.5339 15.1336 12.1416C15.4922 11.7464 15.6821 11.5228 15.8227 11.288C16.0843 10.8492 16.3978 10.883 16.5722 11.0264C16.845 11.2514 16.6257 11.8238 16.5033 12.0403C15.7538 13.3552 16.3894 12.6239 16.3894 12.6239C16.9491 11.9461 17.4807 12.6619 17.108 13.2638C17.0293 13.3917 16.8788 13.7222 16.395 14.1399C16.0238 14.4605 16.2657 14.2678 16.395 14.1399C16.89 13.6519 17.4174 14.1722 17.2585 14.5983C17.0743 15.0891 16.4738 15.5433 16.0674 15.8442C15.2771 16.4292 14.2913 16.8975 13.2928 16.8652C12.1819 16.83 11.3621 16.3674 11.116 14.9935C11.0021 14.355 11.3578 13.3763 11.4633 13.126C11.8078 12.316 11.8247 11.8181 11.8444 11.6199Z" fill="url(#paint6_radial_3238_9706)"/>
<path d="M12.9586 15.0386C13.1077 14.8291 13.5281 13.856 12.7434 12.8604L12.5156 13.0038C13.4044 14.1007 12.7828 15.0372 12.6745 15.2496C12.6745 15.2496 12.8166 15.2397 12.9586 15.0386Z" fill="#EB8F00"/>
<path d="M11.3769 13.0359C11.7257 12.3595 11.751 12.008 11.7749 11.6226C11.8016 11.3442 11.8213 10.9997 12.1574 10.9209C12.3008 10.8872 12.5005 10.9069 12.6777 11.1023C13.1207 11.5945 12.7677 12.7392 12.7677 12.7392C13.4047 12.4411 13.5116 12.1781 13.963 11.4989C14.1599 11.2008 14.4735 10.6495 14.7603 10.4892C14.9657 10.3739 15.2694 10.4597 15.4213 10.665C15.763 11.1234 15.1541 12.053 15.1541 12.053C15.1541 12.053 15.4902 11.5636 15.6364 11.3076C15.8853 10.8731 16.341 10.6326 16.6771 10.935C17.2255 11.4286 16.1596 12.7561 16.1596 12.7561C16.1596 12.7561 16.6503 11.9784 17.1397 12.3075C17.3943 12.479 17.4941 12.9262 17.2297 13.3565C17.113 13.552 16.8163 13.898 16.8163 13.898C16.8163 13.898 16.9358 13.822 17.1355 13.8867C17.3577 13.9598 17.5475 14.2355 17.3858 14.6658C17.1988 15.1692 16.6447 15.6051 16.1399 15.9694C14.991 16.799 13.648 16.8497 13.648 16.8497C13.648 16.8497 15.1203 16.567 16.0625 15.7092C16.3578 15.4406 17.5278 14.6236 17.1102 14.1989C17.0118 14.0976 16.8318 14.047 16.566 14.258C15.6308 15.0033 15.3116 14.8303 15.3116 14.8303C15.2778 14.7009 15.3707 14.6461 15.6491 14.4815C15.8418 14.3676 16.1061 14.2115 16.3016 14.0442C16.7811 13.6294 17.3225 12.908 17.0258 12.5873C16.8669 12.4158 16.6827 12.4523 16.5041 12.6365C15.261 13.905 14.9685 13.7264 14.9685 13.7264C14.9685 13.7264 14.9305 13.5886 15.3228 13.244C15.6238 12.9811 15.9936 12.6562 16.4507 11.8603C16.5716 11.6494 16.6335 11.2739 16.4563 11.1262C16.2172 10.9237 15.9964 11.0573 15.7982 11.354C15.5563 11.7155 15.2132 12.1598 14.8714 12.4875C14.458 12.8826 14.2358 13.0036 14.2218 12.9895C14.1233 12.8826 14.5466 12.4678 14.735 12.209C15.3988 11.2936 15.3889 10.9926 15.2511 10.755C15.1639 10.6045 14.9235 10.537 14.6338 10.9012C14.0066 11.624 13.6916 12.7955 12.5174 13.0036C12.5174 13.0036 12.4724 12.9333 12.5778 12.5522C12.7044 12.1542 12.7255 11.8153 12.6608 11.5186C12.5891 11.1909 12.3261 11.0981 12.1813 11.1333C11.9872 11.1797 12.0097 11.5059 12.0097 11.5059C12.0097 11.5059 11.9985 11.6255 11.9928 11.6803C11.9703 11.9165 11.9239 12.4087 11.5977 13.1681C11.4669 13.4719 10.768 14.7333 11.7144 16.283C11.7144 16.283 11.3136 16.3856 10.8538 16.4925C10.8538 16.4925 10.6724 15.8526 10.7568 14.8584C10.8608 13.6055 11.1421 13.4915 11.3769 13.0359Z" fill="#EB8F00"/>
<path d="M17.7981 14.4381C17.7939 14.3987 17.7883 14.365 17.7812 14.3354C17.7911 14.3678 17.7967 14.4015 17.7981 14.4381Z" fill="url(#paint7_radial_3238_9706)"/>
<defs>
<radialGradient id="paint0_radial_3238_9706" cx="0" cy="0" r="1" gradientUnits="userSpaceOnUse" gradientTransform="translate(8.94531 8.84531) scale(8.01)">
<stop offset="0.5" stop-color="#FDE030"/>
<stop offset="0.919" stop-color="#F7C02B"/>
<stop offset="1" stop-color="#F4A223"/>
</radialGradient>
<linearGradient id="paint1_linear_3238_9706" x1="8.94531" y1="16.7063" x2="8.94531" y2="0.984375" gradientUnits="userSpaceOnUse">
<stop offset="0.158" stop-color="#F4A223"/>
<stop offset="0.333" stop-color="#F7C02B"/>
<stop offset="0.807" stop-color="#FDE030" stop-opacity="0"/>
</linearGradient>
<radialGradient id="paint2_radial_3238_9706" cx="0" cy="0" r="1" gradientUnits="userSpaceOnUse" gradientTransform="translate(4.17014 9.01482) rotate(-10.6121) scale(2.49432 2.36965)">
<stop stop-color="#ED7770"/>
<stop offset="0.9" stop-color="#ED7770" stop-opacity="0"/>
</radialGradient>
<radialGradient id="paint3_radial_3238_9706" cx="0" cy="0" r="1" gradientUnits="userSpaceOnUse" gradientTransform="translate(13.6291 7.24725) rotate(-10.6121) scale(2.49404 2.36938)">
<stop stop-color="#ED7770"/>
<stop offset="0.9" stop-color="#ED7770" stop-opacity="0"/>
</radialGradient>
<radialGradient id="paint4_radial_3238_9706" cx="0" cy="0" r="1" gradientUnits="userSpaceOnUse" gradientTransform="translate(4.55184 13.2289) scale(5.41589)">
<stop offset="0.33" stop-color="#FFF176"/>
<stop offset="1" stop-color="#FFC400"/>
</radialGradient>
<radialGradient id="paint5_radial_3238_9706" cx="0" cy="0" r="1" gradientUnits="userSpaceOnUse" gradientTransform="translate(4.10506 13.2) scale(5.47088 5.47084)">
<stop offset="0.33" stop-color="#FFF176"/>
<stop offset="1" stop-color="#FFC400"/>
</radialGradient>
<radialGradient id="paint6_radial_3238_9706" cx="0" cy="0" r="1" gradientUnits="userSpaceOnUse" gradientTransform="translate(13.3215 13.2363) rotate(180) scale(5.40774)">
<stop offset="0.33" stop-color="#FFF176"/>
<stop offset="1" stop-color="#FFC400"/>
</radialGradient>
<radialGradient id="paint7_radial_3238_9706" cx="0" cy="0" r="1" gradientUnits="userSpaceOnUse" gradientTransform="translate(13.7711 13.2) rotate(180) scale(5.471 5.47084)">
<stop offset="0.33" stop-color="#FFF176"/>
<stop offset="1" stop-color="#FFC400"/>
</radialGradient>
</defs>
</svg>
