<svg width="88" height="88" viewBox="0 0 88 88" fill="none" xmlns="http://www.w3.org/2000/svg">
<path d="M75.8299 53.6065C72.7499 66.8432 66.6633 72.1965 55.2233 71.0965C53.3899 70.9499 51.4099 70.6199 49.2833 70.1065L43.1233 68.6399C27.8333 65.0099 23.1033 57.4565 26.6966 42.1299L30.2899 26.7665C31.0233 23.6499 31.9033 20.9365 33.0033 18.6999C37.2933 9.82653 44.5899 7.4432 56.8366 10.3399L62.9599 11.7699C78.3233 15.3632 83.0166 22.9532 79.4233 38.2799L75.8299 53.6065Z" fill="#3833A1" fillOpacity="0.2"/>
<path d="M46.6026 75.0569L40.8093 76.9635C26.2526 81.6569 18.5893 77.7335 13.8593 63.1769L9.16596 48.6935C4.47263 34.1369 8.3593 26.4369 22.916 21.7435L28.7093 19.8369C30.2126 19.3602 31.6426 18.9569 32.9993 18.7002C31.8993 20.9369 31.0193 23.6502 30.286 26.7669L26.6926 42.1302C23.0993 57.4569 27.8293 65.0102 43.1193 68.6402L49.2793 70.1069C51.406 70.6202 53.386 70.9502 55.2193 71.0969C52.946 72.6369 50.086 73.9202 46.6026 75.0569Z" fill="#3833A1"/>
<path d="M63.4324 38.4635L45.6491 33.9535C44.1824 33.5868 43.3024 32.0835 43.6691 30.6168C44.0357 29.1502 45.5391 28.2702 47.0057 28.6368L64.7891 33.1468C66.2557 33.5135 67.1357 35.0168 66.769 36.4835C66.4757 37.6935 65.3391 38.5368 64.1291 38.5368C63.9091 38.5368 63.689 38.5002 63.4324 38.4635Z" fill="#3833A1"/>
<path d="M52.6862 50.8563L42.0162 48.1429C40.5496 47.7763 39.6696 46.2729 40.0362 44.8063C40.4029 43.3396 41.9062 42.4596 43.3729 42.8263L54.0429 45.5396C55.5096 45.9063 56.3896 47.4096 56.0229 48.8763C55.7296 50.1229 54.6296 50.9296 53.3829 50.9296C53.1629 50.9296 52.9429 50.8929 52.6862 50.8563Z" fill="#3833A1"/>
</svg>
