<svg width="21" height="21" viewBox="0 0 21 21" fill="none" xmlns="http://www.w3.org/2000/svg">
<path d="M10.6458 2.33398C6.05417 2.33398 2.3125 6.07565 2.3125 10.6673C2.3125 15.259 6.05417 19.0007 10.6458 19.0007C15.2375 19.0007 18.9792 15.259 18.9792 10.6673C18.9792 6.07565 15.2375 2.33398 10.6458 2.33398ZM14.6292 8.75065L9.90417 13.4757C9.7875 13.5923 9.62917 13.659 9.4625 13.659C9.29583 13.659 9.1375 13.5923 9.02083 13.4757L6.6625 11.1173C6.42083 10.8757 6.42083 10.4757 6.6625 10.234C6.90417 9.99232 7.30417 9.99232 7.54583 10.234L9.4625 12.1507L13.7458 7.86732C13.9875 7.62565 14.3875 7.62565 14.6292 7.86732C14.8708 8.10898 14.8708 8.50065 14.6292 8.75065Z" fill="#3EBF8F"/>
</svg>
