<svg width="72" height="73" viewBox="0 0 72 73" fill="none" xmlns="http://www.w3.org/2000/svg">
<path d="M22.4418 58.3118H16.7097C7.93273 57.6848 3.99219 50.9379 3.99219 44.9373C3.99219 38.9367 7.93276 32.1599 16.5605 31.5628C17.7845 31.4434 18.8592 32.3987 18.9488 33.6526C19.0383 34.8766 18.113 35.9513 16.8591 36.0409C11.0675 36.4588 8.47025 40.8175 8.47025 44.9671C8.47025 49.1168 11.0675 53.4755 16.8591 53.8934H22.4418C23.6658 53.8934 24.6808 54.9084 24.6808 56.1324C24.6808 57.3564 23.6658 58.3118 22.4418 58.3118Z" fill="#0087FF"/>
<path d="M49.938 58.3104C49.8783 58.3104 49.8484 58.3104 49.7887 58.3104C48.5647 58.3104 47.4304 57.2954 47.4304 56.0714C47.4304 54.7877 48.3856 53.8324 49.6395 53.8324C53.3115 53.8324 56.5954 52.5487 59.1629 50.2499C63.82 46.1898 64.1185 40.3385 62.8647 36.2187C61.6108 32.1287 58.1179 27.4417 52.0278 26.6953C51.0426 26.5759 50.2663 25.8296 50.0872 24.8444C48.893 17.6795 45.042 12.7238 39.1907 10.9325C33.1602 9.05176 26.1146 10.9027 21.7261 15.5002C17.4571 19.9484 16.4719 26.1878 18.9498 33.0542C19.3677 34.2185 18.7708 35.5022 17.6065 35.9201C16.4422 36.3381 15.1584 35.741 14.7405 34.5767C11.7252 26.158 13.0985 18.0974 18.5021 12.4252C24.025 6.63361 32.8916 4.33485 40.5043 6.66344C47.49 8.81291 52.4158 14.5747 54.207 22.5755C60.2972 23.9488 65.1933 28.5761 67.1338 34.9648C69.2534 41.9207 67.3427 49.0856 62.1183 53.6234C58.8046 56.6088 54.4757 58.3104 49.938 58.3104Z" fill="#0087FF"/>
<path d="M35.9979 67.0877C29.9973 67.0877 24.3849 63.8933 21.3099 58.7286C20.9816 58.2211 20.6532 57.624 20.3845 56.9672C19.3695 54.8476 18.832 52.4295 18.832 49.9218C18.832 40.4581 26.5343 32.7559 35.9979 32.7559C45.4616 32.7559 53.1638 40.4581 53.1638 49.9218C53.1638 52.4593 52.6265 54.8476 51.5518 57.0568C51.313 57.624 50.9846 58.2211 50.6263 58.7883C47.6111 63.8933 41.9985 67.0877 35.9979 67.0877ZM35.9979 37.2339C29.0122 37.2339 23.3101 42.936 23.3101 49.9218C23.3101 51.7727 23.6982 53.5042 24.4446 55.0864C24.6834 55.594 24.8923 56.0119 25.1311 56.4C27.4 60.2512 31.5497 62.6096 35.9681 62.6096C40.3864 62.6096 44.5361 60.2512 46.7751 56.4597C47.0438 56.0119 47.2827 55.594 47.4619 55.176C48.2679 53.5341 48.6559 51.8025 48.6559 49.9516C48.6857 42.936 42.9837 37.2339 35.9979 37.2339Z" fill="#0087FF"/>
<path d="M34.2926 55.1172C33.7254 55.1172 33.1583 54.9082 32.7105 54.4604L29.7548 51.5049C28.889 50.6391 28.889 49.2062 29.7548 48.3404C30.6205 47.4746 32.0535 47.4746 32.9193 48.3404L34.3524 49.7734L39.1289 45.355C40.0544 44.5191 41.4575 44.5788 42.2934 45.4744C43.1293 46.37 43.0697 47.8031 42.1741 48.639L35.8152 54.5201C35.3674 54.9082 34.83 55.1172 34.2926 55.1172Z" fill="#0087FF"/>
</svg>
