<svg width="24" height="24" viewBox="0 0 24 24" fill="none" xmlns="http://www.w3.org/2000/svg">
<path d="M15.8086 14.043C17.1347 14.043 18.4064 14.5698 19.3441 15.5074C20.2818 16.4451 20.8086 17.7169 20.8086 19.043V20.043C20.8086 20.5734 20.5979 21.0821 20.2228 21.4572C19.8477 21.8323 19.339 22.043 18.8086 22.043H4.80859C4.27816 22.043 3.76945 21.8323 3.39438 21.4572C3.01931 21.0821 2.80859 20.5734 2.80859 20.043V19.043C2.80859 17.7169 3.33538 16.4451 4.27306 15.5074C5.21074 14.5698 6.48251 14.043 7.80859 14.043H15.8086ZM11.8086 2.04297C13.1347 2.04297 14.4064 2.56975 15.3441 3.50743C16.2818 4.44512 16.8086 5.71689 16.8086 7.04297C16.8086 8.36905 16.2818 9.64082 15.3441 10.5785C14.4064 11.5162 13.1347 12.043 11.8086 12.043C10.4825 12.043 9.21074 11.5162 8.27306 10.5785C7.33538 9.64082 6.80859 8.36905 6.80859 7.04297C6.80859 5.71689 7.33538 4.44512 8.27306 3.50743C9.21074 2.56975 10.4825 2.04297 11.8086 2.04297Z" fill="white"/>
<path d="M16.0882 11.2441C15.812 11.2425 15.5869 11.465 15.5852 11.7412C15.5836 12.0173 15.8061 12.2425 16.0822 12.2441L16.0882 11.2441ZM23.5856 12.1424C23.782 11.9483 23.7839 11.6318 23.5898 11.4353L20.4269 8.23444C20.2328 8.03801 19.9162 8.03613 19.7198 8.23022C19.5233 8.42431 19.5214 8.74089 19.7155 8.93731L22.527 11.7826L19.6818 14.5941C19.4854 14.7882 19.4835 15.1047 19.6776 15.3012C19.8717 15.4976 20.1883 15.4995 20.3847 15.3054L23.5856 12.1424ZM16.0822 12.2441L23.2312 12.2868L23.2371 11.2868L16.0882 11.2441L16.0822 12.2441Z" fill="white"/>
</svg>
