<svg width="24" height="24" viewBox="0 0 24 24" fill="none" xmlns="http://www.w3.org/2000/svg">
<path d="M15.8047 14.0425C17.1308 14.0425 18.4025 14.5693 19.3402 15.5069C20.2779 16.4446 20.8047 17.7164 20.8047 19.0425V20.0425C20.8047 20.5729 20.594 21.0816 20.2189 21.4567C19.8438 21.8318 19.3351 22.0425 18.8047 22.0425H4.80469C4.27425 22.0425 3.76555 21.8318 3.39047 21.4567C3.0154 21.0816 2.80469 20.5729 2.80469 20.0425V19.0425C2.80469 17.7164 3.33147 16.4446 4.26915 15.5069C5.20684 14.5693 6.47861 14.0425 7.80469 14.0425H15.8047ZM11.8047 2.04248C13.1308 2.04248 14.4025 2.56926 15.3402 3.50695C16.2779 4.44463 16.8047 5.7164 16.8047 7.04248C16.8047 8.36856 16.2779 9.64033 15.3402 10.578C14.4025 11.5157 13.1308 12.0425 11.8047 12.0425C10.4786 12.0425 9.20684 11.5157 8.26915 10.578C7.33147 9.64033 6.80469 8.36856 6.80469 7.04248C6.80469 5.7164 7.33147 4.44463 8.26915 3.50695C9.20684 2.56926 10.4786 2.04248 11.8047 2.04248Z" fill="#0084FF"/>
<path d="M16.0811 11.2446C15.805 11.243 15.5798 11.4655 15.5781 11.7416C15.5765 12.0178 15.799 12.243 16.0751 12.2446L16.0811 11.2446ZM23.5785 12.1429C23.7749 11.9488 23.7768 11.6322 23.5827 11.4358L20.4198 8.23493C20.2257 8.0385 19.9091 8.03661 19.7127 8.23071C19.5163 8.4248 19.5144 8.74138 19.7085 8.9378L22.52 11.783L19.6747 14.5946C19.4783 14.7887 19.4764 15.1052 19.6705 15.3017C19.8646 15.4981 20.1812 15.5 20.3776 15.3059L23.5785 12.1429ZM16.0751 12.2446L23.2241 12.2873L23.23 11.2873L16.0811 11.2446L16.0751 12.2446Z" fill="#0084FF"/>
</svg>
