<svg width="88" height="88" viewBox="0 0 88 88" fill="none" xmlns="http://www.w3.org/2000/svg">
<path d="M7.33594 69.6667C7.33594 71.6116 8.10855 73.4768 9.48382 74.8521C10.8591 76.2274 12.7243 77 14.6693 77H54.0859C54.3291 77 54.5622 76.9034 54.7341 76.7315C54.906 76.5596 55.0026 76.3264 55.0026 76.0833V58.6667C55.0026 56.7217 55.7752 54.8565 57.1505 53.4812C58.5258 52.106 60.391 51.3333 62.3359 51.3333H79.7526C79.9957 51.3333 80.2289 51.2368 80.4008 51.0648C80.5727 50.8929 80.6693 50.6598 80.6693 50.4167V18.3333C80.6693 16.3884 79.8967 14.5231 78.5214 13.1479C77.1461 11.7726 75.2809 11 73.3359 11H14.6693C12.7243 11 10.8591 11.7726 9.48382 13.1479C8.10855 14.5231 7.33594 16.3884 7.33594 18.3333V69.6667Z" fill="#0087FF" fillOpacity="0.2"/>
<path d="M58.6641 58.6667V74.7853C58.6641 75.603 59.6541 76.0137 60.2297 75.4343L79.0984 56.5657C79.2269 56.4375 79.3145 56.274 79.35 56.096C79.3855 55.9179 79.3673 55.7334 79.2978 55.5657C79.2283 55.398 79.1106 55.2547 78.9595 55.154C78.8085 55.0533 78.6309 54.9997 78.4494 55H62.3307C61.3583 55 60.4256 55.3863 59.738 56.0739C59.0504 56.7616 58.6641 57.6942 58.6641 58.6667Z" fill="#0087FF"/>
</svg>
