<svg width="38" height="31" viewBox="0 0 38 31" fill="none" xmlns="http://www.w3.org/2000/svg">
<path d="M16.3346 4.82303L14.2312 2.03324C13.6245 1.22858 12.391 1.31259 11.899 2.19208L0.444438 22.6688C0.174342 23.1516 0.214989 23.7484 0.548059 24.1902L2.65147 26.98C3.25816 27.7847 4.49163 27.7006 4.98361 26.8211L16.4382 6.34443C16.7083 5.86159 16.6677 5.26478 16.3346 4.82303Z" fill="#D9D9D9"/>
<path d="M16.3346 4.82303L14.2312 2.03324C13.6245 1.22858 12.391 1.31259 11.899 2.19208L0.444438 22.6688C0.174342 23.1516 0.214989 23.7484 0.548059 24.1902L2.65147 26.98C3.25816 27.7847 4.49163 27.7006 4.98361 26.8211L16.4382 6.34443C16.7083 5.86159 16.6677 5.26478 16.3346 4.82303Z" fill="url(#paint0_linear_4046_4774)"/>
<path d="M20.0247 14.3005L18.6344 11.3642C18.4441 10.9623 18.4567 10.4939 18.6683 10.1028L22.7617 2.53827C23.2832 1.57457 24.661 1.56031 25.2023 2.51302L26.9348 5.56219C27.1827 5.99844 27.1773 6.53418 26.9206 6.96534L22.4851 14.4171C21.9138 15.3768 20.5026 15.3099 20.0247 14.3005Z" fill="#D9D9D9"/>
<path d="M20.0247 14.3005L18.6344 11.3642C18.4441 10.9623 18.4567 10.4939 18.6683 10.1028L22.7617 2.53827C23.2832 1.57457 24.661 1.56031 25.2023 2.51302L26.9348 5.56219C27.1827 5.99844 27.1773 6.53418 26.9206 6.96534L22.4851 14.4171C21.9138 15.3768 20.5026 15.3099 20.0247 14.3005Z" fill="url(#paint1_linear_4046_4774)"/>
<path d="M15.3245 16.0703L10.8949 24.0435C10.6264 24.5269 10.6686 25.1232 11.0025 25.5639L13.0203 28.2275C13.6488 29.0571 14.9316 28.9316 15.3873 27.9958L19.1638 20.2414C19.3493 19.8606 19.3517 19.4161 19.1704 19.0332L17.8056 16.1508C17.3196 15.1242 15.8761 15.0774 15.3245 16.0703Z" fill="#D9D9D9"/>
<path d="M15.3245 16.0703L10.8949 24.0435C10.6264 24.5269 10.6686 25.1232 11.0025 25.5639L13.0203 28.2275C13.6488 29.0571 14.9316 28.9316 15.3873 27.9958L19.1638 20.2414C19.3493 19.8606 19.3517 19.4161 19.1704 19.0332L17.8056 16.1508C17.3196 15.1242 15.8761 15.0774 15.3245 16.0703Z" fill="url(#paint2_linear_4046_4774)"/>
<path d="M32.6483 2.25244L21.3292 23.0525C21.072 23.5251 21.1095 24.1036 21.4255 24.5391L23.385 27.2396C23.989 28.0722 25.2556 27.9873 25.7432 27.0816L30.9027 17.4973L36.7575 6.62161C36.9809 6.20667 36.9798 5.70702 36.7545 5.2931L35.0998 2.25243C34.5713 1.28116 33.1769 1.28117 32.6483 2.25244Z" fill="#D9D9D9"/>
<path d="M32.6483 2.25244L21.3292 23.0525C21.072 23.5251 21.1095 24.1036 21.4255 24.5391L23.385 27.2396C23.989 28.0722 25.2556 27.9873 25.7432 27.0816L30.9027 17.4973L36.7575 6.62161C36.9809 6.20667 36.9798 5.70702 36.7545 5.2931L35.0998 2.25243C34.5713 1.28116 33.1769 1.28117 32.6483 2.25244Z" fill="url(#paint3_linear_4046_4774)"/>
<defs>
<linearGradient id="paint0_linear_4046_4774" x1="0" y1="0.325195" x2="18.5206" y2="1.43843" gradientUnits="userSpaceOnUse">
<stop stop-color="#0087FF"/>
<stop offset="1" stop-color="#005199"/>
</linearGradient>
<linearGradient id="paint1_linear_4046_4774" x1="10.4531" y1="0.325195" x2="28.9796" y2="1.38817" gradientUnits="userSpaceOnUse">
<stop stop-color="#0087FF"/>
<stop offset="1" stop-color="#005199"/>
</linearGradient>
<linearGradient id="paint2_linear_4046_4774" x1="10.4531" y1="0.325195" x2="28.9796" y2="1.38817" gradientUnits="userSpaceOnUse">
<stop stop-color="#0087FF"/>
<stop offset="1" stop-color="#005199"/>
</linearGradient>
<linearGradient id="paint3_linear_4046_4774" x1="20.9082" y1="0" x2="38.6957" y2="1.00254" gradientUnits="userSpaceOnUse">
<stop stop-color="#0087FF"/>
<stop offset="1" stop-color="#005199"/>
</linearGradient>
</defs>
</svg>
